<svg width="452" height="565" viewBox="0 0 452 565" fill="none" xmlns="http://www.w3.org/2000/svg">
<g clip-path="url(#clip0)">
<path d="M107.16 303.56V302.8C110.446 302.8 113.597 301.495 115.921 299.171C118.245 296.848 119.55 293.696 119.55 290.41H120.31C120.31 293.696 121.615 296.848 123.939 299.171C126.263 301.495 129.414 302.8 132.7 302.8V303.56C129.414 303.56 126.263 304.865 123.939 307.189C121.615 309.513 120.31 312.664 120.31 315.95H119.55C119.55 312.664 118.245 309.513 115.921 307.189C113.597 304.865 110.446 303.56 107.16 303.56V303.56Z" stroke="white" stroke-miterlimit="10"/>
<path d="M360.74 209.24V208.48C364.026 208.48 367.177 207.175 369.501 204.851C371.825 202.527 373.13 199.376 373.13 196.09H373.89C373.89 199.376 375.195 202.527 377.519 204.851C379.843 207.175 382.994 208.48 386.28 208.48V209.24C382.994 209.24 379.843 210.545 377.519 212.869C375.195 215.192 373.89 218.344 373.89 221.63H373.13C373.13 218.344 371.825 215.192 369.501 212.869C367.177 210.545 364.026 209.24 360.74 209.24V209.24Z" stroke="white" stroke-miterlimit="10"/>
<path d="M242.47 564.56C331.901 564.56 404.4 558.408 404.4 550.82C404.4 543.232 331.901 537.08 242.47 537.08C153.039 537.08 80.54 543.232 80.54 550.82C80.54 558.408 153.039 564.56 242.47 564.56Z" fill="#383F45"/>
<path d="M322.34 508.74L392.74 475.49" stroke="white" stroke-miterlimit="10"/>
<path d="M373.41 499.89L413.02 483.57" stroke="white" stroke-miterlimit="10"/>
<path d="M142.47 452.85L138.78 498.9L179.65 504.63L187.45 437.96L142.47 452.85Z" stroke="#212832" stroke-miterlimit="10"/>
<path d="M138.47 473.29C138.47 473.29 163.07 495.05 182.1 480.66C182.1 480.66 213.89 490.89 212.41 512.15L137 500C132.36 499.39 136.62 479.86 138.47 473.29Z" fill="#F94E1E"/>
<path d="M193.72 483.23C193.72 483.23 189.04 483.78 187.82 490.23" stroke="white" stroke-miterlimit="10"/>
<path d="M197.7 485.21C197.7 485.21 193.02 485.76 191.8 492.21" stroke="white" stroke-miterlimit="10"/>
<path d="M201.78 487.37C201.78 487.37 197.1 487.92 195.88 494.37" stroke="white" stroke-miterlimit="10"/>
<path d="M260.7 400.23L236.15 439.37L269.76 463.33L299.87 400.93L260.7 400.23Z" stroke="#212832" stroke-miterlimit="10"/>
<path d="M247.71 416.51C247.71 416.51 259.47 447.17 283.01 443.2C283.01 443.2 306.48 466.96 295.34 485.13L234.1 439.54C230.23 436.84 243 421.48 247.71 416.51Z" fill="#F94E1E"/>
<path d="M292.12 450.85C292.12 450.85 287.71 449.18 283.65 454.33" stroke="white" stroke-miterlimit="10"/>
<path d="M294.74 454.44C294.74 454.44 290.33 452.77 286.27 457.92" stroke="white" stroke-miterlimit="10"/>
<path d="M297.36 458.25C297.36 458.25 292.95 456.58 288.89 461.73" stroke="white" stroke-miterlimit="10"/>
<path d="M223.28 89.06C224.231 90.4908 225.025 92.0195 225.65 93.62C227.813 99.0533 227.876 105.097 225.827 110.574C223.777 116.052 219.763 120.57 214.565 123.25C209.367 125.929 203.358 126.578 197.707 125.07C192.057 123.561 187.171 120.004 184 115.09C183.097 113.7 182.336 112.223 181.73 110.68C180.607 107.8 180.064 104.726 180.13 101.636C180.197 98.5452 180.872 95.498 182.118 92.6688C183.363 89.8395 185.155 87.2837 187.389 85.1475C189.624 83.0114 192.258 81.337 195.14 80.22L195.33 80.16C200.308 78.2558 205.785 78.0994 210.863 79.7165C215.942 81.3335 220.32 84.6281 223.28 89.06Z" fill="white"/>
<path d="M223.28 89.06C219.38 94.79 211.78 99.59 202.44 101.51C201.78 101.64 201.13 101.77 200.44 101.87C197.918 102.272 195.363 102.43 192.81 102.34C189.652 102.253 186.523 101.711 183.52 100.73C182.421 100.364 181.348 99.9232 180.31 99.41C180.805 95.163 182.45 91.1316 185.067 87.7501C187.683 84.3686 191.173 81.7651 195.16 80.22L195.35 80.16C200.325 78.2609 205.798 78.1072 210.872 79.724C215.946 81.3409 220.321 84.6325 223.28 89.06Z" fill="#383F45"/>
<path d="M195.37 80.15C196.388 84.9193 196.36 89.8523 195.29 94.61C194.89 96.5013 194.359 98.3625 193.7 100.18C193.427 100.927 193.137 101.647 192.83 102.34C191.694 105.059 190.252 107.639 188.53 110.03C187.215 111.87 185.71 113.566 184.04 115.09C183.137 113.7 182.376 112.223 181.77 110.68C180.647 107.8 180.104 104.726 180.17 101.636C180.237 98.5452 180.912 95.4981 182.158 92.6688C183.403 89.8396 185.195 87.2837 187.429 85.1476C189.664 83.0115 192.298 81.337 195.18 80.22L195.37 80.15Z" fill="#383F45"/>
<path d="M180.15 73C181.869 75.6775 182.607 78.8686 182.237 82.0291C181.867 85.1896 180.412 88.1239 178.12 90.3318C175.829 92.5396 172.842 93.8843 169.67 94.1366C166.498 94.3888 163.337 93.533 160.725 91.7151C158.113 89.8972 156.213 87.2297 155.348 84.1674C154.483 81.1051 154.707 77.8376 155.982 74.922C157.256 72.0063 159.503 69.623 162.338 68.1784C165.173 66.7338 168.422 66.3173 171.53 67C173.291 67.3844 174.958 68.1123 176.437 69.1418C177.916 70.1714 179.178 71.4824 180.15 73Z" fill="#383F45"/>
<path d="M137.52 70.83C138.045 68.4723 139.371 66.3697 141.273 64.8802C143.174 63.3908 145.533 62.6068 147.948 62.6618C150.363 62.7167 152.684 63.6073 154.515 65.1816C156.347 66.756 157.576 68.9169 157.994 71.2959C158.411 73.675 157.99 76.1251 156.803 78.2288C155.616 80.3325 153.737 81.9596 151.485 82.8328C149.233 83.7061 146.748 83.7715 144.453 83.0179C142.158 82.2643 140.196 80.7383 138.9 78.7C138.163 77.5437 137.662 76.2532 137.425 74.9026C137.188 73.5521 137.22 72.168 137.52 70.83Z" fill="#383F45"/>
<path d="M139.2 68.57C138.841 70.1776 137.936 71.6111 136.639 72.6262C135.342 73.6414 133.733 74.1754 132.086 74.1373C130.439 74.0991 128.857 73.4913 127.608 72.4172C126.359 71.3431 125.522 69.8693 125.238 68.2468C124.954 66.6244 125.241 64.9536 126.051 63.5192C126.86 62.0848 128.142 60.9755 129.678 60.3803C131.214 59.7851 132.909 59.7408 134.473 60.2549C136.038 60.7691 137.376 61.8099 138.26 63.2C138.763 63.9891 139.105 64.8696 139.266 65.7912C139.427 66.7128 139.405 67.6572 139.2 68.57Z" fill="#383F45"/>
<path d="M197.771 111.017C202.203 109.294 204.458 104.458 202.809 100.217C201.16 95.9754 196.23 93.9342 191.798 95.6576C187.366 97.3811 185.11 102.217 186.76 106.458C188.409 110.699 193.339 112.741 197.771 111.017Z" fill="white"/>
<path d="M213.437 116.162C216.289 114.348 217.13 110.566 215.316 107.714C213.502 104.862 209.72 104.02 206.868 105.834C204.016 107.649 203.174 111.431 204.989 114.283C206.803 117.135 210.585 117.976 213.437 116.162Z" fill="#FFB9B9"/>
<path d="M230.334 109.818C234.048 107.456 235.144 102.53 232.782 98.8159C230.419 95.1019 225.493 94.0062 221.779 96.3687C218.065 98.7311 216.969 103.657 219.332 107.371C221.694 111.085 226.62 112.181 230.334 109.818Z" stroke="black" stroke-width="0.75" stroke-miterlimit="10"/>
<path d="M239.28 232C207.09 244.88 159.56 240.25 159.56 240.25L139.63 460.66H189L222.9 297.84L268.43 312.08C269.138 312.18 269.781 312.545 270.229 313.103C270.677 313.66 270.895 314.367 270.84 315.08L246.79 404.17L296.85 429.43L332 316.2C337.45 298.66 330.55 279.33 314.74 270C314.247 269.707 313.743 269.423 313.23 269.15L239.28 232Z" fill="#28696D"/>
<path d="M182.35 247.68C182.35 247.68 181.06 264.52 162.76 264" stroke="white" stroke-miterlimit="10"/>
<path d="M168.61 266.58L149.02 449.72" stroke="white" stroke-miterlimit="10"/>
<path d="M222.9 297.84L228.05 272.76" stroke="white" stroke-miterlimit="10"/>
<path d="M306.05 282C306.05 282 327.35 289.56 320.48 312.58" stroke="white" stroke-miterlimit="10"/>
<path d="M303.83 150.65L322.94 127.16C323.463 126.516 324.192 126.071 325.003 125.9C325.815 125.729 326.661 125.842 327.4 126.22C328.18 126.618 328.788 127.285 329.114 128.098C329.439 128.911 329.459 129.814 329.17 130.64L326.42 138.48L335.2 130.6C336.257 129.652 337.517 128.957 338.884 128.569C340.25 128.18 341.687 128.109 343.085 128.36C344.483 128.61 345.805 129.177 346.952 130.015C348.098 130.854 349.038 131.943 349.7 133.2V133.2C350.694 135.08 351.015 137.243 350.611 139.331C350.208 141.419 349.103 143.306 347.48 144.68C337.78 152.88 318.42 166.83 308.01 163.68C298.74 160.88 303.83 150.65 303.83 150.65Z" stroke="#212832" stroke-miterlimit="10"/>
<path d="M332.39 161.06C332.39 161.06 295.28 203.54 286.39 206.93C277.5 210.32 242.5 185.83 242.5 185.83C244.41 194.83 240.12 223.62 240.12 223.62C226.17 232.17 157.31 232.56 157.31 232.56C154.653 227.385 152.341 222.04 150.39 216.56L137.51 231L153.51 236.93L154.2 269.58C132.92 269.28 121.6 266.76 99.66 263.58C98.3242 263.39 97.043 262.922 95.8995 262.206C94.7559 261.49 93.7754 260.542 93.0213 259.423C92.2673 258.305 91.7565 257.04 91.522 255.711C91.2875 254.382 91.3345 253.019 91.66 251.71C100.89 214.42 112.82 190.27 143.27 161.49C151.835 153.006 162.069 146.395 173.324 142.076C184.579 137.757 196.609 135.824 208.65 136.4C253.08 138.55 279.03 167.87 280.2 166.01C281.87 163.37 308.02 139.82 308.02 139.82L332.39 161.06Z" fill="#F94E1E"/>
<mask id="mask0" mask-type="alpha" maskUnits="userSpaceOnUse" x="91" y="136" width="242" height="134">
<path d="M332.39 161.06C332.39 161.06 295.28 203.54 286.39 206.93C277.5 210.32 242.5 185.83 242.5 185.83C244.41 194.83 240.12 223.62 240.12 223.62C226.17 232.17 157.31 232.56 157.31 232.56C154.653 227.385 152.341 222.04 150.39 216.56L137.51 231L153.51 236.93L154.2 269.58C132.92 269.28 121.6 266.76 99.66 263.58C98.3242 263.39 97.043 262.922 95.8995 262.206C94.7559 261.49 93.7754 260.542 93.0213 259.423C92.2673 258.305 91.7565 257.04 91.522 255.711C91.2875 254.382 91.3345 253.019 91.66 251.71C100.89 214.42 112.82 190.27 143.27 161.49C151.835 153.006 162.069 146.395 173.324 142.076C184.579 137.757 196.609 135.824 208.65 136.4C253.08 138.55 279.03 167.87 280.2 166.01C281.87 163.37 308.02 139.82 308.02 139.82L332.39 161.06Z" fill="#F94E1E"/>
</mask>
<g mask="url(#mask0)">
<g opacity="0.8">
<path opacity="0.8" d="M252.37 144.24H252.25C252.205 144.219 252.167 144.187 252.139 144.146C252.111 144.106 252.094 144.059 252.09 144.01L251.75 139.62C251.748 139.573 251.758 139.526 251.779 139.483C251.8 139.441 251.831 139.404 251.87 139.377C251.909 139.35 251.954 139.334 252.002 139.329C252.049 139.324 252.096 139.331 252.14 139.35L256.14 141.25C256.181 141.275 256.216 141.31 256.239 141.352C256.263 141.394 256.276 141.442 256.276 141.49C256.276 141.538 256.263 141.586 256.239 141.628C256.216 141.67 256.181 141.705 256.14 141.73L252.51 144.22C252.466 144.239 252.418 144.246 252.37 144.24ZM252.37 140.03L252.64 143.47L255.48 141.47L252.37 140.03Z" fill="white"/>
<path opacity="0.8" d="M213.57 215.81C213.524 215.81 213.478 215.798 213.438 215.775C213.398 215.752 213.364 215.72 213.34 215.68L211.51 212.68C211.484 212.638 211.471 212.589 211.471 212.54C211.471 212.491 211.484 212.442 211.51 212.4C211.532 212.357 211.565 212.321 211.605 212.295C211.646 212.269 211.692 212.253 211.74 212.25L215.21 212.14C215.258 212.137 215.306 212.148 215.348 212.171C215.391 212.194 215.426 212.228 215.45 212.27C215.476 212.312 215.489 212.361 215.489 212.41C215.489 212.459 215.476 212.508 215.45 212.55L213.81 215.61C213.788 215.653 213.755 215.689 213.715 215.715C213.674 215.741 213.628 215.757 213.58 215.76L213.57 215.81ZM212.23 212.81L213.55 214.95L214.74 212.73L212.23 212.81Z" fill="white"/>
<path opacity="0.8" d="M101.89 180.67C101.85 180.669 101.812 180.66 101.776 180.643C101.74 180.625 101.709 180.601 101.683 180.571C101.658 180.54 101.639 180.505 101.628 180.467C101.617 180.429 101.614 180.389 101.62 180.35L102.57 174.35C102.579 174.302 102.599 174.258 102.63 174.22C102.661 174.183 102.701 174.154 102.747 174.137C102.792 174.12 102.841 174.115 102.889 174.123C102.937 174.13 102.982 174.15 103.02 174.18L107.76 178.01C107.796 178.041 107.824 178.08 107.841 178.125C107.857 178.169 107.862 178.217 107.855 178.264C107.848 178.311 107.83 178.356 107.801 178.394C107.772 178.431 107.734 178.461 107.69 178.48L102 180.65L101.89 180.67ZM103.03 174.89L102.23 179.96L107.02 178.12L103.03 174.89Z" fill="white"/>
<path opacity="0.8" d="M181.51 262C181.468 262 181.428 261.99 181.39 261.971C181.353 261.953 181.32 261.927 181.294 261.894C181.268 261.862 181.25 261.824 181.241 261.783C181.231 261.743 181.231 261.701 181.24 261.66L182.38 257C182.392 256.953 182.415 256.91 182.449 256.875C182.482 256.84 182.524 256.814 182.57 256.8C182.617 256.787 182.667 256.787 182.714 256.799C182.762 256.811 182.805 256.836 182.84 256.87L186.31 260.19C186.343 260.224 186.367 260.265 186.379 260.311C186.392 260.356 186.392 260.404 186.382 260.45C186.371 260.496 186.348 260.539 186.316 260.573C186.285 260.608 186.245 260.635 186.2 260.65L181.59 261.99L181.51 262ZM182.81 257.59L181.9 261.33L185.59 260.25L182.81 257.59Z" fill="white"/>
<path opacity="0.8" d="M167.64 157.91H167.54L161.94 155.63C161.896 155.611 161.858 155.581 161.829 155.544C161.8 155.506 161.782 155.461 161.775 155.414C161.768 155.367 161.773 155.319 161.789 155.275C161.806 155.23 161.834 155.191 161.87 155.16L166.65 151.45C166.691 151.426 166.738 151.414 166.785 151.414C166.832 151.414 166.879 151.426 166.92 151.45C166.966 151.468 167.006 151.498 167.035 151.536C167.065 151.575 167.084 151.621 167.09 151.67L167.91 157.67C167.914 157.708 167.91 157.747 167.899 157.784C167.887 157.821 167.868 157.855 167.843 157.884C167.817 157.913 167.786 157.937 167.751 157.953C167.717 157.97 167.679 157.979 167.64 157.98V157.91ZM162.58 155.28L167.3 157.2L166.61 152.2L162.58 155.28Z" fill="white"/>
<path opacity="0.8" d="M133.22 214.5C133.177 214.51 133.133 214.51 133.09 214.5L121.93 208.27C121.889 208.245 121.854 208.21 121.831 208.168C121.807 208.126 121.794 208.078 121.794 208.03C121.794 207.982 121.807 207.934 121.831 207.892C121.854 207.85 121.889 207.815 121.93 207.79L132.93 201.24C132.972 201.216 133.019 201.203 133.067 201.202C133.115 201.202 133.163 201.214 133.205 201.237C133.247 201.26 133.283 201.294 133.308 201.334C133.333 201.375 133.348 201.422 133.35 201.47L133.53 214.25C133.53 214.324 133.5 214.396 133.448 214.448C133.395 214.501 133.324 214.53 133.25 214.53L133.22 214.5ZM122.61 208L132.94 213.77L132.77 201.94L122.61 208Z" fill="white"/>
<path opacity="0.8" d="M297 224.69H296.91C296.864 224.675 296.823 224.647 296.791 224.61C296.759 224.573 296.738 224.528 296.73 224.48L296.23 221.78C296.223 221.733 296.228 221.685 296.244 221.64C296.261 221.596 296.288 221.556 296.324 221.525C296.36 221.494 296.403 221.473 296.45 221.463C296.496 221.454 296.545 221.456 296.59 221.47L299.18 222.38C299.225 222.397 299.265 222.425 299.296 222.462C299.327 222.498 299.348 222.543 299.357 222.59C299.366 222.637 299.363 222.686 299.348 222.731C299.332 222.777 299.306 222.818 299.27 222.85L297.18 224.64C297.128 224.678 297.064 224.695 297 224.69ZM296.85 222.13L297.18 223.89L298.54 222.72L296.85 222.13Z" fill="white"/>
<path opacity="0.8" d="M101.25 243L96.88 242.41C96.8331 242.402 96.789 242.382 96.7519 242.352C96.7148 242.323 96.6858 242.284 96.6678 242.24C96.6498 242.196 96.6433 242.148 96.6489 242.101C96.6546 242.054 96.6721 242.009 96.7 241.97L99.4 238.48C99.4301 238.443 99.4689 238.415 99.5129 238.398C99.5569 238.38 99.6046 238.374 99.6516 238.38C99.6985 238.386 99.7432 238.404 99.7814 238.432C99.8196 238.46 99.8501 238.497 99.87 238.54L101.54 242.62C101.556 242.662 101.562 242.708 101.557 242.753C101.551 242.798 101.535 242.841 101.51 242.878C101.484 242.915 101.45 242.946 101.41 242.967C101.37 242.989 101.325 243 101.28 243H101.25ZM97.39 241.92L100.82 242.38L99.51 239.18L97.39 241.92Z" fill="white"/>
<path opacity="0.8" d="M142.85 264.68H142.76L132.69 261.32C132.644 261.304 132.603 261.277 132.571 261.241C132.539 261.205 132.517 261.161 132.507 261.113C132.497 261.066 132.499 261.017 132.514 260.971C132.528 260.925 132.555 260.883 132.59 260.85L140.54 253.85C140.576 253.818 140.62 253.795 140.667 253.784C140.714 253.774 140.764 253.776 140.81 253.79C140.856 253.806 140.896 253.834 140.928 253.871C140.959 253.908 140.981 253.952 140.99 254L143.12 264.4C143.127 264.44 143.126 264.481 143.116 264.52C143.105 264.559 143.087 264.596 143.061 264.627C143.036 264.659 143.003 264.684 142.967 264.702C142.93 264.72 142.891 264.729 142.85 264.73V264.68ZM133.32 260.93L142.49 263.99L140.56 254.52L133.32 260.93Z" fill="white"/>
<path opacity="0.8" d="M97.93 162C97.8586 161.999 97.7903 161.971 97.74 161.92L95.65 159.92C95.6171 159.886 95.5933 159.845 95.5808 159.799C95.5683 159.754 95.5675 159.706 95.5785 159.66C95.5895 159.614 95.6118 159.571 95.6436 159.537C95.6753 159.502 95.7154 159.475 95.76 159.46L98.54 158.65C98.5866 158.637 98.6359 158.636 98.683 158.647C98.7301 158.659 98.7735 158.682 98.8087 158.716C98.844 158.749 98.8701 158.791 98.8843 158.837C98.8985 158.883 98.9005 158.933 98.89 158.98L98.21 161.79C98.1983 161.837 98.1746 161.88 98.1413 161.915C98.108 161.95 98.0662 161.976 98.02 161.99L97.93 162ZM96.37 159.86L97.77 161.2L98.23 159.32L96.37 159.86Z" fill="white"/>
<path opacity="0.8" d="M196.38 235.91C196.332 235.909 196.286 235.895 196.245 235.871C196.204 235.847 196.17 235.813 196.146 235.772C196.122 235.731 196.109 235.684 196.108 235.637C196.107 235.589 196.118 235.542 196.14 235.5L203.4 222.18C203.424 222.138 203.459 222.103 203.501 222.078C203.543 222.054 203.591 222.04 203.64 222.04C203.688 222.035 203.737 222.044 203.78 222.068C203.823 222.091 203.858 222.127 203.88 222.17L211.79 235.12C211.814 235.162 211.827 235.209 211.828 235.257C211.828 235.305 211.816 235.353 211.793 235.395C211.77 235.437 211.737 235.473 211.696 235.498C211.655 235.523 211.608 235.538 211.56 235.54L196.39 235.92L196.38 235.91ZM203.65 222.91L196.85 235.4L211.06 235.05L203.65 222.91Z" fill="white"/>
<path opacity="0.8" d="M163.41 237.41C163.367 237.41 163.325 237.4 163.287 237.38C163.249 237.361 163.216 237.334 163.19 237.3L161 234.38C160.972 234.341 160.955 234.296 160.949 234.249C160.943 234.202 160.95 234.154 160.968 234.11C160.986 234.066 161.015 234.027 161.052 233.998C161.089 233.968 161.133 233.948 161.18 233.94L164.83 233.46C164.878 233.455 164.926 233.462 164.97 233.481C165.014 233.5 165.053 233.53 165.082 233.569C165.111 233.607 165.13 233.652 165.136 233.699C165.143 233.747 165.137 233.795 165.12 233.84L163.71 237.24C163.691 237.285 163.661 237.324 163.623 237.354C163.584 237.384 163.538 237.403 163.49 237.41H163.41ZM161.68 234.41L163.34 236.57L164.34 234.05L161.68 234.41Z" fill="white"/>
<path opacity="0.8" d="M83.79 229.12H83.71C83.6638 229.106 83.622 229.08 83.5887 229.045C83.5554 229.01 83.5317 228.967 83.52 228.92L80.63 217.12C80.6201 217.073 80.6223 217.025 80.6363 216.98C80.6503 216.934 80.6757 216.893 80.71 216.86C80.745 216.826 80.7883 216.801 80.8357 216.789C80.883 216.777 80.9328 216.777 80.98 216.79L92.65 220.19C92.6946 220.205 92.7347 220.232 92.7664 220.267C92.7982 220.301 92.8206 220.344 92.8315 220.39C92.8425 220.436 92.8417 220.484 92.8292 220.529C92.8167 220.575 92.7929 220.616 92.76 220.65L84 229C83.9762 229.034 83.945 229.063 83.9086 229.084C83.8723 229.105 83.8318 229.117 83.79 229.12ZM81.28 217.44L83.94 228.31L92 220.58L81.28 217.44Z" fill="white"/>
<path opacity="0.8" d="M141.53 141.22C141.487 141.23 141.443 141.23 141.4 141.22L136.49 138.56C136.449 138.535 136.414 138.5 136.391 138.458C136.367 138.416 136.354 138.368 136.354 138.32C136.354 138.272 136.367 138.224 136.391 138.182C136.414 138.14 136.449 138.105 136.49 138.08L141.25 135.15C141.292 135.126 141.339 135.113 141.387 135.112C141.435 135.112 141.483 135.124 141.525 135.147C141.567 135.17 141.603 135.203 141.628 135.244C141.653 135.285 141.668 135.332 141.67 135.38L141.82 140.97C141.82 141.044 141.791 141.115 141.738 141.168C141.685 141.22 141.614 141.25 141.54 141.25L141.53 141.22ZM137.17 138.22L141.24 140.43L141.11 135.8L137.17 138.22Z" fill="white"/>
<path opacity="0.8" d="M184.35 242.63C184.302 242.631 184.255 242.619 184.213 242.596C184.171 242.573 184.136 242.54 184.11 242.5L182.23 239.42C182.206 239.378 182.193 239.331 182.192 239.283C182.192 239.235 182.204 239.187 182.227 239.145C182.25 239.103 182.283 239.068 182.324 239.042C182.365 239.017 182.412 239.002 182.46 239L186.06 238.91C186.107 238.911 186.154 238.924 186.196 238.946C186.237 238.969 186.273 239.001 186.3 239.04C186.325 239.083 186.337 239.131 186.337 239.18C186.337 239.229 186.325 239.277 186.3 239.32L184.57 242.49C184.546 242.532 184.511 242.567 184.469 242.592C184.426 242.616 184.379 242.63 184.33 242.63H184.35ZM183 239.54L184.38 241.8L185.65 239.47L183 239.54Z" fill="white"/>
<path opacity="0.8" d="M201.8 169.83L195.34 169.42C195.291 169.419 195.243 169.404 195.201 169.377C195.16 169.35 195.126 169.313 195.105 169.269C195.083 169.224 195.074 169.175 195.078 169.126C195.083 169.077 195.101 169.03 195.13 168.99L198.71 163.6C198.735 163.559 198.77 163.524 198.812 163.501C198.854 163.477 198.902 163.464 198.95 163.464C198.998 163.464 199.046 163.477 199.088 163.501C199.13 163.524 199.165 163.559 199.19 163.6L202.07 169.4C202.09 169.442 202.099 169.489 202.097 169.536C202.094 169.583 202.079 169.629 202.054 169.668C202.03 169.708 201.995 169.741 201.954 169.764C201.913 169.787 201.867 169.8 201.82 169.8L201.8 169.83ZM195.8 168.9L201.3 169.25L198.85 164.31L195.8 168.9Z" fill="white"/>
<path opacity="0.8" d="M273.21 200.79H273.12L269.59 199.6C269.545 199.583 269.505 199.555 269.474 199.518C269.443 199.482 269.422 199.438 269.413 199.39C269.404 199.343 269.407 199.294 269.422 199.249C269.438 199.203 269.464 199.162 269.5 199.13L272.29 196.67C272.326 196.638 272.371 196.617 272.418 196.608C272.466 196.599 272.515 196.603 272.56 196.62C272.606 196.636 272.646 196.664 272.678 196.701C272.709 196.738 272.731 196.782 272.74 196.83L273.47 200.48C273.477 200.52 273.476 200.561 273.466 200.6C273.455 200.639 273.437 200.676 273.411 200.707C273.386 200.739 273.353 200.764 273.317 200.782C273.28 200.8 273.241 200.809 273.2 200.81L273.21 200.79ZM270.21 199.22L272.83 200.1L272.28 197.39L270.21 199.22Z" fill="white"/>
<path opacity="0.8" d="M98.24 197.82C98.1956 197.818 98.1522 197.806 98.1136 197.784C98.0749 197.762 98.0419 197.731 98.0175 197.694C97.9931 197.657 97.9779 197.615 97.9731 197.57C97.9683 197.526 97.9741 197.481 97.99 197.44L100.18 192.14C100.2 192.097 100.23 192.06 100.269 192.032C100.307 192.004 100.351 191.986 100.398 191.98C100.445 191.974 100.493 191.98 100.537 191.998C100.581 192.015 100.62 192.043 100.65 192.08L104.14 196.63C104.168 196.669 104.185 196.714 104.191 196.761C104.197 196.808 104.19 196.856 104.172 196.9C104.154 196.944 104.125 196.983 104.088 197.012C104.051 197.042 104.007 197.062 103.96 197.07L98.27 197.82H98.24ZM100.5 192.82L98.67 197.24L103.41 196.61L100.5 192.82Z" fill="white"/>
<path opacity="0.8" d="M101.58 266.61C101.535 266.61 101.49 266.599 101.45 266.578C101.41 266.557 101.376 266.527 101.35 266.49L95 256.86C94.974 256.82 94.9589 256.773 94.9562 256.725C94.9534 256.677 94.963 256.629 94.9841 256.586C95.0052 256.543 95.0371 256.506 95.0766 256.478C95.1162 256.451 95.1621 256.434 95.21 256.43L106.7 255.78C106.749 255.774 106.798 255.783 106.842 255.804C106.887 255.825 106.924 255.858 106.95 255.9C106.976 255.942 106.989 255.991 106.989 256.04C106.989 256.089 106.976 256.138 106.95 256.18L101.77 266.46C101.749 266.503 101.716 266.54 101.675 266.566C101.635 266.593 101.588 266.608 101.54 266.61H101.58ZM95.77 257L101.56 265.83L106.31 256.41L95.77 257Z" fill="white"/>
<path opacity="0.8" d="M237.89 243.16H237.78C237.735 243.141 237.696 243.111 237.666 243.073C237.636 243.034 237.617 242.988 237.61 242.94L236.61 234.94C236.605 234.892 236.612 234.844 236.631 234.8C236.65 234.756 236.68 234.718 236.719 234.688C236.757 234.659 236.802 234.64 236.849 234.634C236.897 234.627 236.945 234.633 236.99 234.65L244.43 237.79C244.473 237.81 244.51 237.84 244.538 237.879C244.566 237.917 244.584 237.962 244.59 238.008C244.596 238.055 244.59 238.103 244.572 238.147C244.555 238.191 244.527 238.23 244.49 238.26L238.05 243.14C238 243.163 237.944 243.17 237.89 243.16ZM237.22 235.31L238.1 242.38L243.78 238.08L237.22 235.31Z" fill="white"/>
<path opacity="0.8" d="M262.89 182.71C262.847 182.709 262.805 182.698 262.767 182.678C262.729 182.657 262.696 182.629 262.671 182.594C262.646 182.559 262.629 182.519 262.622 182.477C262.615 182.435 262.618 182.391 262.63 182.35L265.15 174.41C265.166 174.364 265.193 174.323 265.229 174.291C265.265 174.259 265.309 174.237 265.357 174.227C265.404 174.217 265.453 174.219 265.499 174.234C265.545 174.248 265.587 174.275 265.62 174.31L271.24 180.46C271.27 180.496 271.291 180.539 271.3 180.585C271.309 180.631 271.307 180.679 271.293 180.723C271.279 180.768 271.254 180.809 271.22 180.841C271.187 180.874 271.145 180.898 271.1 180.91L262.96 182.7L262.89 182.71ZM265.52 175.03L263.29 182.03L270.49 180.44L265.52 175.03Z" fill="white"/>
<path opacity="0.8" d="M118.78 192.7C118.722 192.696 118.667 192.674 118.622 192.638C118.577 192.601 118.544 192.551 118.529 192.495C118.513 192.439 118.516 192.379 118.536 192.325C118.556 192.27 118.592 192.223 118.64 192.19C119.42 191.72 119.19 190.33 118.96 188.98C118.71 187.45 118.44 185.88 119.54 185.21C120.64 184.54 121.92 185.5 123.15 186.43C124.38 187.36 125.37 188.1 126.15 187.62C126.93 187.14 126.7 185.76 126.47 184.41C126.21 182.88 125.95 181.31 127.05 180.64C128.15 179.97 129.43 180.94 130.66 181.87C131.89 182.8 132.87 183.54 133.66 183.07C134.45 182.6 134.21 181.21 133.98 179.86C133.72 178.33 133.46 176.76 134.56 176.09C135.66 175.42 136.93 176.39 138.17 177.32C139.41 178.25 140.39 178.99 141.17 178.52C141.201 178.493 141.237 178.473 141.276 178.462C141.315 178.451 141.356 178.448 141.396 178.454C141.436 178.46 141.475 178.475 141.509 178.497C141.543 178.519 141.571 178.549 141.593 178.584C141.614 178.618 141.628 178.657 141.632 178.698C141.637 178.738 141.633 178.779 141.621 178.818C141.608 178.856 141.587 178.892 141.559 178.922C141.532 178.951 141.498 178.975 141.46 178.99C140.36 179.65 139.09 178.69 137.85 177.76C136.61 176.83 135.64 176.09 134.85 176.56C134.06 177.03 134.3 178.42 134.53 179.77C134.79 181.3 135.05 182.87 133.95 183.54C132.85 184.21 131.58 183.24 130.34 182.31C129.1 181.38 128.12 180.64 127.34 181.11C126.56 181.58 126.79 182.97 127.02 184.32C127.28 185.85 127.54 187.42 126.44 188.09C125.34 188.76 124.06 187.8 122.83 186.86C121.6 185.92 120.61 185.19 119.83 185.67C119.05 186.15 119.28 187.53 119.51 188.88C119.76 190.41 120.03 191.98 118.93 192.65C118.886 192.681 118.834 192.698 118.78 192.7Z" fill="white"/>
<path opacity="0.8" d="M289.58 209.87C288.84 209.87 288.38 209.06 287.94 208.28C287.5 207.5 287.18 206.91 286.71 206.97C286.674 206.976 286.637 206.974 286.601 206.965C286.566 206.956 286.532 206.939 286.503 206.917C286.474 206.894 286.45 206.866 286.432 206.834C286.415 206.802 286.404 206.767 286.4 206.73C286.391 206.657 286.412 206.584 286.457 206.526C286.502 206.468 286.567 206.43 286.64 206.42C287.47 206.31 287.96 207.17 288.43 208C288.81 208.67 289.2 209.37 289.66 209.31C290.12 209.25 290.31 208.47 290.5 207.72C290.73 206.79 290.97 205.83 291.8 205.72C292.63 205.61 293.12 206.47 293.59 207.3C293.97 207.97 294.37 208.66 294.82 208.61C295.27 208.56 295.47 207.77 295.66 207.02C295.89 206.09 296.13 205.13 296.96 205.02C297.79 204.91 298.28 205.77 298.75 206.6C299.13 207.27 299.52 207.96 299.99 207.9C300.46 207.84 300.65 207.06 300.83 206.31C301.06 205.38 301.3 204.42 302.13 204.31C302.166 204.304 302.203 204.306 302.239 204.315C302.274 204.325 302.308 204.341 302.337 204.363C302.366 204.386 302.39 204.414 302.408 204.446C302.425 204.478 302.436 204.514 302.44 204.55C302.449 204.623 302.428 204.696 302.383 204.754C302.338 204.812 302.273 204.85 302.2 204.86C301.74 204.92 301.54 205.7 301.36 206.45C301.13 207.38 300.89 208.34 300.06 208.45C299.23 208.56 298.74 207.7 298.27 206.87C297.89 206.2 297.48 205.49 297.03 205.56C296.58 205.63 296.38 206.4 296.19 207.15C295.96 208.08 295.72 209.04 294.89 209.15C294.06 209.26 293.57 208.4 293.1 207.57C292.72 206.9 292.33 206.21 291.87 206.26C291.41 206.31 291.22 207.1 291.03 207.85C290.8 208.78 290.56 209.74 289.73 209.85L289.58 209.87Z" fill="white"/>
<path opacity="0.8" d="M334.79 274.08C334.752 274.08 334.715 274.072 334.68 274.056C334.646 274.041 334.615 274.018 334.59 273.99C333.67 272.99 334.36 271.5 335.04 269.99C335.64 268.68 336.25 267.33 335.59 266.64C334.93 265.95 333.59 266.5 332.22 267.03C330.72 267.63 329.17 268.26 328.22 267.29C327.27 266.32 327.99 264.8 328.66 263.29C329.26 261.98 329.87 260.63 329.21 259.94C328.55 259.25 327.21 259.8 325.83 260.33C324.33 260.94 322.77 261.56 321.83 260.59C320.89 259.62 321.6 258.1 322.27 256.59C322.87 255.28 323.48 253.93 322.81 253.23C322.14 252.53 320.81 253.08 319.43 253.62C317.93 254.22 316.37 254.85 315.43 253.88C315.393 253.825 315.377 253.759 315.385 253.694C315.392 253.628 315.422 253.567 315.47 253.522C315.518 253.476 315.58 253.449 315.646 253.445C315.712 253.441 315.777 253.461 315.83 253.5C316.5 254.2 317.83 253.64 319.21 253.11C320.71 252.51 322.27 251.88 323.21 252.85C324.15 253.82 323.44 255.34 322.77 256.85C322.17 258.16 321.56 259.51 322.23 260.21C322.9 260.91 324.23 260.35 325.61 259.82C327.11 259.22 328.66 258.59 329.61 259.56C330.56 260.53 329.84 262.05 329.17 263.56C328.57 264.87 327.96 266.22 328.62 266.91C329.28 267.6 330.62 267.05 331.99 266.52C333.49 265.92 335.05 265.29 335.99 266.26C336.93 267.23 336.22 268.75 335.54 270.26C334.94 271.57 334.33 272.91 334.99 273.61C335.027 273.65 335.051 273.699 335.06 273.752C335.069 273.805 335.063 273.86 335.042 273.91C335.021 273.959 334.986 274.002 334.941 274.032C334.896 274.062 334.844 274.079 334.79 274.08Z" fill="white"/>
<path opacity="0.8" d="M288.81 196.75C288.764 196.762 288.716 196.762 288.67 196.75C288.607 196.712 288.561 196.652 288.542 196.58C288.523 196.509 288.533 196.434 288.57 196.37C289.12 195.43 288.1 194.13 287.12 192.87C286.14 191.61 284.89 190.02 285.63 188.75C286.37 187.48 288.19 187.75 289.95 188.02C291.53 188.25 293.16 188.5 293.71 187.56C294.26 186.62 293.24 185.32 292.26 184.06C291.28 182.8 290.03 181.21 290.77 179.95C291.51 178.69 293.32 178.95 295.08 179.22C296.66 179.46 298.29 179.7 298.84 178.76C299.39 177.82 298.37 176.52 297.39 175.27C296.41 174.02 295.16 172.42 295.9 171.16C296.64 169.9 298.45 170.16 300.21 170.44C301.79 170.68 303.42 170.92 303.97 169.98C303.986 169.943 304.009 169.911 304.038 169.884C304.067 169.857 304.102 169.837 304.14 169.824C304.177 169.812 304.217 169.807 304.257 169.812C304.296 169.816 304.334 169.828 304.369 169.848C304.403 169.868 304.432 169.895 304.456 169.928C304.479 169.96 304.494 169.997 304.502 170.036C304.51 170.075 304.509 170.115 304.5 170.153C304.491 170.192 304.474 170.228 304.45 170.26C303.72 171.52 301.9 171.26 300.14 170.98C298.56 170.74 296.93 170.5 296.38 171.44C295.83 172.38 296.85 173.68 297.83 174.93C298.81 176.18 300.06 177.78 299.32 179.04C298.58 180.3 296.77 180.04 295.01 179.77C293.43 179.54 291.8 179.29 291.25 180.23C290.7 181.17 291.72 182.47 292.7 183.72C293.68 184.97 294.93 186.57 294.19 187.83C293.45 189.09 291.63 188.83 289.87 188.56C288.29 188.33 286.66 188.08 286.11 189.02C285.56 189.96 286.58 191.26 287.56 192.52C288.54 193.78 289.79 195.37 289.05 196.64C289.022 196.677 288.986 196.706 288.944 196.725C288.902 196.744 288.856 196.753 288.81 196.75Z" fill="white"/>
<path opacity="0.8" d="M333.06 210C332.991 209.998 332.925 209.97 332.875 209.922C332.825 209.874 332.795 209.809 332.79 209.74C332.69 208.38 334.24 207.63 335.74 206.91C337.07 206.27 338.44 205.61 338.37 204.61C338.3 203.61 336.85 203.15 335.44 202.7C333.86 202.19 332.22 201.7 332.13 200.31C332.04 198.92 333.58 198.2 335.07 197.48C336.4 196.84 337.77 196.17 337.7 195.18C337.63 194.19 336.18 193.72 334.77 193.27C333.19 192.76 331.55 192.27 331.46 190.88C331.37 189.49 332.91 188.76 334.4 188.04C335.73 187.4 337.1 186.73 337.03 185.74C336.96 184.75 335.51 184.28 334.1 183.83C332.52 183.32 330.88 182.83 330.79 181.43C330.787 181.357 330.813 181.286 330.861 181.232C330.91 181.178 330.977 181.145 331.05 181.14C331.123 181.137 331.193 181.163 331.248 181.211C331.302 181.26 331.335 181.327 331.34 181.4C331.41 182.4 332.86 182.86 334.27 183.31C335.85 183.82 337.49 184.31 337.58 185.71C337.67 187.11 336.13 187.82 334.64 188.55C333.31 189.19 331.94 189.86 332.01 190.85C332.08 191.84 333.53 192.31 334.94 192.76C336.52 193.27 338.16 193.76 338.25 195.15C338.34 196.54 336.8 197.26 335.31 197.98C333.98 198.62 332.61 199.29 332.68 200.28C332.75 201.27 334.2 201.74 335.61 202.19C337.19 202.7 338.83 203.19 338.92 204.58C339.01 205.97 337.47 206.69 335.97 207.41C334.64 208.05 333.27 208.71 333.34 209.71C333.343 209.783 333.317 209.853 333.269 209.908C333.22 209.962 333.152 209.995 333.08 210H333.06Z" fill="white"/>
<path opacity="0.8" d="M246.63 221C246.567 221.01 246.503 221.01 246.44 221C245.96 220.85 245.92 220.28 245.89 219.82C245.89 219.56 245.89 219.16 245.72 219.12C245.55 219.08 245.35 219.39 245.18 219.59C244.89 219.95 244.52 220.39 244.05 220.24C243.58 220.09 243.53 219.52 243.5 219.06C243.5 218.8 243.5 218.4 243.33 218.36C243.16 218.32 242.96 218.63 242.79 218.83C242.5 219.19 242.13 219.63 241.66 219.48C241.19 219.33 241.14 218.76 241.11 218.3C241.11 218.04 241.11 217.64 240.94 217.6C240.877 217.572 240.827 217.522 240.799 217.459C240.771 217.396 240.767 217.325 240.788 217.259C240.809 217.193 240.853 217.138 240.913 217.103C240.972 217.068 241.042 217.056 241.11 217.07C241.59 217.22 241.63 217.79 241.66 218.25C241.66 218.51 241.66 218.91 241.83 218.95C242 218.99 242.2 218.68 242.37 218.48C242.66 218.12 243.02 217.68 243.5 217.83C243.98 217.98 244.02 218.55 244.05 219.01C244.05 219.27 244.05 219.67 244.22 219.71C244.39 219.75 244.59 219.44 244.76 219.24C245.05 218.88 245.42 218.44 245.89 218.59C246.36 218.74 246.41 219.31 246.44 219.77C246.44 220.03 246.44 220.43 246.61 220.47C246.78 220.51 246.98 220.2 247.15 220C247.44 219.64 247.81 219.2 248.28 219.35C248.343 219.378 248.393 219.429 248.421 219.491C248.449 219.554 248.453 219.626 248.432 219.691C248.411 219.757 248.367 219.812 248.307 219.847C248.248 219.882 248.178 219.894 248.11 219.88C247.99 219.88 247.74 220.15 247.57 220.35C247.4 220.55 247 221 246.63 221Z" fill="white"/>
<path opacity="0.8" d="M177.9 231.44C177.852 231.441 177.805 231.429 177.763 231.406C177.721 231.383 177.686 231.35 177.66 231.31C176.88 230 178.06 228.46 179.2 226.97C180.34 225.48 181.29 224.24 180.7 223.25C180.11 222.26 178.38 222.53 176.7 222.8C174.85 223.09 172.94 223.4 172.15 222.09C171.36 220.78 172.55 219.24 173.68 217.75C174.81 216.26 175.77 215.02 175.18 214.03C174.59 213.04 172.86 213.31 171.18 213.58C169.33 213.87 167.42 214.18 166.63 212.86C165.84 211.54 167.02 210 168.16 208.52C169.3 207.04 170.25 205.79 169.66 204.79C169.07 203.79 167.34 204.07 165.66 204.33C163.81 204.62 161.89 204.93 161.11 203.61C161.09 203.549 161.091 203.484 161.113 203.424C161.135 203.364 161.177 203.313 161.232 203.281C161.287 203.248 161.352 203.235 161.415 203.244C161.478 203.253 161.536 203.283 161.58 203.33C162.17 204.33 163.9 204.05 165.58 203.79C167.43 203.5 169.34 203.19 170.13 204.51C170.92 205.83 169.74 207.37 168.6 208.85C167.46 210.33 166.51 211.58 167.1 212.58C167.69 213.58 169.42 213.3 171.1 213.03C172.95 212.74 174.86 212.43 175.65 213.75C176.44 215.07 175.25 216.6 174.12 218.09C172.99 219.58 172.03 220.82 172.62 221.81C173.21 222.8 174.94 222.53 176.62 222.26C178.47 221.97 180.38 221.66 181.17 222.97C181.96 224.28 180.77 225.82 179.63 227.31C178.49 228.8 177.54 230.04 178.13 231.03C178.154 231.072 178.167 231.12 178.167 231.169C178.168 231.218 178.155 231.266 178.131 231.309C178.106 231.351 178.071 231.387 178.029 231.412C177.987 231.436 177.939 231.45 177.89 231.45L177.9 231.44Z" fill="white"/>
<path opacity="0.8" d="M315.66 280.63C315.387 280.653 315.113 280.609 314.862 280.501C314.611 280.393 314.39 280.224 314.22 280.01C313.5 279.01 314.3 277.76 315.06 276.52C315.73 275.44 316.43 274.33 315.93 273.65C315.43 272.97 314.16 273.3 312.93 273.65C311.52 274.01 310.07 274.39 309.35 273.41C308.63 272.43 309.43 271.16 310.2 269.93C310.87 268.85 311.57 267.74 311.07 267.06C310.57 266.38 309.3 266.71 308.07 267.06C306.66 267.42 305.21 267.8 304.49 266.83C303.77 265.86 304.57 264.58 305.34 263.35C306.01 262.27 306.71 261.16 306.21 260.49C306.179 260.462 306.156 260.428 306.14 260.39C306.124 260.352 306.117 260.311 306.119 260.27C306.121 260.229 306.132 260.188 306.151 260.152C306.17 260.115 306.197 260.084 306.23 260.059C306.263 260.034 306.301 260.017 306.342 260.009C306.382 260 306.424 260.001 306.464 260.011C306.504 260.02 306.542 260.039 306.574 260.065C306.606 260.09 306.632 260.123 306.65 260.16C307.37 261.16 306.57 262.41 305.8 263.64C305.13 264.72 304.43 265.83 304.93 266.5C305.43 267.17 306.7 266.85 307.93 266.5C309.34 266.13 310.79 265.76 311.51 266.73C312.23 267.7 311.43 268.98 310.66 270.21C309.99 271.29 309.29 272.4 309.79 273.08C310.29 273.76 311.56 273.43 312.79 273.08C314.2 272.72 315.65 272.34 316.37 273.32C317.09 274.3 316.29 275.57 315.53 276.81C314.86 277.89 314.17 279 314.66 279.68C315.15 280.36 316.43 280.03 317.66 279.68C319.07 279.32 320.52 278.94 321.24 279.92C321.269 279.979 321.276 280.045 321.261 280.109C321.245 280.172 321.209 280.228 321.156 280.267C321.104 280.306 321.04 280.326 320.975 280.323C320.91 280.32 320.848 280.294 320.8 280.25C320.3 279.57 319.03 279.9 317.8 280.25C317.104 280.461 316.386 280.589 315.66 280.63Z" fill="white"/>
<path opacity="0.8" d="M193.46 213.35C193.418 213.351 193.377 213.342 193.339 213.325C193.301 213.308 193.267 213.282 193.24 213.25C192.97 212.93 193.19 212.54 193.36 212.25C193.445 212.122 193.506 211.98 193.54 211.83C193.389 211.848 193.242 211.885 193.1 211.94C192.76 212.05 192.33 212.19 192.1 211.87C191.87 211.55 192.05 211.15 192.22 210.87C192.305 210.742 192.366 210.6 192.4 210.45C192.249 210.464 192.1 210.501 191.96 210.56C191.62 210.67 191.19 210.81 190.96 210.49C190.73 210.17 190.91 209.77 191.08 209.49C191.162 209.362 191.22 209.219 191.25 209.07C191.099 209.085 190.95 209.122 190.81 209.18C190.47 209.29 190.04 209.43 189.81 209.11C189.777 209.084 189.75 209.052 189.731 209.014C189.712 208.977 189.702 208.936 189.701 208.894C189.7 208.852 189.709 208.81 189.727 208.772C189.744 208.734 189.77 208.7 189.802 208.673C189.834 208.646 189.872 208.627 189.913 208.617C189.953 208.607 189.996 208.606 190.037 208.614C190.078 208.622 190.117 208.64 190.15 208.665C190.183 208.69 190.211 208.723 190.23 208.76C190.381 208.751 190.53 208.717 190.67 208.66C191.01 208.55 191.44 208.41 191.67 208.73C191.9 209.05 191.72 209.45 191.55 209.73C191.468 209.858 191.411 210.001 191.38 210.15C191.531 210.132 191.678 210.095 191.82 210.04C192.16 209.93 192.59 209.79 192.82 210.11C193.05 210.43 192.87 210.82 192.7 211.11C192.615 211.238 192.554 211.38 192.52 211.53C192.671 211.515 192.819 211.478 192.96 211.42C193.3 211.31 193.73 211.17 193.96 211.49C194.19 211.81 194.01 212.2 193.84 212.49C193.755 212.618 193.694 212.76 193.66 212.91C193.695 212.949 193.718 212.998 193.726 213.051C193.734 213.103 193.726 213.156 193.704 213.204C193.681 213.252 193.645 213.293 193.6 213.32C193.555 213.348 193.503 213.362 193.45 213.36L193.46 213.35Z" fill="white"/>
<path opacity="0.8" d="M209.86 203.36C209.795 203.362 209.731 203.341 209.68 203.3C208.59 202.39 209.14 200.69 209.68 199.05C210.16 197.58 210.68 196.05 209.85 195.39C209.02 194.73 207.64 195.48 206.28 196.22C204.76 197.04 203.19 197.9 202.1 196.99C201.01 196.08 201.56 194.38 202.1 192.74C202.58 191.27 203.1 189.74 202.27 189.08C201.44 188.42 200.06 189.17 198.7 189.91C197.18 190.73 195.61 191.58 194.52 190.68C193.43 189.78 193.98 188.07 194.52 186.43C195 184.96 195.52 183.43 194.68 182.77C193.84 182.11 192.47 182.86 191.11 183.6C189.59 184.42 188.02 185.27 186.92 184.36C186.881 184.31 186.86 184.247 186.862 184.184C186.863 184.12 186.886 184.059 186.926 184.01C186.967 183.961 187.024 183.927 187.086 183.914C187.148 183.902 187.213 183.911 187.27 183.94C188.08 184.61 189.48 183.85 190.84 183.11C192.36 182.29 193.93 181.44 195.03 182.35C196.13 183.26 195.57 184.96 195.03 186.6C194.55 188.07 194.03 189.6 194.87 190.26C195.71 190.92 197.08 190.17 198.44 189.43C199.96 188.61 201.53 187.75 202.62 188.66C203.71 189.57 203.16 191.27 202.62 192.91C202.14 194.38 201.62 195.91 202.45 196.57C203.28 197.23 204.66 196.48 206.02 195.74C207.54 194.92 209.11 194.06 210.2 194.97C211.29 195.88 210.74 197.58 210.2 199.22C209.72 200.69 209.2 202.22 210.03 202.87C210.072 202.907 210.102 202.957 210.116 203.011C210.13 203.066 210.127 203.124 210.108 203.177C210.088 203.23 210.053 203.275 210.007 203.308C209.961 203.341 209.906 203.359 209.85 203.36H209.86Z" fill="white"/>
<path opacity="0.8" d="M181.84 196.29H181.76C181.25 196.13 181.21 195.54 181.17 195.02C181.17 194.71 181.11 194.28 180.96 194.23C180.81 194.18 180.54 194.52 180.34 194.76C180.01 195.16 179.64 195.63 179.13 195.47C178.62 195.31 178.58 194.72 178.54 194.2C178.54 193.89 178.48 193.46 178.33 193.41C178.18 193.36 177.91 193.69 177.71 193.94C177.38 194.35 177.01 194.8 176.5 194.65C175.99 194.5 175.95 193.9 175.91 193.38C175.91 193.07 175.85 192.64 175.7 192.59C175.55 192.54 175.28 192.87 175.08 193.12C174.75 193.52 174.38 193.99 173.87 193.82C173.81 193.791 173.761 193.742 173.734 193.681C173.707 193.619 173.703 193.55 173.722 193.486C173.742 193.422 173.783 193.367 173.84 193.331C173.896 193.295 173.964 193.281 174.03 193.29C174.19 193.29 174.45 193.01 174.65 192.76C174.98 192.36 175.36 191.89 175.86 192.06C176.36 192.23 176.41 192.81 176.45 193.33C176.45 193.64 176.51 194.07 176.66 194.12C176.81 194.17 177.08 193.84 177.28 193.59C177.61 193.19 177.98 192.72 178.49 192.88C179 193.04 179.04 193.63 179.08 194.15C179.08 194.46 179.14 194.89 179.29 194.94C179.44 194.99 179.71 194.66 179.91 194.41C180.24 194.01 180.62 193.54 181.12 193.7C181.62 193.86 181.67 194.45 181.71 194.97C181.71 195.28 181.77 195.71 181.92 195.76C181.979 195.783 182.029 195.825 182.06 195.88C182.092 195.935 182.104 195.999 182.095 196.062C182.086 196.125 182.056 196.182 182.009 196.226C181.963 196.269 181.903 196.295 181.84 196.3V196.29Z" fill="white"/>
<path opacity="0.8" d="M235.68 263.52C235.101 263.415 234.57 263.132 234.16 262.71C233.66 262.31 233.16 261.89 232.82 262.07C232.758 262.091 232.691 262.09 232.63 262.067C232.568 262.043 232.517 261.999 232.485 261.942C232.453 261.885 232.442 261.819 232.454 261.754C232.466 261.69 232.5 261.632 232.55 261.59C233.2 261.23 233.89 261.79 234.55 262.28C235.21 262.77 235.55 263.1 235.89 262.92C236.23 262.74 236.12 262.08 236.04 261.44C235.96 260.8 235.81 259.77 236.46 259.44C237.11 259.11 237.8 259.64 238.46 260.13C239.12 260.62 239.46 260.95 239.8 260.77C240.14 260.59 240.03 259.93 239.95 259.29C239.87 258.65 239.73 257.62 240.37 257.29C241.01 256.96 241.72 257.49 242.37 257.98C243.02 258.47 243.37 258.8 243.71 258.62C244.05 258.44 243.94 257.78 243.86 257.14C243.78 256.5 243.64 255.47 244.28 255.14C244.342 255.119 244.409 255.12 244.47 255.143C244.532 255.167 244.583 255.211 244.615 255.268C244.647 255.325 244.658 255.391 244.646 255.456C244.634 255.52 244.6 255.578 244.55 255.62C244.23 255.8 244.32 256.46 244.4 257.1C244.48 257.74 244.62 258.77 243.98 259.1C243.34 259.43 242.63 258.9 241.98 258.41C241.33 257.92 240.98 257.59 240.63 257.77C240.28 257.95 240.4 258.61 240.48 259.25C240.56 259.89 240.71 260.92 240.06 261.25C239.41 261.58 238.72 261.05 238.06 260.56C237.4 260.07 237.06 259.74 236.72 259.92C236.38 260.1 236.49 260.76 236.57 261.4C236.65 262.04 236.8 263.07 236.15 263.4C236.008 263.483 235.845 263.525 235.68 263.52Z" fill="white"/>
<path opacity="0.8" d="M270.47 230C270.411 230 270.353 229.98 270.306 229.944C270.259 229.908 270.225 229.857 270.21 229.8C270.02 229.14 268.92 229.03 267.86 228.92C266.61 228.79 265.32 228.66 265.03 227.64C264.74 226.62 265.76 225.82 266.75 225.06C267.74 224.3 268.47 223.73 268.28 223.06C268.09 222.39 266.99 222.29 265.93 222.18C264.68 222.06 263.4 221.93 263.1 220.91C262.8 219.89 263.83 219.1 264.82 218.33C265.81 217.56 266.54 217 266.35 216.33C266.16 215.66 265.06 215.56 264 215.45C262.75 215.33 261.46 215.2 261.17 214.18C260.88 213.16 261.9 212.37 262.89 211.6C263.88 210.83 264.61 210.27 264.42 209.6C264.402 209.563 264.392 209.523 264.391 209.482C264.391 209.441 264.399 209.4 264.415 209.363C264.432 209.325 264.457 209.292 264.488 209.265C264.519 209.238 264.556 209.218 264.595 209.207C264.634 209.196 264.676 209.193 264.716 209.2C264.757 209.207 264.796 209.222 264.829 209.245C264.863 209.269 264.892 209.299 264.912 209.334C264.933 209.37 264.946 209.409 264.95 209.45C265.24 210.45 264.22 211.26 263.23 212.03C262.24 212.8 261.51 213.36 261.7 214.03C261.89 214.7 262.99 214.8 264.05 214.91C265.3 215.03 266.59 215.16 266.88 216.18C267.17 217.2 266.15 217.99 265.16 218.76C264.17 219.53 263.44 220.09 263.63 220.76C263.82 221.43 264.92 221.53 265.98 221.64C267.23 221.77 268.52 221.89 268.81 222.92C269.1 223.95 268.08 224.74 267.09 225.5C266.1 226.26 265.37 226.83 265.56 227.5C265.75 228.17 266.85 228.27 267.91 228.38C269.16 228.51 270.45 228.64 270.74 229.66C270.759 229.73 270.749 229.805 270.714 229.868C270.678 229.932 270.62 229.979 270.55 230H270.47Z" fill="white"/>
<path opacity="0.8" d="M228.62 282.45C228.582 282.45 228.545 282.442 228.51 282.426C228.476 282.411 228.445 282.388 228.42 282.36C227.72 281.61 228.26 280.48 228.78 279.36C229.22 278.44 229.68 277.48 229.23 277C228.78 276.52 227.8 276.9 226.84 277.27C225.71 277.7 224.54 278.15 223.84 277.4C223.14 276.65 223.68 275.52 224.2 274.4C224.64 273.47 225.1 272.52 224.65 272.04C224.2 271.56 223.22 271.94 222.26 272.31C221.13 272.74 219.96 273.19 219.26 272.44C218.56 271.69 219.1 270.56 219.62 269.44C220.06 268.51 220.52 267.56 220.07 267.07C219.62 266.58 218.63 266.97 217.68 267.33C216.55 267.76 215.38 268.21 214.68 267.45C214.645 267.426 214.616 267.395 214.594 267.359C214.573 267.322 214.56 267.281 214.557 267.239C214.554 267.197 214.56 267.155 214.575 267.115C214.591 267.076 214.615 267.041 214.646 267.012C214.677 266.983 214.714 266.962 214.755 266.95C214.795 266.937 214.838 266.934 214.879 266.941C214.921 266.947 214.961 266.963 214.996 266.987C215.03 267.011 215.059 267.043 215.08 267.08C215.53 267.56 216.52 267.18 217.47 266.82C218.6 266.39 219.77 265.94 220.47 266.7C221.17 267.46 220.63 268.59 220.11 269.7C219.67 270.63 219.21 271.58 219.66 272.07C220.11 272.56 221.09 272.17 222.05 271.8C223.18 271.37 224.35 270.92 225.05 271.67C225.75 272.42 225.21 273.55 224.69 274.67C224.25 275.6 223.79 276.55 224.24 277.03C224.69 277.51 225.67 277.13 226.63 276.76C227.76 276.33 228.93 275.88 229.63 276.63C230.33 277.38 229.79 278.51 229.27 279.63C228.83 280.55 228.37 281.51 228.82 281.99C228.854 282.03 228.875 282.078 228.883 282.13C228.89 282.181 228.883 282.234 228.863 282.282C228.842 282.33 228.808 282.371 228.765 282.4C228.722 282.43 228.672 282.447 228.62 282.45Z" fill="white"/>
<path opacity="0.8" d="M246.21 165.07C245.999 165.072 245.792 165.017 245.61 164.91C244.77 164.41 244.94 163.25 245.12 162.12C245.26 161.17 245.41 160.19 244.89 159.88C244.37 159.57 243.58 160.18 242.83 160.77C242.08 161.36 240.99 162.2 240.15 161.7C239.31 161.2 239.48 160.04 239.66 158.91C239.8 157.96 239.95 156.98 239.43 156.68C238.91 156.38 238.13 156.98 237.37 157.57C236.61 158.16 235.54 159 234.69 158.5C233.84 158 234.03 156.84 234.2 155.71C234.35 154.76 234.5 153.78 233.98 153.48C233.94 153.467 233.904 153.445 233.874 153.416C233.844 153.387 233.821 153.351 233.806 153.312C233.792 153.273 233.786 153.231 233.79 153.189C233.794 153.147 233.807 153.107 233.828 153.071C233.85 153.035 233.879 153.005 233.914 152.981C233.948 152.958 233.988 152.943 234.029 152.937C234.071 152.931 234.113 152.935 234.153 152.947C234.193 152.96 234.229 152.981 234.26 153.01C235.1 153.51 234.92 154.67 234.75 155.8C234.6 156.75 234.45 157.73 234.97 158.03C235.49 158.33 236.28 157.73 237.03 157.14C237.78 156.55 238.87 155.72 239.71 156.21C240.55 156.7 240.38 157.87 240.2 159C240.06 159.95 239.91 160.93 240.43 161.23C240.95 161.53 241.74 160.93 242.49 160.34C243.24 159.75 244.33 158.92 245.17 159.41C246.01 159.9 245.84 161.07 245.67 162.2C245.53 163.15 245.38 164.13 245.9 164.44C246.42 164.75 247.21 164.14 247.97 163.55C248.73 162.96 249.81 162.13 250.65 162.62C250.69 162.633 250.726 162.655 250.756 162.684C250.786 162.713 250.809 162.749 250.824 162.788C250.838 162.827 250.844 162.869 250.84 162.911C250.836 162.953 250.823 162.993 250.802 163.029C250.781 163.065 250.751 163.096 250.716 163.119C250.682 163.142 250.642 163.157 250.601 163.163C250.559 163.169 250.517 163.165 250.477 163.153C250.437 163.14 250.401 163.119 250.37 163.09C249.84 162.78 249.06 163.39 248.31 163.98C247.736 164.547 247.004 164.927 246.21 165.07Z" fill="white"/>
<path opacity="0.8" d="M210.89 159.4C210.844 159.399 210.799 159.387 210.759 159.364C210.719 159.341 210.685 159.309 210.66 159.27C210.09 158.39 210.83 157.35 211.54 156.35C212.25 155.35 212.78 154.61 212.41 154.04C212.04 153.47 210.98 153.68 209.95 153.89C208.74 154.13 207.49 154.38 206.95 153.5C206.41 152.62 207.12 151.58 207.83 150.57C208.44 149.71 209.07 148.83 208.7 148.26C208.33 147.69 207.27 147.9 206.24 148.11C205.03 148.35 203.78 148.59 203.24 147.72C202.7 146.85 203.41 145.8 204.12 144.79C204.83 143.78 205.35 143.05 204.99 142.48C204.63 141.91 203.56 142.12 202.53 142.32C201.32 142.56 200.07 142.8 199.53 141.92C199.506 141.86 199.503 141.793 199.523 141.732C199.542 141.67 199.583 141.617 199.637 141.581C199.691 141.546 199.756 141.531 199.82 141.538C199.885 141.545 199.945 141.574 199.99 141.62C200.36 142.19 201.42 141.98 202.45 141.77C203.66 141.53 204.91 141.29 205.45 142.17C205.99 143.05 205.28 144.09 204.57 145.1C203.86 146.11 203.34 146.84 203.7 147.41C204.06 147.98 205.13 147.77 206.16 147.56C207.37 147.32 208.62 147.07 209.16 147.95C209.7 148.83 208.99 149.87 208.28 150.88C207.57 151.89 207.04 152.62 207.41 153.19C207.78 153.76 208.84 153.55 209.87 153.34C211.08 153.1 212.33 152.85 212.87 153.73C213.41 154.61 212.7 155.65 211.99 156.66C211.38 157.52 210.75 158.4 211.12 158.97C211.158 159.031 211.172 159.105 211.157 159.176C211.142 159.247 211.1 159.309 211.04 159.35C210.996 159.381 210.944 159.399 210.89 159.4Z" fill="white"/>
<path opacity="0.8" d="M162.36 181.53C162.306 181.529 162.254 181.512 162.21 181.482C162.166 181.451 162.131 181.409 162.11 181.36C161.69 180.36 160.11 180.36 158.48 180.43C156.72 180.43 154.9 180.5 154.33 179.17C153.76 177.84 155.06 176.56 156.33 175.32C157.6 174.08 158.61 173.06 158.19 172.07C157.77 171.08 156.14 171.07 154.57 171.15C152.81 171.15 150.99 171.22 150.43 169.89C149.87 168.56 151.16 167.28 152.43 166.04C153.7 164.8 154.71 163.78 154.29 162.8C153.87 161.82 152.29 161.8 150.67 161.88C148.91 161.88 147.09 161.95 146.53 160.62C145.97 159.29 147.26 158.01 148.53 156.77C149.8 155.53 150.81 154.52 150.39 153.53C150.376 153.466 150.385 153.398 150.415 153.34C150.446 153.282 150.496 153.236 150.557 153.211C150.618 153.186 150.686 153.183 150.748 153.203C150.811 153.223 150.865 153.264 150.9 153.32C151.46 154.65 150.17 155.93 148.9 157.17C147.63 158.41 146.62 159.42 147.04 160.41C147.46 161.4 149.09 161.41 150.66 161.33C152.42 161.33 154.24 161.26 154.8 162.59C155.36 163.92 154.07 165.2 152.8 166.44C151.53 167.68 150.52 168.7 150.94 169.68C151.36 170.66 152.94 170.68 154.56 170.6C156.32 170.6 158.14 170.53 158.7 171.86C159.26 173.19 157.97 174.47 156.7 175.71C155.43 176.95 154.42 177.97 154.84 178.96C155.26 179.95 156.89 179.96 158.47 179.89C160.23 179.89 162.05 179.82 162.62 181.15C162.647 181.218 162.646 181.293 162.618 181.36C162.59 181.428 162.537 181.481 162.47 181.51L162.36 181.53Z" fill="white"/>
<path opacity="0.8" d="M195.11 278.46C195.074 278.456 195.038 278.445 195.006 278.428C194.974 278.41 194.946 278.386 194.923 278.357C194.901 278.328 194.885 278.294 194.875 278.259C194.866 278.223 194.864 278.186 194.87 278.15C195.05 276.6 196.96 276.09 198.81 275.6C200.48 275.15 202.21 274.69 202.35 273.52C202.49 272.35 200.92 271.52 199.35 270.66C197.67 269.75 195.93 268.8 196.12 267.25C196.31 265.7 198.21 265.19 200.06 264.7C201.73 264.25 203.46 263.79 203.6 262.61C203.74 261.43 202.17 260.61 200.6 259.75C198.92 258.84 197.18 257.89 197.37 256.34C197.56 254.79 199.46 254.28 201.31 253.78C202.98 253.33 204.71 252.87 204.85 251.69C204.99 250.51 203.42 249.69 201.85 248.83C200.17 247.92 198.43 246.97 198.62 245.42C198.63 245.347 198.668 245.282 198.726 245.237C198.784 245.192 198.857 245.171 198.93 245.18C198.967 245.184 199.002 245.195 199.034 245.212C199.066 245.23 199.094 245.254 199.117 245.283C199.139 245.312 199.155 245.346 199.165 245.381C199.174 245.417 199.176 245.454 199.17 245.49C199.03 246.67 200.6 247.49 202.17 248.35C203.85 249.26 205.59 250.21 205.4 251.76C205.21 253.31 203.3 253.82 201.46 254.32C199.79 254.77 198.06 255.23 197.92 256.41C197.78 257.59 199.35 258.41 200.92 259.27C202.6 260.18 204.34 261.13 204.15 262.68C203.96 264.23 202.06 264.74 200.21 265.23C198.54 265.68 196.81 266.14 196.67 267.32C196.53 268.5 198.1 269.32 199.67 270.18C201.35 271.09 203.09 272.04 202.9 273.59C202.71 275.14 200.81 275.65 198.96 276.14C197.29 276.59 195.56 277.05 195.42 278.22C195.41 278.293 195.372 278.358 195.314 278.403C195.256 278.448 195.183 278.469 195.11 278.46Z" fill="white"/>
<path opacity="0.8" d="M224.58 186.6C224.515 186.599 224.453 186.575 224.404 186.533C224.355 186.491 224.322 186.434 224.31 186.37C224.2 185.79 223.26 185.6 222.31 185.37C221.22 185.15 220.09 184.92 219.91 183.98C219.73 183.04 220.71 182.42 221.66 181.83C222.45 181.33 223.26 180.83 223.16 180.24C223.06 179.65 222.11 179.47 221.16 179.29C220.07 179.07 218.94 178.84 218.76 177.9C218.58 176.96 219.56 176.34 220.51 175.75C221.3 175.25 222.11 174.75 222.01 174.17C221.91 173.59 220.96 173.41 220.01 173.22C218.92 173 217.79 172.77 217.61 171.83C217.43 170.89 218.41 170.28 219.36 169.68C220.15 169.18 220.96 168.68 220.86 168.1C220.848 168.029 220.864 167.955 220.905 167.896C220.947 167.836 221.009 167.795 221.08 167.78C221.151 167.768 221.225 167.784 221.284 167.826C221.344 167.867 221.385 167.929 221.4 168C221.57 168.94 220.6 169.55 219.65 170.15C218.86 170.65 218.04 171.15 218.15 171.73C218.26 172.31 219.15 172.49 220.15 172.68C221.24 172.9 222.37 173.13 222.55 174.07C222.73 175.01 221.75 175.63 220.8 176.22C220.01 176.72 219.2 177.22 219.3 177.8C219.4 178.38 220.35 178.57 221.3 178.75C222.39 178.97 223.52 179.2 223.7 180.14C223.88 181.08 222.9 181.7 221.95 182.29C221.16 182.79 220.34 183.29 220.45 183.88C220.56 184.47 221.5 184.65 222.45 184.88C223.54 185.1 224.67 185.33 224.85 186.27C224.862 186.341 224.845 186.415 224.804 186.474C224.763 186.534 224.701 186.575 224.63 186.59L224.58 186.6Z" fill="white"/>
<path opacity="0.8" d="M110.94 280C110.89 279.999 110.842 279.985 110.8 279.959C110.757 279.933 110.723 279.896 110.699 279.852C110.676 279.808 110.665 279.759 110.667 279.71C110.668 279.66 110.683 279.612 110.71 279.57C111.13 278.93 112.03 279.12 112.83 279.28C113.63 279.44 114.17 279.55 114.38 279.23C114.59 278.91 114.19 278.34 113.81 277.79C113.43 277.24 112.81 276.37 113.23 275.73C113.65 275.09 114.55 275.28 115.35 275.44C116.15 275.6 116.69 275.71 116.9 275.39C117.11 275.07 116.71 274.5 116.33 273.95C115.95 273.4 115.33 272.53 115.75 271.89C116.17 271.25 117.07 271.44 117.87 271.6C118.67 271.76 119.21 271.87 119.42 271.55C119.63 271.23 119.24 270.66 118.85 270.1C118.46 269.54 117.85 268.68 118.27 268.04C118.285 268.002 118.309 267.967 118.339 267.939C118.37 267.911 118.406 267.89 118.446 267.877C118.485 267.865 118.527 267.861 118.568 267.867C118.609 267.872 118.648 267.887 118.683 267.91C118.718 267.932 118.747 267.962 118.768 267.998C118.79 268.033 118.804 268.072 118.808 268.114C118.813 268.155 118.808 268.197 118.795 268.236C118.781 268.275 118.759 268.31 118.73 268.34C118.52 268.67 118.91 269.23 119.3 269.78C119.69 270.33 120.3 271.21 119.88 271.84C119.46 272.47 118.56 272.29 117.76 272.13C116.96 271.97 116.42 271.86 116.21 272.18C116 272.5 116.4 273.07 116.78 273.62C117.16 274.17 117.78 275.04 117.36 275.68C116.94 276.32 116.04 276.13 115.24 275.97C114.44 275.81 113.9 275.7 113.69 276.02C113.48 276.34 113.88 276.91 114.26 277.46C114.64 278.01 115.26 278.88 114.84 279.52C114.42 280.16 113.52 279.97 112.72 279.81C111.92 279.65 111.38 279.54 111.17 279.86C111.147 279.901 111.113 279.935 111.073 279.959C111.033 279.984 110.987 279.998 110.94 280Z" fill="white"/>
<path opacity="0.8" d="M304.28 154.59C304.213 154.59 304.149 154.565 304.1 154.52C303.27 153.78 303.74 152.52 304.19 151.24C304.58 150.17 304.99 149.06 304.43 148.56C303.87 148.06 302.82 148.56 301.8 149.1C300.61 149.69 299.39 150.3 298.55 149.56C297.71 148.82 298.19 147.56 298.64 146.28C299.03 145.21 299.44 144.1 298.88 143.6C298.32 143.1 297.27 143.6 296.24 144.14C295.05 144.73 293.83 145.34 292.99 144.6C292.15 143.86 292.62 142.6 293.08 141.32C293.47 140.25 293.87 139.14 293.32 138.64C292.77 138.14 291.71 138.64 290.68 139.18C289.49 139.77 288.27 140.38 287.43 139.64C287.389 139.588 287.367 139.523 287.37 139.457C287.372 139.391 287.397 139.328 287.442 139.278C287.486 139.229 287.546 139.197 287.612 139.189C287.678 139.18 287.744 139.194 287.8 139.23C288.36 139.73 289.41 139.23 290.44 138.69C291.63 138.1 292.86 137.49 293.69 138.23C294.52 138.97 294.06 140.23 293.6 141.51C293.21 142.58 292.81 143.69 293.36 144.19C293.91 144.69 294.97 144.19 296 143.65C297.19 143.06 298.41 142.45 299.25 143.19C300.09 143.93 299.61 145.19 299.16 146.47C298.77 147.54 298.36 148.65 298.92 149.15C299.48 149.65 300.53 149.15 301.55 148.61C302.74 148.02 303.96 147.41 304.8 148.15C305.64 148.89 305.16 150.15 304.71 151.43C304.32 152.5 303.91 153.61 304.47 154.11C304.509 154.148 304.536 154.196 304.548 154.249C304.56 154.302 304.556 154.358 304.537 154.409C304.518 154.46 304.484 154.504 304.44 154.536C304.396 154.568 304.344 154.587 304.29 154.59H304.28Z" fill="white"/>
<path opacity="0.8" d="M114.27 216.51H114.22C113.38 216.35 113.22 215.35 112.99 214.38C112.84 213.59 112.68 212.78 112.2 212.69C111.72 212.6 111.28 213.3 110.85 213.98C110.32 214.81 109.77 215.67 108.93 215.51C108.09 215.35 107.93 214.35 107.7 213.38C107.55 212.59 107.39 211.78 106.91 211.69C106.43 211.6 105.99 212.3 105.56 212.98C105.03 213.81 104.48 214.67 103.64 214.51C102.8 214.35 102.64 213.35 102.41 212.38C102.26 211.59 102.09 210.78 101.61 210.69C101.13 210.6 100.69 211.3 100.25 211.98C99.72 212.81 99.17 213.67 98.33 213.51C98.2591 213.495 98.1965 213.454 98.1555 213.394C98.1145 213.335 98.0982 213.261 98.11 213.19C98.1246 213.119 98.166 213.057 98.2257 213.016C98.2853 212.975 98.3586 212.958 98.43 212.97C98.91 213.06 99.36 212.36 99.79 211.68C100.32 210.85 100.86 209.98 101.71 210.15C102.56 210.32 102.71 211.31 102.94 212.28C103.1 213.07 103.26 213.88 103.74 213.97C104.22 214.06 104.66 213.36 105.09 212.68C105.62 211.85 106.17 210.99 107.01 211.15C107.85 211.31 108.01 212.31 108.24 213.28C108.39 214.07 108.55 214.88 109.03 214.97C109.51 215.06 109.95 214.36 110.38 213.68C110.91 212.85 111.45 211.99 112.3 212.15C113.15 212.31 113.3 213.31 113.53 214.28C113.68 215.07 113.84 215.88 114.32 215.97C114.384 215.987 114.44 216.026 114.478 216.08C114.516 216.134 114.534 216.2 114.528 216.266C114.522 216.332 114.493 216.394 114.445 216.44C114.398 216.487 114.336 216.515 114.27 216.52V216.51Z" fill="white"/>
<path opacity="0.8" d="M120.57 253.77C120.52 253.769 120.472 253.755 120.43 253.729C120.387 253.703 120.353 253.666 120.329 253.622C120.306 253.578 120.295 253.529 120.297 253.48C120.298 253.43 120.313 253.382 120.34 253.34C120.9 252.5 120.02 251.22 119.17 249.99C118.17 248.61 117.23 247.18 117.99 245.99C118.75 244.8 120.46 245.19 122.1 245.53C123.57 245.84 125.1 246.15 125.64 245.31C126.18 244.47 125.32 243.2 124.47 241.96C123.47 240.58 122.52 239.15 123.29 237.96C124.06 236.77 125.75 237.16 127.4 237.51C128.87 237.82 130.4 238.13 130.94 237.29C131.48 236.45 130.62 235.18 129.77 233.95C128.77 232.57 127.82 231.14 128.59 229.95C129.36 228.76 131.05 229.15 132.7 229.5C134.16 229.81 135.7 230.12 136.24 229.28C136.285 229.234 136.345 229.205 136.41 229.198C136.474 229.191 136.539 229.206 136.593 229.241C136.647 229.277 136.688 229.33 136.707 229.392C136.727 229.453 136.724 229.52 136.7 229.58C135.94 230.73 134.24 230.38 132.59 230.03C131.12 229.72 129.59 229.41 129.05 230.25C128.51 231.09 129.37 232.36 130.22 233.59C131.22 234.97 132.17 236.4 131.4 237.59C130.63 238.78 128.93 238.39 127.29 238.04C125.82 237.73 124.29 237.42 123.75 238.26C123.21 239.1 124.07 240.37 124.92 241.6C125.92 242.98 126.87 244.41 126.1 245.6C125.33 246.79 123.63 246.4 121.99 246.06C120.52 245.75 118.99 245.44 118.45 246.28C117.91 247.12 118.77 248.4 119.62 249.63C120.62 251.01 121.56 252.44 120.8 253.63C120.777 253.671 120.743 253.705 120.703 253.73C120.663 253.754 120.617 253.768 120.57 253.77Z" fill="white"/>
<path opacity="0.8" d="M288.15 241.87C288.099 241.87 288.048 241.857 288.004 241.83C287.96 241.804 287.924 241.766 287.9 241.72C287.39 240.72 288.29 239.72 289.16 238.72C290.03 237.72 290.68 236.98 290.35 236.32C290.02 235.66 288.84 235.77 287.71 235.87C286.4 235.99 285.04 236.12 284.53 235.13C284.02 234.14 284.92 233.13 285.79 232.13C286.66 231.13 287.31 230.39 286.98 229.73C286.65 229.07 285.47 229.18 284.34 229.28C283.03 229.4 281.67 229.53 281.16 228.54C280.65 227.55 281.55 226.54 282.42 225.54C283.29 224.54 283.94 223.8 283.61 223.14C283.28 222.48 282.1 222.59 280.97 222.69C279.66 222.81 278.3 222.94 277.79 221.94C277.765 221.907 277.747 221.87 277.738 221.829C277.729 221.789 277.729 221.748 277.738 221.707C277.747 221.667 277.765 221.629 277.79 221.597C277.815 221.564 277.847 221.538 277.884 221.519C277.921 221.5 277.961 221.49 278.002 221.488C278.043 221.487 278.084 221.495 278.122 221.511C278.16 221.528 278.194 221.552 278.221 221.583C278.248 221.614 278.268 221.65 278.28 221.69C278.62 222.35 279.79 222.24 280.92 222.14C282.24 222.02 283.59 221.89 284.1 222.89C284.61 223.89 283.71 224.89 282.84 225.89C281.97 226.89 281.32 227.63 281.65 228.29C281.98 228.95 283.16 228.84 284.29 228.74C285.6 228.62 286.96 228.49 287.47 229.48C287.98 230.47 287.08 231.48 286.21 232.48C285.34 233.48 284.69 234.22 285.02 234.88C285.35 235.54 286.53 235.43 287.66 235.33C288.97 235.21 290.33 235.08 290.84 236.07C291.35 237.06 290.45 238.07 289.58 239.07C288.71 240.07 288.06 240.81 288.39 241.47C288.41 241.512 288.419 241.559 288.417 241.606C288.414 241.653 288.399 241.699 288.374 241.738C288.35 241.778 288.315 241.811 288.274 241.834C288.233 241.857 288.187 241.869 288.14 241.87H288.15Z" fill="white"/>
<path opacity="0.8" d="M113.09 230.3C112.66 230.25 112.54 229.8 112.44 229.43C112.44 229.29 112.32 229 112.26 228.96C112.2 228.92 112.05 229.24 111.98 229.37C111.8 229.7 111.58 230.12 111.15 230.06C110.72 230 110.6 229.56 110.5 229.19C110.5 229.05 110.38 228.76 110.32 228.72C110.26 228.68 110.1 229 110.04 229.13C109.86 229.46 109.64 229.88 109.21 229.82C108.78 229.76 108.66 229.32 108.56 228.95C108.56 228.81 108.44 228.52 108.38 228.48C108.32 228.44 108.16 228.76 108.09 228.89C107.91 229.22 107.68 229.64 107.26 229.58C107.223 229.576 107.188 229.565 107.156 229.548C107.124 229.53 107.096 229.506 107.073 229.477C107.051 229.448 107.035 229.414 107.025 229.379C107.016 229.343 107.014 229.306 107.02 229.27C107.024 229.233 107.035 229.198 107.052 229.166C107.07 229.134 107.094 229.106 107.123 229.083C107.152 229.061 107.186 229.045 107.221 229.035C107.257 229.026 107.294 229.024 107.33 229.03C107.4 229.03 107.55 228.75 107.62 228.62C107.8 228.29 108.02 227.87 108.46 227.93C108.9 227.99 109.01 228.43 109.11 228.8C109.11 228.94 109.23 229.23 109.29 229.27C109.35 229.31 109.51 228.99 109.57 228.86C109.75 228.53 109.98 228.11 110.4 228.17C110.82 228.23 110.95 228.67 111.05 229.04C111.05 229.18 111.17 229.47 111.23 229.51C111.29 229.55 111.44 229.23 111.51 229.1C111.69 228.77 111.91 228.35 112.34 228.41C112.77 228.47 112.89 228.91 112.99 229.28C112.99 229.42 113.11 229.71 113.17 229.75C113.234 229.762 113.292 229.796 113.333 229.847C113.375 229.897 113.397 229.96 113.397 230.025C113.397 230.09 113.375 230.153 113.333 230.203C113.292 230.254 113.234 230.288 113.17 230.3H113.09Z" fill="white"/>
<path opacity="0.8" d="M152.43 226C152.357 225.995 152.29 225.962 152.241 225.908C152.193 225.853 152.167 225.783 152.17 225.71C152.25 224.51 150.62 223.71 149.04 222.99C147.3 222.16 145.5 221.31 145.6 219.74C145.7 218.17 147.6 217.55 149.42 216.95C151.08 216.41 152.79 215.85 152.86 214.65C152.93 213.45 151.31 212.65 149.73 211.94C147.99 211.11 146.19 210.26 146.29 208.7C146.39 207.14 148.29 206.51 150.11 205.91C151.77 205.37 153.48 204.81 153.55 203.61C153.62 202.41 152 201.61 150.42 200.9C148.68 200.08 146.88 199.22 146.98 197.66C147.08 196.1 148.98 195.48 150.8 194.88C152.46 194.34 154.17 193.78 154.24 192.59C154.24 192.553 154.247 192.517 154.262 192.483C154.277 192.449 154.299 192.419 154.326 192.395C154.354 192.37 154.386 192.352 154.421 192.34C154.456 192.329 154.493 192.326 154.53 192.33C154.602 192.335 154.67 192.368 154.719 192.422C154.767 192.476 154.793 192.547 154.79 192.62C154.69 194.18 152.79 194.8 150.97 195.4C149.31 195.94 147.6 196.5 147.53 197.69C147.46 198.88 149.08 199.69 150.66 200.4C152.4 201.22 154.2 202.08 154.1 203.64C154 205.2 152.1 205.83 150.28 206.43C148.62 206.97 146.91 207.53 146.84 208.73C146.77 209.93 148.39 210.73 149.97 211.44C151.71 212.27 153.51 213.12 153.41 214.68C153.31 216.24 151.41 216.87 149.59 217.47C147.94 218.01 146.22 218.58 146.15 219.77C146.08 220.96 147.7 221.77 149.28 222.49C151.02 223.32 152.82 224.17 152.72 225.74C152.715 225.812 152.682 225.88 152.628 225.929C152.573 225.977 152.503 226.003 152.43 226Z" fill="white"/>
<path opacity="0.8" d="M247.28 204.92H247.18C247.111 204.893 247.056 204.84 247.026 204.773C246.996 204.706 246.994 204.629 247.02 204.56C247.31 203.8 248.28 203.78 249.21 203.77C249.96 203.77 250.73 203.77 250.89 203.33C251.05 202.89 250.48 202.39 249.89 201.88C249.3 201.37 248.5 200.59 248.79 199.83C249.08 199.07 250.05 199.05 250.98 199.04C251.73 199.04 252.5 199.04 252.66 198.6C252.82 198.16 252.25 197.66 251.66 197.15C251.07 196.64 250.27 195.86 250.56 195.1C250.85 194.34 251.82 194.32 252.75 194.31C253.5 194.31 254.27 194.31 254.43 193.87C254.59 193.43 254.02 192.93 253.43 192.42C252.84 191.91 252.04 191.13 252.33 190.37C252.365 190.316 252.418 190.277 252.479 190.257C252.54 190.238 252.606 190.24 252.666 190.263C252.726 190.287 252.776 190.33 252.807 190.386C252.839 190.442 252.85 190.507 252.84 190.57C252.68 190.99 253.25 191.51 253.84 192.02C254.43 192.53 255.23 193.31 254.94 194.07C254.65 194.83 253.68 194.85 252.75 194.86C252 194.86 251.23 194.86 251.07 195.3C250.91 195.74 251.48 196.24 252.07 196.75C252.66 197.26 253.46 198.04 253.17 198.8C252.88 199.56 251.91 199.58 250.98 199.59C250.23 199.59 249.46 199.59 249.3 200.03C249.14 200.47 249.71 200.97 250.3 201.48C250.89 201.99 251.69 202.77 251.4 203.48C251.11 204.19 250.14 204.26 249.21 204.27C248.46 204.27 247.69 204.27 247.53 204.71C247.516 204.767 247.484 204.818 247.439 204.855C247.394 204.893 247.338 204.916 247.28 204.92Z" fill="white"/>
<path opacity="0.8" d="M131.25 157.6C131.207 157.6 131.165 157.59 131.127 157.57C131.089 157.551 131.056 157.524 131.03 157.49L123.76 147.69L122.53 156C122.519 156.052 122.494 156.099 122.457 156.137C122.42 156.175 122.374 156.201 122.323 156.214C122.271 156.226 122.218 156.224 122.168 156.208C122.118 156.191 122.073 156.161 122.04 156.12L113.6 144.74C113.571 144.682 113.564 144.615 113.579 144.552C113.595 144.488 113.631 144.432 113.684 144.393C113.736 144.354 113.8 144.334 113.865 144.337C113.93 144.341 113.992 144.366 114.04 144.41L122.04 155.25L123.28 146.91C123.291 146.858 123.316 146.811 123.353 146.773C123.39 146.735 123.436 146.709 123.487 146.696C123.538 146.684 123.592 146.686 123.642 146.702C123.692 146.719 123.736 146.749 123.77 146.79L131.43 157.13C131.459 157.171 131.476 157.22 131.48 157.27C131.483 157.32 131.473 157.37 131.451 157.415C131.428 157.46 131.394 157.499 131.352 157.526C131.309 157.553 131.26 157.568 131.21 157.57L131.25 157.6Z" fill="white"/>
<path opacity="0.8" d="M281.5 169.68C281.45 169.678 281.401 169.663 281.358 169.636C281.316 169.609 281.282 169.57 281.259 169.525C281.237 169.48 281.227 169.43 281.23 169.38C281.234 169.33 281.251 169.281 281.28 169.24L285.81 163.24L280.75 163.94C280.696 163.948 280.64 163.94 280.59 163.917C280.541 163.894 280.499 163.857 280.47 163.81C280.439 163.764 280.423 163.71 280.423 163.655C280.423 163.6 280.439 163.546 280.47 163.5L285.9 156.33C285.948 156.286 286.01 156.261 286.075 156.258C286.14 156.254 286.204 156.274 286.256 156.313C286.308 156.352 286.345 156.408 286.361 156.472C286.376 156.535 286.369 156.602 286.34 156.66L281.34 163.3L286.4 162.6C286.454 162.592 286.51 162.6 286.56 162.623C286.609 162.646 286.651 162.683 286.68 162.73C286.711 162.776 286.727 162.83 286.727 162.885C286.727 162.94 286.711 162.994 286.68 163.04L281.75 169.56C281.723 169.601 281.686 169.633 281.642 169.655C281.598 169.676 281.549 169.685 281.5 169.68Z" fill="white"/>
<path opacity="0.8" d="M310.63 225.21C310.574 225.207 310.521 225.188 310.476 225.154C310.432 225.121 310.398 225.075 310.38 225.022C310.362 224.97 310.36 224.913 310.374 224.859C310.388 224.805 310.418 224.757 310.46 224.72L320.4 216.66L312.46 215.83C312.406 215.824 312.355 215.802 312.313 215.767C312.272 215.732 312.241 215.686 312.225 215.634C312.209 215.582 312.209 215.527 312.224 215.474C312.239 215.422 312.269 215.376 312.31 215.34L321.81 207.64C321.837 207.611 321.87 207.587 321.907 207.572C321.944 207.556 321.984 207.549 322.024 207.55C322.064 207.552 322.104 207.561 322.14 207.579C322.176 207.597 322.207 207.622 322.233 207.653C322.258 207.685 322.276 207.721 322.286 207.759C322.297 207.798 322.298 207.839 322.291 207.878C322.284 207.918 322.269 207.955 322.247 207.988C322.224 208.022 322.194 208.049 322.16 208.07L313.16 215.36L321.1 216.19C321.154 216.196 321.205 216.218 321.247 216.253C321.288 216.288 321.319 216.334 321.335 216.386C321.351 216.438 321.351 216.493 321.336 216.546C321.321 216.598 321.291 216.645 321.25 216.68L310.79 225.16C310.743 225.193 310.687 225.211 310.63 225.21Z" fill="white"/>
<path opacity="0.8" d="M320.78 171.31C320.707 171.31 320.638 171.282 320.585 171.232C320.533 171.181 320.503 171.112 320.5 171.04L320.29 163.53L317.14 166.87C317.103 166.911 317.055 166.939 317.001 166.952C316.947 166.964 316.891 166.96 316.84 166.94C316.789 166.92 316.745 166.886 316.713 166.842C316.681 166.798 316.662 166.745 316.66 166.69L316.45 159.26C316.45 159.187 316.478 159.118 316.528 159.065C316.579 159.013 316.647 158.983 316.72 158.98C316.792 158.982 316.86 159.011 316.912 159.061C316.964 159.111 316.995 159.178 317 159.25L317.19 166.01L320.34 162.67C320.378 162.631 320.426 162.604 320.479 162.592C320.533 162.58 320.588 162.584 320.639 162.603C320.69 162.622 320.734 162.656 320.766 162.7C320.798 162.743 320.817 162.796 320.82 162.85L321.05 171.03C321.05 171.103 321.022 171.172 320.972 171.225C320.921 171.277 320.853 171.307 320.78 171.31Z" fill="white"/>
<path opacity="0.8" d="M231 202.71L226.76 202.49C226.688 202.485 226.62 202.452 226.571 202.398C226.523 202.344 226.497 202.273 226.5 202.2C226.5 202.163 226.507 202.127 226.522 202.093C226.537 202.059 226.559 202.029 226.586 202.005C226.614 201.98 226.646 201.962 226.681 201.951C226.716 201.939 226.753 201.936 226.79 201.94L230.37 202.12L228.8 200.38C228.772 200.335 228.756 200.283 228.756 200.23C228.756 200.177 228.772 200.125 228.8 200.08C228.821 200.029 228.857 199.987 228.904 199.958C228.951 199.929 229.005 199.916 229.06 199.92L233.73 200.16C233.766 200.161 233.802 200.17 233.835 200.185C233.868 200.201 233.898 200.223 233.922 200.25C233.946 200.277 233.965 200.308 233.976 200.343C233.988 200.377 233.993 200.414 233.99 200.45C233.99 200.487 233.983 200.523 233.968 200.557C233.953 200.591 233.931 200.621 233.904 200.645C233.876 200.67 233.844 200.688 233.809 200.7C233.774 200.711 233.737 200.714 233.7 200.71L229.7 200.5L231.27 202.24C231.304 202.28 231.325 202.328 231.333 202.38C231.34 202.432 231.333 202.484 231.313 202.532C231.292 202.58 231.258 202.621 231.215 202.651C231.172 202.68 231.122 202.697 231.07 202.7L231 202.71Z" fill="white"/>
<path opacity="0.8" d="M116.57 169.53C116.502 169.528 116.438 169.502 116.388 169.456C116.339 169.41 116.307 169.347 116.3 169.28L116 166.5L114.86 167.86C114.825 167.901 114.778 167.931 114.726 167.946C114.673 167.961 114.618 167.961 114.566 167.945C114.514 167.929 114.468 167.898 114.433 167.856C114.398 167.815 114.376 167.764 114.37 167.71L114.04 163.92C114.034 163.847 114.057 163.775 114.104 163.719C114.151 163.663 114.217 163.628 114.29 163.62C114.363 163.614 114.435 163.637 114.491 163.684C114.547 163.731 114.582 163.797 114.59 163.87L114.87 167L116.01 165.64C116.044 165.598 116.089 165.566 116.141 165.55C116.193 165.534 116.248 165.534 116.3 165.55C116.352 165.567 116.397 165.599 116.431 165.642C116.464 165.684 116.485 165.736 116.49 165.79L116.79 169.24C116.796 169.313 116.773 169.385 116.726 169.441C116.679 169.497 116.613 169.532 116.54 169.54L116.57 169.53Z" fill="white"/>
<path opacity="0.8" d="M86.74 148.19C86.6807 148.185 86.6246 148.162 86.5796 148.123C86.5346 148.084 86.5032 148.032 86.4898 147.974C86.4765 147.916 86.4819 147.855 86.5053 147.801C86.5287 147.746 86.5689 147.7 86.62 147.67L96.9 142.55L89.38 140C89.331 139.978 89.2894 139.942 89.2603 139.897C89.2311 139.851 89.2156 139.799 89.2156 139.745C89.2156 139.691 89.2311 139.639 89.2603 139.593C89.2894 139.548 89.331 139.512 89.38 139.49L101.38 133.49C101.413 133.465 101.45 133.447 101.49 133.438C101.531 133.429 101.572 133.429 101.613 133.438C101.653 133.447 101.691 133.465 101.723 133.49C101.756 133.515 101.782 133.547 101.801 133.584C101.82 133.621 101.83 133.661 101.832 133.702C101.833 133.743 101.825 133.784 101.809 133.822C101.792 133.86 101.768 133.894 101.737 133.921C101.706 133.948 101.67 133.968 101.63 133.98L90.26 139.65L97.77 142.17C97.819 142.192 97.8605 142.228 97.8897 142.273C97.9188 142.319 97.9343 142.371 97.9343 142.425C97.9343 142.479 97.9188 142.531 97.8897 142.577C97.8605 142.622 97.819 142.658 97.77 142.68L86.9 148.1C86.8588 148.148 86.8022 148.18 86.74 148.19Z" fill="white"/>
<path opacity="0.8" d="M222.39 143.69C222.339 143.688 222.289 143.672 222.247 143.643C222.204 143.615 222.17 143.575 222.149 143.529C222.127 143.482 222.118 143.431 222.124 143.38C222.129 143.329 222.149 143.281 222.18 143.24L224.93 140L222.45 140.2C222.397 140.201 222.345 140.188 222.3 140.161C222.254 140.134 222.217 140.095 222.193 140.048C222.169 140 222.159 139.948 222.164 139.895C222.168 139.842 222.188 139.792 222.22 139.75L225.11 136.35C225.161 136.307 225.225 136.283 225.292 136.283C225.359 136.283 225.423 136.307 225.474 136.35C225.525 136.394 225.558 136.454 225.568 136.52C225.579 136.586 225.565 136.653 225.53 136.71L223.07 139.6L225.55 139.4C225.605 139.396 225.66 139.408 225.708 139.434C225.756 139.461 225.795 139.501 225.82 139.55C225.848 139.595 225.864 139.647 225.864 139.7C225.864 139.753 225.848 139.805 225.82 139.85L222.64 143.59C222.611 143.627 222.572 143.656 222.528 143.673C222.484 143.691 222.437 143.697 222.39 143.69Z" fill="white"/>
<path opacity="0.8" d="M151.27 247.08C151.211 247.078 151.154 247.058 151.108 247.022C151.061 246.986 151.027 246.936 151.01 246.88L149.85 242.88L148.52 245.29C148.494 245.338 148.455 245.377 148.407 245.402C148.358 245.427 148.304 245.436 148.25 245.43C148.196 245.422 148.146 245.4 148.105 245.364C148.065 245.329 148.035 245.282 148.02 245.23L146.54 240.11C146.522 240.073 146.512 240.033 146.511 239.992C146.511 239.951 146.519 239.91 146.535 239.873C146.552 239.835 146.577 239.802 146.608 239.775C146.639 239.748 146.676 239.728 146.715 239.717C146.754 239.706 146.796 239.703 146.836 239.71C146.877 239.717 146.916 239.732 146.949 239.755C146.983 239.779 147.012 239.809 147.032 239.844C147.053 239.88 147.066 239.919 147.07 239.96L148.37 244.44L149.7 242.03C149.727 241.983 149.768 241.945 149.817 241.92C149.866 241.896 149.921 241.886 149.975 241.893C150.029 241.899 150.08 241.921 150.122 241.956C150.164 241.991 150.194 242.038 150.21 242.09L151.55 246.74C151.569 246.81 151.559 246.885 151.524 246.948C151.488 247.012 151.43 247.059 151.36 247.08H151.27Z" fill="white"/>
<path opacity="0.8" d="M221.78 251.17C221.731 251.184 221.679 251.184 221.63 251.17L218 248.77C217.962 248.755 217.927 248.731 217.899 248.7C217.871 248.67 217.85 248.634 217.837 248.594C217.825 248.555 217.821 248.513 217.827 248.472C217.832 248.431 217.847 248.392 217.87 248.357C217.892 248.322 217.922 248.293 217.958 248.271C217.993 248.25 218.032 248.236 218.074 248.232C218.115 248.227 218.156 248.232 218.196 248.245C218.235 248.259 218.27 248.281 218.3 248.31L221.38 250.31L220.93 248.24C220.92 248.187 220.926 248.132 220.947 248.083C220.967 248.033 221.002 247.99 221.046 247.959C221.091 247.929 221.143 247.912 221.197 247.91C221.251 247.908 221.304 247.922 221.35 247.95L224.66 250.09C224.698 250.105 224.733 250.129 224.761 250.159C224.789 250.19 224.81 250.226 224.823 250.266C224.835 250.305 224.839 250.347 224.833 250.388C224.828 250.429 224.813 250.468 224.79 250.503C224.768 250.538 224.738 250.567 224.702 250.588C224.667 250.61 224.628 250.624 224.586 250.628C224.545 250.633 224.504 250.628 224.464 250.615C224.425 250.601 224.39 250.579 224.36 250.55L221.61 248.77L222.06 250.84C222.072 250.892 222.067 250.947 222.048 250.997C222.028 251.047 221.994 251.089 221.95 251.12C221.901 251.155 221.841 251.173 221.78 251.17Z" fill="white"/>
<path opacity="0.8" d="M225.58 231.69H225.5C225.43 231.669 225.372 231.622 225.336 231.558C225.301 231.495 225.291 231.42 225.31 231.35L227.31 224.35L223 226.74C222.952 226.765 222.898 226.776 222.843 226.77C222.789 226.765 222.738 226.744 222.696 226.71C222.653 226.676 222.622 226.631 222.605 226.579C222.588 226.528 222.586 226.472 222.6 226.42L225.05 218.03C225.054 217.989 225.067 217.95 225.088 217.914C225.108 217.879 225.137 217.849 225.171 217.825C225.204 217.802 225.243 217.787 225.284 217.78C225.324 217.773 225.366 217.776 225.405 217.787C225.445 217.798 225.481 217.818 225.512 217.845C225.543 217.872 225.568 217.905 225.585 217.942C225.601 217.98 225.61 218.021 225.609 218.062C225.608 218.103 225.598 218.143 225.58 218.18L223.32 225.93L227.66 223.55C227.708 223.525 227.763 223.514 227.817 223.52C227.871 223.525 227.922 223.546 227.964 223.58C228.007 223.614 228.038 223.659 228.055 223.711C228.072 223.762 228.074 223.817 228.06 223.87L225.83 231.49C225.814 231.545 225.781 231.593 225.736 231.629C225.692 231.665 225.637 231.686 225.58 231.69Z" fill="white"/>
<path opacity="0.8" d="M160 270C159.946 269.999 159.894 269.982 159.849 269.952C159.804 269.922 159.769 269.879 159.748 269.83C159.727 269.78 159.721 269.725 159.73 269.672C159.739 269.619 159.763 269.57 159.8 269.53L169.8 259.33L159.87 259.41C159.816 259.409 159.764 259.392 159.719 259.362C159.674 259.332 159.639 259.289 159.618 259.24C159.597 259.19 159.591 259.135 159.6 259.082C159.609 259.029 159.633 258.98 159.67 258.94L171.24 247.19C171.294 247.152 171.359 247.135 171.425 247.14C171.491 247.146 171.552 247.175 171.599 247.221C171.645 247.268 171.674 247.329 171.68 247.395C171.685 247.461 171.668 247.526 171.63 247.58L160.56 258.9L170.49 258.82C170.544 258.821 170.596 258.838 170.641 258.868C170.686 258.898 170.721 258.941 170.742 258.99C170.763 259.04 170.77 259.095 170.76 259.148C170.751 259.201 170.727 259.25 170.69 259.29L160.18 270C160.122 270.021 160.058 270.021 160 270Z" fill="white"/>
<path opacity="0.8" d="M237.67 181.27C237.606 181.258 237.548 181.224 237.507 181.173C237.465 181.123 237.443 181.06 237.443 180.995C237.443 180.93 237.465 180.867 237.507 180.817C237.548 180.766 237.606 180.732 237.67 180.72L240.1 180.56L238.95 179.56C238.912 179.523 238.885 179.477 238.872 179.425C238.859 179.374 238.861 179.32 238.878 179.269C238.895 179.219 238.926 179.175 238.967 179.141C239.008 179.108 239.057 179.086 239.11 179.08L242.52 178.86C242.556 178.857 242.593 178.862 242.627 178.874C242.662 178.885 242.693 178.904 242.72 178.928C242.747 178.952 242.769 178.982 242.785 179.015C242.8 179.048 242.809 179.084 242.81 179.12C242.813 179.193 242.787 179.264 242.739 179.318C242.69 179.372 242.623 179.405 242.55 179.41L239.81 179.59L240.96 180.59C240.998 180.627 241.025 180.673 241.038 180.725C241.051 180.776 241.049 180.83 241.032 180.881C241.015 180.931 240.984 180.975 240.943 181.009C240.902 181.042 240.853 181.064 240.8 181.07L237.71 181.27H237.67Z" fill="white"/>
<path opacity="0.8" d="M263.69 162C263.64 161.998 263.591 161.983 263.548 161.956C263.506 161.929 263.472 161.89 263.449 161.845C263.427 161.8 263.417 161.75 263.42 161.7C263.424 161.65 263.441 161.601 263.47 161.56L272.47 149.89L263.3 151.05C263.247 151.054 263.194 151.043 263.148 151.018C263.101 150.993 263.062 150.955 263.036 150.909C263.01 150.863 262.997 150.81 263 150.758C263.002 150.705 263.02 150.653 263.05 150.61L271.64 139.53C271.688 139.481 271.752 139.452 271.821 139.447C271.889 139.442 271.957 139.463 272.011 139.505C272.065 139.547 272.102 139.607 272.115 139.674C272.128 139.742 272.115 139.811 272.08 139.87L263.9 150.42L273.07 149.26C273.123 149.256 273.176 149.267 273.223 149.292C273.269 149.317 273.308 149.355 273.334 149.401C273.36 149.447 273.373 149.5 273.37 149.553C273.368 149.605 273.35 149.657 273.32 149.7L263.87 161.89C263.827 161.949 263.762 161.988 263.69 162Z" fill="white"/>
<path opacity="0.8" d="M337.4 168.46C337.341 168.458 337.284 168.438 337.238 168.402C337.191 168.366 337.157 168.316 337.14 168.26L335.14 161.86L333.01 165.86C332.988 165.909 332.952 165.951 332.907 165.98C332.861 166.009 332.809 166.024 332.755 166.024C332.701 166.024 332.649 166.009 332.603 165.98C332.558 165.951 332.522 165.909 332.5 165.86L330.14 158.12C330.123 158.084 330.113 158.044 330.113 158.004C330.112 157.963 330.12 157.923 330.137 157.886C330.153 157.85 330.177 157.817 330.207 157.79C330.238 157.763 330.273 157.743 330.312 157.732C330.35 157.72 330.391 157.717 330.431 157.722C330.471 157.728 330.509 157.742 330.543 157.764C330.577 157.785 330.606 157.814 330.628 157.848C330.65 157.882 330.664 157.92 330.67 157.96L332.84 165.07L334.97 161.07C334.998 161.024 335.037 160.987 335.085 160.962C335.133 160.937 335.186 160.926 335.24 160.93C335.294 160.935 335.346 160.956 335.388 160.989C335.431 161.023 335.463 161.069 335.48 161.12L337.63 168.12C337.649 168.189 337.641 168.263 337.608 168.326C337.574 168.389 337.518 168.437 337.45 168.46H337.4Z" fill="white"/>
<path opacity="0.8" d="M186.19 157C186.128 157 186.068 156.979 186.019 156.941C185.97 156.903 185.935 156.85 185.92 156.79L182.76 142.87L178 150.47C177.969 150.514 177.927 150.548 177.877 150.568C177.828 150.588 177.774 150.594 177.721 150.585C177.669 150.575 177.62 150.551 177.581 150.515C177.542 150.478 177.514 150.432 177.5 150.38L174.5 137.15C174.472 137.114 174.453 137.072 174.445 137.027C174.437 136.982 174.44 136.936 174.454 136.893C174.468 136.849 174.492 136.81 174.525 136.778C174.557 136.746 174.597 136.723 174.64 136.71C174.684 136.697 174.73 136.694 174.775 136.703C174.819 136.712 174.861 136.731 174.897 136.76C174.932 136.789 174.96 136.825 174.978 136.867C174.996 136.909 175.004 136.955 175 137L177.86 149.58L182.62 142.02C182.651 141.976 182.693 141.942 182.743 141.922C182.792 141.902 182.846 141.896 182.899 141.905C182.951 141.915 183 141.939 183.039 141.975C183.078 142.012 183.106 142.058 183.12 142.11L186.43 156.68C186.439 156.715 186.44 156.752 186.434 156.788C186.429 156.825 186.415 156.859 186.396 156.89C186.376 156.921 186.35 156.947 186.32 156.968C186.29 156.989 186.256 157.003 186.22 157.01L186.19 157Z" fill="white"/>
<path opacity="0.8" d="M177 177.24C176.927 177.232 176.861 177.197 176.814 177.141C176.767 177.085 176.744 177.013 176.75 176.94L177.08 172.66L175.16 174.3C175.118 174.332 175.068 174.352 175.015 174.356C174.962 174.361 174.91 174.351 174.862 174.327C174.815 174.303 174.776 174.266 174.749 174.221C174.722 174.175 174.709 174.123 174.71 174.07L175.06 169.57C175.068 169.498 175.103 169.431 175.159 169.384C175.215 169.337 175.287 169.314 175.36 169.32C175.433 169.328 175.499 169.363 175.546 169.419C175.593 169.475 175.616 169.547 175.61 169.62L175.31 173.45L177.23 171.81C177.272 171.778 177.322 171.758 177.375 171.754C177.428 171.749 177.48 171.759 177.528 171.783C177.575 171.807 177.614 171.844 177.641 171.89C177.668 171.935 177.681 171.987 177.68 172.04L177.29 176.99C177.282 177.061 177.248 177.126 177.194 177.172C177.141 177.219 177.071 177.243 177 177.24Z" fill="white"/>
<path opacity="0.8" d="M239 138.67C238.951 138.67 238.903 138.656 238.861 138.632C238.819 138.607 238.784 138.571 238.759 138.529C238.735 138.486 238.722 138.438 238.722 138.389C238.723 138.34 238.736 138.292 238.76 138.25L242.58 131.93L238.25 133C238.198 133.01 238.143 133.006 238.094 132.986C238.044 132.967 238.001 132.934 237.969 132.891C237.938 132.848 237.919 132.796 237.916 132.743C237.912 132.69 237.924 132.637 237.95 132.59L241.73 126.33C241.745 126.292 241.769 126.258 241.798 126.231C241.828 126.203 241.864 126.182 241.902 126.169C241.941 126.157 241.982 126.153 242.022 126.157C242.063 126.162 242.102 126.176 242.136 126.197C242.171 126.219 242.201 126.247 242.223 126.281C242.245 126.315 242.26 126.354 242.266 126.394C242.272 126.434 242.269 126.475 242.258 126.514C242.247 126.553 242.227 126.589 242.2 126.62L238.76 132.31L243.14 131.23C243.192 131.219 243.247 131.224 243.296 131.244C243.346 131.263 243.389 131.296 243.421 131.339C243.452 131.382 243.471 131.434 243.474 131.487C243.478 131.54 243.466 131.593 243.44 131.64L239.28 138.53C239.253 138.579 239.211 138.618 239.161 138.643C239.111 138.668 239.055 138.677 239 138.67Z" fill="white"/>
<path opacity="0.8" d="M157.88 136.49C157.818 136.49 157.758 136.469 157.71 136.43L155.17 134.43C155.129 134.381 155.106 134.319 155.105 134.254C155.104 134.19 155.125 134.127 155.165 134.077C155.205 134.026 155.261 133.991 155.324 133.977C155.387 133.963 155.452 133.971 155.51 134L157.51 135.59L157.34 134.18C157.336 134.127 157.347 134.074 157.372 134.028C157.397 133.981 157.435 133.942 157.481 133.916C157.527 133.89 157.58 133.877 157.633 133.88C157.685 133.882 157.737 133.9 157.78 133.93L160.09 135.75C160.127 135.769 160.16 135.795 160.185 135.828C160.211 135.861 160.229 135.899 160.238 135.94C160.247 135.98 160.247 136.022 160.238 136.063C160.229 136.104 160.21 136.142 160.185 136.174C160.159 136.207 160.126 136.233 160.089 136.252C160.051 136.27 160.01 136.28 159.969 136.28C159.927 136.281 159.886 136.272 159.848 136.255C159.81 136.238 159.777 136.212 159.75 136.18L158 134.77L158.17 136.18C158.176 136.234 158.167 136.288 158.142 136.337C158.117 136.385 158.078 136.424 158.03 136.45C157.985 136.477 157.933 136.491 157.88 136.49Z" fill="white"/>
<path opacity="0.8" d="M263.12 257C263.084 256.999 263.048 256.99 263.015 256.975C262.982 256.959 262.952 256.937 262.928 256.91C262.904 256.883 262.885 256.852 262.874 256.817C262.862 256.783 262.857 256.746 262.86 256.71L263.44 243.95L256.91 249.95C256.869 249.985 256.819 250.007 256.765 250.013C256.712 250.02 256.658 250.011 256.609 249.988C256.561 249.965 256.52 249.928 256.492 249.882C256.463 249.837 256.449 249.784 256.45 249.73L257.13 234.96C257.131 234.924 257.14 234.888 257.155 234.855C257.171 234.822 257.193 234.792 257.22 234.768C257.247 234.744 257.278 234.725 257.313 234.714C257.347 234.702 257.384 234.697 257.42 234.7C257.456 234.701 257.492 234.71 257.525 234.725C257.558 234.741 257.587 234.763 257.612 234.79C257.636 234.817 257.655 234.848 257.666 234.883C257.678 234.917 257.683 234.954 257.68 234.99L257 249L263.53 243C263.575 242.972 263.627 242.956 263.68 242.956C263.733 242.956 263.785 242.972 263.83 243C263.879 243.023 263.92 243.06 263.949 243.106C263.977 243.152 263.991 243.206 263.99 243.26L263.38 256.68C263.386 256.718 263.383 256.757 263.373 256.795C263.363 256.832 263.345 256.867 263.32 256.897C263.296 256.927 263.265 256.952 263.231 256.97C263.196 256.987 263.159 256.998 263.12 257Z" fill="white"/>
<path opacity="0.8" d="M275 261.13C274.936 261.118 274.878 261.084 274.837 261.033C274.795 260.983 274.773 260.92 274.773 260.855C274.773 260.79 274.795 260.727 274.837 260.677C274.878 260.626 274.936 260.592 275 260.58L291.37 258.51L283.18 252.16C283.139 252.126 283.109 252.081 283.093 252.03C283.077 251.979 283.076 251.925 283.089 251.874C283.103 251.822 283.131 251.776 283.17 251.74C283.209 251.704 283.258 251.679 283.31 251.67L298.79 249.67C298.863 249.661 298.936 249.682 298.994 249.727C299.052 249.772 299.09 249.837 299.1 249.91C299.109 249.983 299.088 250.056 299.043 250.114C298.998 250.172 298.933 250.21 298.86 250.22L284.04 252.09L292.23 258.44C292.271 258.474 292.301 258.519 292.317 258.57C292.333 258.621 292.334 258.675 292.321 258.726C292.307 258.778 292.279 258.824 292.24 258.86C292.201 258.896 292.152 258.92 292.1 258.93L275.1 261.08L275 261.13Z" fill="white"/>
<path opacity="0.8" d="M321.56 243.07H321.44L307.51 236.67C307.457 236.632 307.418 236.577 307.401 236.514C307.385 236.451 307.39 236.384 307.418 236.325C307.445 236.265 307.492 236.217 307.551 236.189C307.61 236.161 307.677 236.154 307.74 236.17L321.07 242.29L317.54 232.75C317.523 232.699 317.52 232.645 317.533 232.592C317.546 232.54 317.574 232.493 317.613 232.456C317.652 232.419 317.7 232.394 317.753 232.385C317.806 232.375 317.86 232.38 317.91 232.4L333.25 239.4C333.303 239.438 333.342 239.493 333.358 239.556C333.375 239.619 333.37 239.686 333.342 239.745C333.315 239.805 333.268 239.853 333.209 239.881C333.15 239.909 333.083 239.916 333.02 239.9L318.29 233.13L321.82 242.67C321.834 242.712 321.838 242.756 321.832 242.8C321.826 242.844 321.809 242.885 321.784 242.921C321.759 242.957 321.725 242.987 321.686 243.007C321.647 243.028 321.604 243.039 321.56 243.04V243.07Z" fill="white"/>
<path opacity="0.8" d="M269.27 280.15C269.232 280.15 269.195 280.142 269.16 280.126C269.126 280.111 269.095 280.088 269.07 280.06L260 270.32L259.72 278.65C259.717 278.704 259.698 278.757 259.666 278.8C259.634 278.844 259.59 278.878 259.539 278.897C259.488 278.916 259.432 278.92 259.379 278.908C259.326 278.896 259.278 278.869 259.24 278.83L250.55 269.54C250.517 269.516 250.49 269.484 250.471 269.449C250.451 269.413 250.44 269.373 250.437 269.332C250.435 269.291 250.441 269.251 250.456 269.213C250.471 269.175 250.495 269.14 250.524 269.112C250.554 269.084 250.589 269.063 250.628 269.05C250.667 269.037 250.708 269.032 250.748 269.037C250.789 269.042 250.828 269.055 250.863 269.076C250.898 269.097 250.927 269.126 250.95 269.16L259.19 277.97L259.47 269.64C259.473 269.586 259.492 269.534 259.524 269.49C259.556 269.446 259.6 269.412 259.651 269.393C259.702 269.374 259.757 269.37 259.811 269.382C259.864 269.394 259.912 269.421 259.95 269.46L269.52 279.69C269.554 279.73 269.575 279.778 269.583 279.83C269.59 279.882 269.583 279.934 269.563 279.982C269.542 280.03 269.508 280.071 269.465 280.101C269.422 280.13 269.372 280.147 269.32 280.15H269.27Z" fill="white"/>
<path opacity="0.8" d="M317.29 199.63C317.253 199.629 317.217 199.62 317.184 199.605C317.15 199.59 317.12 199.568 317.095 199.541C317.07 199.514 317.05 199.482 317.037 199.448C317.025 199.413 317.019 199.377 317.02 199.34L317.53 186.49L310.99 192.49C310.949 192.524 310.9 192.546 310.848 192.553C310.795 192.56 310.742 192.552 310.694 192.53C310.646 192.508 310.605 192.473 310.576 192.429C310.547 192.384 310.531 192.333 310.53 192.28L311.12 177.4C311.125 177.327 311.158 177.26 311.212 177.211C311.266 177.163 311.337 177.137 311.41 177.14C311.483 177.145 311.55 177.178 311.599 177.232C311.647 177.286 311.673 177.357 311.67 177.43L311.1 191.64L317.64 185.64C317.681 185.606 317.73 185.584 317.782 185.577C317.835 185.57 317.888 185.578 317.936 185.6C317.984 185.622 318.025 185.657 318.054 185.701C318.083 185.745 318.099 185.797 318.1 185.85L317.56 199.37C317.555 199.439 317.525 199.504 317.475 199.552C317.425 199.6 317.359 199.628 317.29 199.63Z" fill="white"/>
<path opacity="0.8" d="M325.73 146.59H325.66L319.66 145.08C319.62 145.076 319.582 145.063 319.548 145.043C319.514 145.023 319.484 144.995 319.461 144.963C319.438 144.93 319.423 144.893 319.415 144.854C319.408 144.815 319.409 144.775 319.418 144.736C319.427 144.697 319.445 144.661 319.469 144.63C319.494 144.598 319.524 144.572 319.56 144.554C319.595 144.535 319.634 144.525 319.673 144.522C319.713 144.52 319.753 144.526 319.79 144.54L325.14 145.89L323.46 143C323.429 142.954 323.413 142.9 323.413 142.845C323.413 142.79 323.429 142.736 323.46 142.69C323.493 142.647 323.539 142.614 323.59 142.597C323.642 142.579 323.697 142.577 323.75 142.59L329.2 144C329.24 144.004 329.278 144.017 329.312 144.037C329.346 144.057 329.376 144.085 329.399 144.117C329.422 144.15 329.437 144.187 329.445 144.226C329.452 144.265 329.451 144.305 329.442 144.344C329.433 144.383 329.415 144.419 329.391 144.45C329.366 144.482 329.335 144.507 329.3 144.526C329.265 144.545 329.226 144.555 329.187 144.558C329.147 144.56 329.107 144.554 329.07 144.54L324.27 143.33L325.96 146.17C325.984 146.212 325.997 146.26 325.998 146.309C325.998 146.358 325.985 146.406 325.961 146.449C325.936 146.491 325.901 146.527 325.859 146.552C325.817 146.576 325.769 146.59 325.72 146.59H325.73Z" fill="white"/>
</g>
</g>
<path d="M364.58 166.41L383.32 154.63L370 133.52L358.22 114.78L339.49 126.56L235.6 191.91C226.966 184.681 215.985 180.861 204.728 181.171C193.472 181.482 182.718 185.9 174.495 193.594C166.272 201.288 161.149 211.725 160.092 222.936C159.035 234.147 162.118 245.357 168.757 254.452C175.397 263.547 185.136 269.898 196.136 272.307C207.136 274.715 218.638 273.015 228.471 267.527C238.304 262.039 245.789 253.143 249.513 242.516C253.238 231.889 252.945 220.266 248.69 209.84L330.55 158.37L341.12 175.16L351.86 168.41L341.3 151.6L351.3 145.3L364.58 166.41ZM205.89 256.52C200.112 256.52 194.465 254.807 189.661 251.597C184.857 248.386 181.113 243.824 178.903 238.486C176.692 233.148 176.114 227.274 177.242 221.608C178.37 215.941 181.153 210.737 185.239 206.652C189.325 202.567 194.531 199.786 200.198 198.66C205.864 197.534 211.738 198.114 217.075 200.326C222.412 202.539 226.974 206.284 230.182 211.089C233.391 215.894 235.102 221.542 235.1 227.32C235.097 235.065 232.019 242.492 226.541 247.968C221.063 253.444 213.635 256.52 205.89 256.52Z" fill="white"/>
<path d="M153.62 243.1L177.94 235.77C178.734 235.53 179.586 235.57 180.355 235.883C181.123 236.196 181.76 236.763 182.16 237.49C182.456 238.022 182.611 238.621 182.61 239.23C182.612 239.795 182.48 240.353 182.227 240.859C181.973 241.364 181.604 241.803 181.15 242.14L174.47 247.09L186.16 245.49C187.412 245.262 188.696 245.293 189.936 245.579C191.175 245.866 192.343 246.403 193.368 247.157C194.392 247.91 195.252 248.866 195.894 249.964C196.536 251.062 196.947 252.28 197.102 253.542C197.257 254.805 197.152 256.086 196.795 257.307C196.437 258.527 195.833 259.662 195.021 260.641C194.209 261.62 193.206 262.423 192.072 263.001C190.939 263.579 189.699 263.918 188.43 264C179.29 265 164.23 265.62 154.03 262.67" stroke="#212832" stroke-miterlimit="10"/>
<path d="M361.9 53.8499V43.9999C361.9 39.7099 358.09 36.1899 353.43 36.1899C348.77 36.1899 345 39.6899 345 43.9999V53.8699" stroke="white" stroke-miterlimit="10"/>
<path d="M361.9 53.8301C358.869 51.9521 355.301 51.1333 351.754 51.5022C348.208 51.871 344.885 53.4066 342.305 55.868C339.726 58.3295 338.036 61.5775 337.502 65.1026C336.967 68.6278 337.618 72.2306 339.352 75.346C341.086 78.4613 343.806 80.913 347.083 82.3163C350.361 83.7196 354.012 83.9952 357.463 83.1C360.914 82.2047 363.97 80.1891 366.153 77.3694C368.335 74.5497 369.519 71.0855 369.52 67.52C369.53 64.7763 368.835 62.076 367.5 59.6785C366.166 57.2811 364.237 55.2671 361.9 53.8301V53.8301ZM356 69.21C356 69.8837 355.732 70.5298 355.256 71.0061C354.78 71.4824 354.134 71.75 353.46 71.75C352.786 71.75 352.14 71.4824 351.664 71.0061C351.188 70.5298 350.92 69.8837 350.92 69.21V64.13C350.92 63.4564 351.188 62.8103 351.664 62.334C352.14 61.8577 352.786 61.59 353.46 61.59C354.134 61.59 354.78 61.8577 355.256 62.334C355.732 62.8103 356 63.4564 356 64.13V69.21Z" stroke="white" stroke-miterlimit="10"/>
<path d="M356 64.13V69.21C356 69.8836 355.732 70.5297 355.256 71.006C354.78 71.4824 354.134 71.75 353.46 71.75C352.786 71.75 352.14 71.4824 351.664 71.006C351.188 70.5297 350.92 69.8836 350.92 69.21V64.13C350.92 63.4563 351.188 62.8103 351.664 62.3339C352.14 61.8576 352.786 61.59 353.46 61.59C354.134 61.59 354.78 61.8576 355.256 62.3339C355.732 62.8103 356 63.4563 356 64.13Z" stroke="white" stroke-miterlimit="10"/>
<path d="M320.23 18.17V8.31C320.23 4 316.42 0.5 311.76 0.5C307.1 0.5 303.29 4 303.29 8.31V18.18" stroke="white" stroke-miterlimit="10"/>
<path d="M327.86 31.84C327.862 34.6459 327.131 37.4037 325.739 39.8399C324.347 42.2761 322.342 44.3061 319.923 45.7289C317.505 47.1516 314.757 47.9175 311.951 47.9508C309.145 47.9841 306.38 47.2835 303.928 45.9186C301.477 44.5536 299.424 42.5717 297.975 40.1692C296.525 37.7667 295.729 35.0271 295.664 32.2219C295.6 29.4167 296.27 26.6434 297.607 24.1769C298.945 21.7103 300.904 19.6362 303.29 18.16C305.835 16.5858 308.768 15.752 311.76 15.752C314.752 15.752 317.685 16.5858 320.23 18.16C322.563 19.6007 324.488 21.6138 325.823 24.0081C327.159 26.4025 327.86 29.0985 327.86 31.84V31.84Z" stroke="white" stroke-miterlimit="10"/>
<path d="M314.3 28.45V33.53C314.3 33.8636 314.234 34.1939 314.107 34.502C313.979 34.8102 313.792 35.0902 313.556 35.3261C313.32 35.5619 313.04 35.749 312.732 35.8767C312.424 36.0043 312.094 36.07 311.76 36.07C311.426 36.07 311.096 36.0043 310.788 35.8767C310.48 35.749 310.2 35.5619 309.964 35.3261C309.728 35.0902 309.541 34.8102 309.413 34.502C309.286 34.1939 309.22 33.8636 309.22 33.53V28.45C309.22 27.7764 309.488 27.1303 309.964 26.654C310.44 26.1776 311.086 25.91 311.76 25.91C312.434 25.91 313.08 26.1776 313.556 26.654C314.032 27.1303 314.3 27.7764 314.3 28.45Z" fill="#28696D"/>
<path d="M29.07 198.26C45.1249 198.26 58.14 185.245 58.14 169.19C58.14 153.135 45.1249 140.12 29.07 140.12C13.0151 140.12 0 153.135 0 169.19C0 185.245 13.0151 198.26 29.07 198.26Z" fill="#F94E1E"/>
<path d="M45.46 157.58C52.2586 157.58 57.77 152.069 57.77 145.27C57.77 138.471 52.2586 132.96 45.46 132.96C38.6614 132.96 33.15 138.471 33.15 145.27C33.15 152.069 38.6614 157.58 45.46 157.58Z" stroke="white" stroke-miterlimit="10"/>
<path d="M128.07 516.39L75.15 464.16" stroke="white" stroke-miterlimit="10"/>
<path d="M108.65 528.41L73.09 497.14" stroke="white" stroke-miterlimit="10"/>
<path d="M429.86 342.41C440.088 342.41 448.38 334.118 448.38 323.89C448.38 313.662 440.088 305.37 429.86 305.37C419.632 305.37 411.34 313.662 411.34 323.89C411.34 334.118 419.632 342.41 429.86 342.41Z" fill="#222437"/>
<path d="M432.66 337.42C442.888 337.42 451.18 329.128 451.18 318.9C451.18 308.672 442.888 300.38 432.66 300.38C422.432 300.38 414.14 308.672 414.14 318.9C414.14 329.128 422.432 337.42 432.66 337.42Z" stroke="black" stroke-width="0.75" stroke-miterlimit="10"/>
</g>
<defs>
<clipPath id="clip0">
<rect width="451.55" height="564.56" fill="white"/>
</clipPath>
</defs>
</svg>
