<svg width="473" height="578" viewBox="0 0 473 578" fill="none" xmlns="http://www.w3.org/2000/svg">
<g clip-path="url(#clip0)">
<path d="M397.78 121.35V120.59C401.066 120.59 404.218 119.285 406.541 116.961C408.865 114.637 410.17 111.486 410.17 108.2H410.93C410.93 111.486 412.235 114.637 414.559 116.961C416.883 119.285 420.034 120.59 423.32 120.59V121.35C420.034 121.35 416.883 122.655 414.559 124.979C412.235 127.302 410.93 130.454 410.93 133.74H410.17C410.17 130.454 408.865 127.302 406.541 124.979C404.218 122.655 401.066 121.35 397.78 121.35V121.35Z" stroke="white" stroke-miterlimit="10"/>
<path d="M46.17 251V250.24C49.456 250.24 52.6075 248.935 54.931 246.611C57.2546 244.288 58.56 241.136 58.56 237.85H59.32C59.3306 241.129 60.6406 244.27 62.963 246.585C65.2855 248.9 68.4309 250.2 71.71 250.2V251C68.424 251 65.2725 252.305 62.9489 254.629C60.6254 256.953 59.32 260.104 59.32 263.39H58.56C58.56 260.104 57.2546 256.953 54.931 254.629C52.6075 252.305 49.456 251 46.17 251V251Z" stroke="white" stroke-miterlimit="10"/>
<path d="M248.11 577.51C337.542 577.51 410.04 571.358 410.04 563.77C410.04 556.182 337.542 550.03 248.11 550.03C158.679 550.03 86.1801 556.182 86.1801 563.77C86.1801 571.358 158.679 577.51 248.11 577.51Z" fill="#383F45"/>
<path d="M342 564.53L412.4 531.28" stroke="white" stroke-miterlimit="10"/>
<path d="M393.07 555.68L432.68 539.36" stroke="white" stroke-miterlimit="10"/>
<path d="M215.33 472.88L232.94 515.6L195.78 533.56L167.96 472.48L215.33 472.88Z" stroke="#212832" stroke-miterlimit="10"/>
<path d="M225.39 491.11C225.39 491.11 208.64 519.36 186.11 511.48C186.11 511.48 158.98 530.95 166.9 550.74L234.9 516.11C239.2 514.1 229.17 496.81 225.39 491.11Z" fill="#FF8500"/>
<path d="M175.84 517.5C175.84 517.5 180.46 516.59 183.6 522.35" stroke="white" stroke-miterlimit="10"/>
<path d="M172.65 520.6C172.65 520.6 177.27 519.69 180.41 525.45" stroke="white" stroke-miterlimit="10"/>
<path d="M169.43 523.9C169.43 523.9 174.05 522.99 177.19 528.75" stroke="white" stroke-miterlimit="10"/>
<path d="M339.7 456.67L379.59 479.99L360.91 516.79L301.77 485.06L339.7 456.67Z" stroke="#212832" stroke-miterlimit="10"/>
<path d="M358.75 465.08C358.75 465.08 362.54 497.7 339.84 505.08C339.84 505.08 330.05 537.01 348.34 547.95L381.48 479.18C383.66 475 365.21 467.32 358.75 465.08Z" fill="#FF8500"/>
<path d="M335.32 516.09C335.32 516.09 338.45 512.57 344.44 515.25" stroke="white" stroke-miterlimit="10"/>
<path d="M334.66 520.49C334.66 520.49 337.79 516.97 343.78 519.65" stroke="white" stroke-miterlimit="10"/>
<path d="M334.1 525.07C334.1 525.07 337.23 521.55 343.22 524.23" stroke="white" stroke-miterlimit="10"/>
<path d="M258 157.62C257.049 159.051 256.254 160.579 255.63 162.18C253.536 167.596 253.518 173.595 255.578 179.023C257.639 184.452 261.634 188.927 266.794 191.589C271.954 194.251 277.917 194.912 283.535 193.445C289.153 191.977 294.03 188.485 297.23 183.64C298.133 182.25 298.894 180.773 299.5 179.23C300.623 176.35 301.166 173.276 301.1 170.186C301.033 167.095 300.358 164.048 299.112 161.219C297.867 158.389 296.075 155.834 293.841 153.697C291.606 151.561 288.972 149.887 286.09 148.77L285.9 148.71C280.927 146.819 275.461 146.671 270.393 148.29C265.325 149.908 260.956 153.197 258 157.62Z" fill="white"/>
<path d="M258 157.62C261.9 163.35 269.5 168.15 278.84 170.07C279.5 170.2 280.15 170.33 280.84 170.43C283.362 170.832 285.917 170.99 288.47 170.9C291.628 170.813 294.757 170.271 297.76 169.29C298.868 168.935 299.951 168.504 301 168C300.505 163.753 298.86 159.722 296.243 156.34C293.627 152.959 290.137 150.355 286.15 148.81L285.96 148.75C280.984 146.84 275.507 146.678 270.427 148.29C265.347 149.901 260.965 153.191 258 157.62Z" fill="#383F45"/>
<path d="M285.94 148.71C284.922 153.479 284.95 158.412 286.02 163.17C286.42 165.061 286.951 166.922 287.61 168.74C287.883 169.487 288.173 170.207 288.48 170.9C289.616 173.619 291.058 176.199 292.78 178.59C294.095 180.429 295.6 182.125 297.27 183.65C298.173 182.26 298.934 180.783 299.54 179.24C300.663 176.36 301.206 173.286 301.14 170.196C301.073 167.105 300.398 164.058 299.152 161.229C297.907 158.399 296.115 155.844 293.881 153.708C291.646 151.571 289.012 149.897 286.13 148.78L285.94 148.71Z" fill="#383F45"/>
<path d="M301.16 141.54C299.441 144.217 298.703 147.408 299.073 150.569C299.443 153.73 300.898 156.664 303.19 158.872C305.481 161.08 308.468 162.424 311.64 162.676C314.812 162.929 317.973 162.073 320.585 160.255C323.197 158.437 325.097 155.77 325.962 152.707C326.827 149.645 326.603 146.378 325.328 143.462C324.054 140.546 321.807 138.163 318.972 136.718C316.137 135.274 312.888 134.857 309.78 135.54C308.019 135.924 306.352 136.652 304.873 137.682C303.394 138.711 302.132 140.022 301.16 141.54Z" fill="#383F45"/>
<path d="M343.79 139.39C343.265 137.032 341.939 134.93 340.037 133.44C338.136 131.951 335.777 131.167 333.362 131.222C330.947 131.277 328.626 132.167 326.795 133.742C324.963 135.316 323.734 137.477 323.316 139.856C322.899 142.235 323.32 144.685 324.507 146.789C325.694 148.892 327.573 150.52 329.825 151.393C332.077 152.266 334.562 152.331 336.857 151.578C339.152 150.824 341.114 149.298 342.41 147.26C343.147 146.104 343.648 144.813 343.885 143.463C344.122 142.112 344.09 140.728 343.79 139.39Z" fill="#383F45"/>
<path d="M342.11 137.14C342.469 138.748 343.374 140.181 344.671 141.196C345.968 142.211 347.577 142.745 349.224 142.707C350.871 142.669 352.453 142.061 353.702 140.987C354.951 139.913 355.788 138.439 356.072 136.817C356.356 135.194 356.069 133.524 355.259 132.089C354.45 130.655 353.168 129.546 351.632 128.95C350.096 128.355 348.401 128.311 346.837 128.825C345.272 129.339 343.934 130.38 343.05 131.77C342.547 132.559 342.205 133.44 342.044 134.361C341.883 135.283 341.905 136.227 342.11 137.14Z" fill="#383F45"/>
<path d="M294.565 175.039C296.215 170.798 293.959 165.962 289.527 164.239C285.095 162.515 280.166 164.556 278.516 168.798C276.867 173.039 279.123 177.875 283.554 179.598C287.986 181.322 292.916 179.28 294.565 175.039Z" fill="white"/>
<path d="M276.32 182.859C278.134 180.007 277.292 176.225 274.44 174.411C271.589 172.597 267.806 173.438 265.992 176.29C264.178 179.142 265.019 182.924 267.871 184.738C270.723 186.552 274.506 185.711 276.32 182.859Z" fill="#FFB9B9"/>
<path d="M262.144 177.49C264.521 173.793 263.451 168.869 259.753 166.492C256.056 164.115 251.132 165.185 248.755 168.883C246.378 172.58 247.448 177.504 251.146 179.881C254.843 182.258 259.767 181.188 262.144 177.49Z" stroke="black" stroke-width="0.748949" stroke-miterlimit="10"/>
<path d="M198.34 389.39L222.4 478.48L172.34 503.74L137.14 390.49C131.69 372.95 138.59 353.62 154.4 344.29C154.9 343.99 155.4 343.71 155.91 343.44L229.91 306.33C238.098 309.405 246.609 311.535 255.28 312.68L217.39 381.17L200.76 386.37C200.047 386.467 199.398 386.835 198.947 387.397C198.497 387.959 198.28 388.673 198.34 389.39Z" fill="#28696D"/>
<path d="M347.55 456.81L320.55 505.95L227.55 432.41C213.14 421.03 207.9 401.18 215.68 384.54C215.92 384.02 216.18 383.54 216.44 382.99L217.44 381.17L255.33 312.68C273.81 315.292 292.515 315.935 311.13 314.6H311.38C310.84 339.35 306.64 362.78 289.53 380.67L277.69 393.06C277.16 393.544 276.836 394.213 276.784 394.929C276.732 395.645 276.956 396.354 277.41 396.91L347.55 456.81Z" fill="#28696D"/>
<path d="M213.44 230.31C235.56 210.89 265.76 202.85 294.34 209.85C295.233 210.07 296.123 210.303 297.01 210.55C342.3 223.1 362.22 259.34 363.87 257.7C366.2 255.37 398.63 237.17 398.63 237.17L418.78 264.69C418.78 264.69 370.66 299.84 360.67 301.26C350.68 302.68 320.34 269.26 320.34 269.26C320.21 279.01 309.1 307.65 309.1 307.65C292.74 313.21 232.58 300.65 232.58 300.65C231.04 294.65 227.3 275.29 229.15 265.26C223.374 273.235 216.526 280.376 208.8 286.48C206.855 287.986 204.465 288.803 202.005 288.803C199.545 288.803 197.155 287.986 195.21 286.48L143.58 246.48L171 213.23L201.86 241.74C201.939 241.818 202.045 241.861 202.155 241.861C202.265 241.861 202.371 241.818 202.45 241.74L213.44 230.31Z" fill="#FF8500"/>
<mask id="mask0" mask-type="alpha" maskUnits="userSpaceOnUse" x="143" y="207" width="276" height="103">
<path d="M213.44 230.31C235.56 210.89 265.76 202.85 294.34 209.85C295.233 210.07 296.123 210.303 297.01 210.55C342.3 223.1 362.22 259.34 363.87 257.7C366.2 255.37 398.63 237.17 398.63 237.17L418.78 264.69C418.78 264.69 370.66 299.84 360.67 301.26C350.68 302.68 320.34 269.26 320.34 269.26C320.21 279.01 309.1 307.65 309.1 307.65C292.74 313.21 232.58 300.65 232.58 300.65C231.04 294.65 227.3 275.29 229.15 265.26C223.374 273.235 216.526 280.376 208.8 286.48C206.855 287.986 204.465 288.803 202.005 288.803C199.545 288.803 197.155 287.986 195.21 286.48L143.58 246.48L171 213.23L201.86 241.74C201.939 241.818 202.045 241.861 202.155 241.861C202.265 241.861 202.371 241.818 202.45 241.74L213.44 230.31Z" fill="#FF8500"/>
</mask>
<g mask="url(#mask0)">
<g opacity="0.8">
<path opacity="0.8" d="M417.11 294.69C417.071 294.691 417.031 294.684 416.995 294.668C416.959 294.653 416.926 294.63 416.9 294.6L413.8 291.08C413.77 291.043 413.75 291 413.741 290.953C413.732 290.907 413.736 290.859 413.751 290.814C413.766 290.769 413.792 290.728 413.827 290.696C413.862 290.664 413.904 290.641 413.95 290.63L418.55 289.71C418.597 289.7 418.647 289.704 418.692 289.719C418.738 289.735 418.779 289.763 418.81 289.8C418.842 289.836 418.863 289.881 418.872 289.928C418.881 289.976 418.877 290.025 418.86 290.07L417.36 294.52C417.344 294.566 417.316 294.606 417.279 294.638C417.242 294.669 417.198 294.691 417.15 294.7L417.11 294.69ZM414.53 291.07L417 293.88L418.2 290.34L414.53 291.07Z" fill="white"/>
<path opacity="0.8" d="M300.88 218.33H300.76C300.716 218.309 300.677 218.277 300.649 218.237C300.621 218.196 300.604 218.149 300.6 218.1L300.26 213.71C300.258 213.663 300.268 213.616 300.289 213.573C300.31 213.531 300.341 213.494 300.38 213.467C300.419 213.44 300.465 213.424 300.512 213.419C300.559 213.414 300.606 213.421 300.65 213.44L304.65 215.34C304.691 215.365 304.726 215.4 304.75 215.442C304.773 215.484 304.786 215.532 304.786 215.58C304.786 215.628 304.773 215.676 304.75 215.718C304.726 215.76 304.691 215.795 304.65 215.82L301 218.28C300.965 218.306 300.924 218.323 300.88 218.33ZM300.88 214.12L301.15 217.56L303.99 215.56L300.88 214.12Z" fill="white"/>
<path opacity="0.8" d="M262.08 289.9C262.034 289.9 261.988 289.888 261.948 289.865C261.908 289.842 261.874 289.809 261.85 289.77L260.02 286.77C259.994 286.728 259.981 286.679 259.981 286.63C259.981 286.581 259.994 286.532 260.02 286.49C260.042 286.447 260.075 286.411 260.115 286.385C260.156 286.358 260.202 286.343 260.25 286.34L263.72 286.23C263.768 286.227 263.816 286.238 263.859 286.261C263.901 286.284 263.936 286.318 263.96 286.36C263.986 286.402 263.999 286.451 263.999 286.5C263.999 286.549 263.986 286.598 263.96 286.64L262.32 289.7C262.298 289.743 262.265 289.779 262.225 289.805C262.184 289.831 262.138 289.847 262.09 289.85L262.08 289.9ZM260.74 286.9L262.06 289.04L263.25 286.82L260.74 286.9Z" fill="white"/>
<path opacity="0.8" d="M150.4 254.76C150.361 254.759 150.322 254.75 150.286 254.732C150.25 254.715 150.219 254.691 150.193 254.661C150.168 254.63 150.149 254.595 150.138 254.557C150.127 254.519 150.124 254.479 150.13 254.44L151.08 248.44C151.089 248.392 151.109 248.347 151.14 248.31C151.171 248.273 151.211 248.244 151.257 248.227C151.302 248.21 151.351 248.205 151.399 248.212C151.447 248.22 151.492 248.24 151.53 248.27L156.27 252.1C156.306 252.131 156.334 252.17 156.351 252.215C156.367 252.259 156.372 252.307 156.365 252.354C156.358 252.401 156.34 252.446 156.311 252.484C156.282 252.521 156.244 252.551 156.2 252.57L150.52 254.76H150.4ZM151.54 248.98L150.74 254.05L155.53 252.21L151.54 248.98Z" fill="white"/>
<path opacity="0.8" d="M216.15 232H216.05L210.45 229.72C210.406 229.701 210.368 229.671 210.339 229.634C210.311 229.596 210.292 229.552 210.285 229.505C210.278 229.457 210.283 229.409 210.299 229.365C210.316 229.32 210.344 229.281 210.38 229.25L215.16 225.54C215.201 225.516 215.248 225.504 215.295 225.504C215.342 225.504 215.389 225.516 215.43 225.54C215.476 225.558 215.516 225.588 215.546 225.627C215.576 225.665 215.594 225.711 215.6 225.76L216.42 231.76C216.424 231.798 216.42 231.837 216.409 231.874C216.397 231.911 216.378 231.945 216.353 231.974C216.327 232.003 216.296 232.027 216.261 232.043C216.227 232.06 216.189 232.069 216.15 232.07V232ZM211.09 229.37L215.81 231.29L215.12 226.29L211.09 229.37Z" fill="white"/>
<path opacity="0.8" d="M181.73 288.6C181.687 288.61 181.643 288.61 181.6 288.6L170.44 282.37C170.399 282.345 170.364 282.31 170.34 282.268C170.317 282.226 170.304 282.178 170.304 282.13C170.304 282.082 170.317 282.034 170.34 281.992C170.364 281.95 170.399 281.915 170.44 281.89L181.44 275.34C181.482 275.316 181.529 275.303 181.577 275.302C181.625 275.302 181.673 275.314 181.715 275.337C181.757 275.36 181.793 275.393 181.818 275.434C181.843 275.475 181.858 275.522 181.86 275.57L182.04 288.35C182.04 288.424 182.01 288.495 181.958 288.548C181.905 288.6 181.834 288.63 181.76 288.63L181.73 288.6ZM171.12 282.08L181.45 287.85L181.28 276L171.12 282.08Z" fill="white"/>
<path opacity="0.8" d="M345.51 298.78H345.42C345.374 298.765 345.333 298.737 345.301 298.7C345.269 298.663 345.248 298.618 345.24 298.57L344.74 295.87C344.733 295.823 344.738 295.775 344.754 295.73C344.771 295.686 344.798 295.646 344.834 295.615C344.87 295.584 344.913 295.563 344.96 295.553C345.006 295.544 345.055 295.546 345.1 295.56L347.69 296.47C347.735 296.487 347.775 296.515 347.806 296.552C347.837 296.588 347.858 296.632 347.867 296.68C347.876 296.727 347.873 296.776 347.858 296.821C347.842 296.867 347.816 296.908 347.78 296.94L345.69 298.73C345.638 298.768 345.574 298.785 345.51 298.78ZM345.36 296.22L345.69 297.98L347.05 296.81L345.36 296.22Z" fill="white"/>
<path opacity="0.8" d="M416.94 225.35H416.86L412.54 224C412.494 223.984 412.453 223.957 412.421 223.921C412.389 223.885 412.367 223.841 412.357 223.793C412.347 223.746 412.349 223.697 412.364 223.651C412.378 223.604 412.405 223.563 412.44 223.53L415.77 220.47C415.806 220.437 415.85 220.415 415.897 220.404C415.944 220.393 415.993 220.395 416.04 220.409C416.086 220.423 416.128 220.449 416.161 220.485C416.195 220.52 416.218 220.563 416.23 220.61L417.23 225.02C417.239 225.061 417.239 225.103 417.229 225.143C417.22 225.184 417.202 225.222 417.176 225.254C417.15 225.287 417.117 225.313 417.08 225.331C417.043 225.35 417.002 225.359 416.96 225.36L416.94 225.35ZM413.16 223.6L416.57 224.67L415.79 221.19L413.16 223.6Z" fill="white"/>
<path opacity="0.8" d="M146.44 236.13C146.369 236.13 146.3 236.101 146.25 236.05L144.16 234.05C144.127 234.016 144.103 233.975 144.091 233.929C144.078 233.884 144.078 233.836 144.088 233.79C144.099 233.744 144.122 233.701 144.154 233.667C144.185 233.632 144.225 233.605 144.27 233.59L147.05 232.78C147.097 232.767 147.146 232.766 147.193 232.777C147.24 232.789 147.283 232.812 147.319 232.846C147.354 232.879 147.38 232.921 147.394 232.967C147.409 233.013 147.411 233.063 147.4 233.11L146.72 235.92C146.708 235.967 146.685 236.01 146.651 236.045C146.618 236.08 146.576 236.106 146.53 236.12L146.44 236.13ZM144.88 234L146.28 235.34L146.74 233.46L144.88 234Z" fill="white"/>
<path opacity="0.8" d="M244.89 310C244.842 309.999 244.796 309.985 244.755 309.961C244.714 309.937 244.68 309.903 244.656 309.862C244.632 309.821 244.619 309.774 244.618 309.727C244.617 309.679 244.628 309.632 244.65 309.59L251.91 296.27C251.934 296.228 251.969 296.193 252.011 296.168C252.053 296.144 252.101 296.131 252.15 296.13C252.198 296.125 252.247 296.134 252.29 296.158C252.333 296.181 252.368 296.217 252.39 296.26L260.3 309.21C260.324 309.252 260.337 309.299 260.338 309.347C260.338 309.395 260.326 309.443 260.303 309.485C260.28 309.527 260.247 309.563 260.206 309.588C260.165 309.613 260.118 309.628 260.07 309.63L244.9 310.01L244.89 310ZM252.16 297L245.36 309.49L259.57 309.14L252.16 297Z" fill="white"/>
<path opacity="0.8" d="M211.92 311.5C211.877 311.5 211.835 311.49 211.797 311.471C211.759 311.452 211.726 311.424 211.7 311.39L209.46 308.47C209.432 308.432 209.415 308.387 209.409 308.339C209.403 308.292 209.41 308.244 209.428 308.2C209.446 308.156 209.475 308.117 209.512 308.088C209.549 308.058 209.593 308.038 209.64 308.03L213.29 307.55C213.338 307.545 213.386 307.552 213.43 307.572C213.474 307.591 213.513 307.621 213.542 307.659C213.571 307.697 213.59 307.742 213.596 307.789C213.603 307.837 213.597 307.885 213.58 307.93L212.17 311.33C212.151 311.375 212.121 311.415 212.083 311.444C212.044 311.474 211.998 311.493 211.95 311.5H211.92ZM210.19 308.5L211.85 310.66L212.85 308.14L210.19 308.5Z" fill="white"/>
<path opacity="0.8" d="M190 215.31C189.957 215.32 189.913 215.32 189.87 215.31L185 212.62C184.959 212.595 184.924 212.56 184.901 212.518C184.877 212.476 184.864 212.428 184.864 212.38C184.864 212.332 184.877 212.284 184.901 212.242C184.924 212.2 184.959 212.165 185 212.14L189.76 209.21C189.802 209.186 189.849 209.173 189.897 209.172C189.945 209.172 189.993 209.184 190.035 209.207C190.077 209.23 190.113 209.264 190.138 209.304C190.163 209.345 190.178 209.392 190.18 209.44L190.33 215.03C190.33 215.104 190.301 215.176 190.248 215.228C190.196 215.281 190.124 215.31 190.05 215.31H190ZM185.64 212.31L189.71 214.52L189.58 209.89L185.64 212.31Z" fill="white"/>
<path opacity="0.8" d="M399.92 218.73H399.85L389.21 215.94C389.164 215.927 389.122 215.903 389.088 215.869C389.054 215.835 389.029 215.793 389.016 215.747C389.003 215.7 389.002 215.652 389.013 215.605C389.024 215.558 389.047 215.515 389.08 215.48L396.82 207.66C396.855 207.627 396.897 207.604 396.943 207.592C396.989 207.58 397.037 207.58 397.083 207.592C397.129 207.604 397.172 207.628 397.206 207.661C397.24 207.694 397.266 207.735 397.28 207.78L400.18 218.39C400.191 218.431 400.192 218.475 400.183 218.516C400.175 218.558 400.157 218.597 400.131 218.631C400.105 218.665 400.071 218.692 400.033 218.711C399.995 218.73 399.953 218.74 399.91 218.74L399.92 218.73ZM389.81 215.52L399.53 218.07L396.88 208.38L389.81 215.52Z" fill="white"/>
<path opacity="0.8" d="M250.31 243.92L243.85 243.51C243.801 243.509 243.753 243.494 243.711 243.467C243.67 243.44 243.636 243.403 243.615 243.359C243.593 243.314 243.584 243.265 243.589 243.216C243.593 243.167 243.611 243.12 243.64 243.08L247.22 237.69C247.245 237.649 247.28 237.614 247.322 237.59C247.364 237.567 247.412 237.554 247.46 237.554C247.508 237.554 247.556 237.567 247.598 237.59C247.64 237.614 247.675 237.649 247.7 237.69L250.58 243.49C250.6 243.532 250.609 243.579 250.607 243.626C250.604 243.673 250.589 243.719 250.564 243.758C250.54 243.798 250.505 243.831 250.464 243.854C250.423 243.877 250.377 243.889 250.33 243.89L250.31 243.92ZM244.31 242.99L249.81 243.34L247.36 238.4L244.31 242.99Z" fill="white"/>
<path opacity="0.8" d="M321.72 274.88H321.63L318.1 273.69C318.055 273.673 318.015 273.645 317.984 273.608C317.953 273.572 317.932 273.528 317.923 273.48C317.914 273.433 317.917 273.384 317.932 273.339C317.948 273.293 317.974 273.252 318.01 273.22L320.8 270.76C320.836 270.728 320.881 270.707 320.928 270.698C320.976 270.689 321.025 270.693 321.07 270.71C321.116 270.726 321.156 270.754 321.188 270.791C321.219 270.828 321.241 270.872 321.25 270.92L321.98 274.57C321.987 274.61 321.986 274.651 321.976 274.69C321.965 274.729 321.947 274.766 321.921 274.797C321.896 274.829 321.863 274.854 321.827 274.872C321.79 274.89 321.751 274.899 321.71 274.9L321.72 274.88ZM318.72 273.31L321.34 274.19L320.79 271.48L318.72 273.31Z" fill="white"/>
<path opacity="0.8" d="M146.75 271.91C146.706 271.908 146.662 271.896 146.624 271.874C146.585 271.852 146.552 271.821 146.528 271.784C146.503 271.747 146.488 271.705 146.483 271.66C146.478 271.616 146.484 271.572 146.5 271.53L148.69 266.23C148.71 266.187 148.74 266.15 148.779 266.122C148.817 266.094 148.862 266.076 148.908 266.07C148.955 266.064 149.003 266.07 149.047 266.088C149.091 266.105 149.13 266.134 149.16 266.17L152.65 270.72C152.678 270.759 152.695 270.804 152.701 270.851C152.707 270.898 152.7 270.946 152.682 270.99C152.664 271.034 152.635 271.073 152.598 271.103C152.561 271.132 152.517 271.152 152.47 271.16L146.78 271.91H146.75ZM149.01 266.91L147.18 271.33L151.92 270.7L149.01 266.91Z" fill="white"/>
<path opacity="0.8" d="M286.4 317.25H286.29C286.245 317.231 286.206 317.201 286.176 317.163C286.146 317.124 286.127 317.078 286.12 317.03L285.12 309.03C285.115 308.982 285.122 308.934 285.141 308.89C285.16 308.846 285.19 308.807 285.229 308.778C285.267 308.749 285.312 308.73 285.359 308.724C285.407 308.717 285.455 308.723 285.5 308.74L292.94 311.88C292.983 311.9 293.02 311.93 293.048 311.969C293.076 312.007 293.094 312.052 293.1 312.098C293.106 312.145 293.1 312.193 293.082 312.237C293.065 312.281 293.037 312.32 293 312.35L286.56 317.23C286.51 317.253 286.454 317.26 286.4 317.25ZM285.73 309.4L286.61 316.47L292.29 312.17L285.73 309.4Z" fill="white"/>
<path opacity="0.8" d="M311.39 256.8C311.347 256.799 311.305 256.788 311.267 256.767C311.229 256.747 311.196 256.719 311.171 256.684C311.146 256.649 311.129 256.609 311.122 256.567C311.115 256.524 311.118 256.481 311.13 256.44L313.65 248.5C313.666 248.454 313.693 248.413 313.729 248.381C313.765 248.349 313.809 248.327 313.857 248.317C313.904 248.307 313.953 248.309 313.999 248.324C314.045 248.338 314.087 248.364 314.12 248.4L319.74 254.55C319.77 254.586 319.791 254.629 319.8 254.675C319.809 254.721 319.807 254.768 319.793 254.813C319.779 254.858 319.754 254.899 319.72 254.931C319.687 254.964 319.645 254.987 319.6 255L311.46 256.79L311.39 256.8ZM314.02 249.12L311.79 256.12L318.99 254.53L314.02 249.12Z" fill="white"/>
<path opacity="0.8" d="M167.29 266.79C167.232 266.786 167.177 266.764 167.132 266.727C167.087 266.691 167.054 266.641 167.039 266.585C167.023 266.529 167.026 266.469 167.046 266.415C167.066 266.36 167.102 266.313 167.15 266.28C167.93 265.81 167.7 264.42 167.47 263.07C167.22 261.54 166.95 259.97 168.05 259.3C169.15 258.63 170.43 259.59 171.66 260.52C172.89 261.45 173.88 262.19 174.66 261.71C175.44 261.23 175.21 259.85 174.98 258.5C174.72 256.97 174.46 255.4 175.56 254.73C176.66 254.06 177.94 255.03 179.17 255.96C180.4 256.89 181.38 257.63 182.17 257.16C182.96 256.69 182.72 255.3 182.49 253.95C182.23 252.42 181.97 250.85 183.07 250.18C184.17 249.51 185.44 250.48 186.68 251.41C187.92 252.34 188.9 253.08 189.68 252.61C189.711 252.583 189.747 252.563 189.786 252.552C189.825 252.541 189.866 252.538 189.906 252.544C189.946 252.55 189.985 252.565 190.019 252.587C190.053 252.609 190.081 252.639 190.103 252.674C190.124 252.708 190.138 252.747 190.143 252.788C190.147 252.828 190.143 252.869 190.131 252.908C190.118 252.946 190.097 252.982 190.069 253.012C190.042 253.041 190.008 253.065 189.97 253.08C188.87 253.74 187.6 252.78 186.36 251.85C185.12 250.92 184.15 250.18 183.36 250.65C182.57 251.12 182.81 252.51 183.04 253.86C183.3 255.39 183.56 256.96 182.46 257.63C181.36 258.3 180.09 257.33 178.85 256.4C177.61 255.47 176.63 254.73 175.85 255.2C175.07 255.67 175.3 257.06 175.53 258.41C175.79 259.94 176.05 261.51 174.95 262.18C173.85 262.85 172.57 261.89 171.34 260.95C170.11 260.01 169.12 259.28 168.34 259.76C167.56 260.24 167.79 261.62 168.02 262.97C168.27 264.5 168.54 266.07 167.44 266.74C167.396 266.771 167.344 266.788 167.29 266.79Z" fill="white"/>
<path opacity="0.8" d="M338.09 284C337.35 284 336.89 283.19 336.45 282.41C336.01 281.63 335.69 281.04 335.22 281.1C335.184 281.106 335.147 281.104 335.111 281.095C335.076 281.085 335.042 281.069 335.013 281.047C334.984 281.024 334.96 280.996 334.943 280.964C334.925 280.932 334.914 280.896 334.91 280.86C334.902 280.787 334.922 280.714 334.967 280.656C335.012 280.598 335.077 280.56 335.15 280.55C335.98 280.44 336.47 281.3 336.94 282.13C337.32 282.8 337.71 283.5 338.17 283.44C338.63 283.38 338.82 282.6 339.01 281.85C339.24 280.92 339.48 279.96 340.31 279.85C341.14 279.74 341.63 280.6 342.1 281.43C342.48 282.1 342.88 282.79 343.33 282.74C343.78 282.69 343.98 281.9 344.17 281.15C344.4 280.22 344.64 279.26 345.47 279.15C346.3 279.04 346.79 279.9 347.26 280.73C347.64 281.4 348.03 282.09 348.5 282.03C348.97 281.97 349.16 281.19 349.34 280.44C349.57 279.51 349.81 278.55 350.64 278.44C350.676 278.434 350.713 278.436 350.749 278.445C350.784 278.454 350.818 278.471 350.847 278.493C350.876 278.516 350.9 278.544 350.918 278.576C350.935 278.608 350.946 278.643 350.95 278.68C350.959 278.753 350.938 278.826 350.893 278.884C350.849 278.942 350.783 278.98 350.71 278.99C350.25 279.05 350.05 279.83 349.87 280.58C349.64 281.51 349.4 282.47 348.57 282.58C347.74 282.69 347.25 281.83 346.78 281C346.4 280.33 345.99 279.62 345.54 279.69C345.09 279.76 344.89 280.53 344.7 281.28C344.47 282.21 344.23 283.17 343.4 283.28C342.57 283.39 342.08 282.53 341.61 281.7C341.23 281.03 340.84 280.34 340.38 280.39C339.92 280.44 339.73 281.23 339.54 281.98C339.31 282.91 339.07 283.87 338.24 283.98L338.09 284Z" fill="white"/>
<path opacity="0.8" d="M337.32 270.85C337.274 270.862 337.226 270.862 337.18 270.85C337.117 270.813 337.071 270.752 337.052 270.681C337.034 270.609 337.044 270.534 337.08 270.47C337.63 269.53 336.61 268.23 335.63 266.97C334.65 265.71 333.4 264.12 334.14 262.85C334.88 261.58 336.7 261.85 338.46 262.12C340.04 262.35 341.67 262.6 342.22 261.66C342.77 260.72 341.75 259.42 340.77 258.16C339.79 256.9 338.54 255.31 339.28 254.05C340.02 252.79 341.83 253.05 343.59 253.32C345.17 253.56 346.8 253.8 347.35 252.86C347.9 251.92 346.88 250.62 345.9 249.37C344.92 248.12 343.67 246.52 344.41 245.26C345.15 244 346.96 244.26 348.72 244.54C350.3 244.78 351.93 245.02 352.48 244.08C352.496 244.044 352.519 244.011 352.548 243.984C352.577 243.957 352.612 243.937 352.65 243.924C352.687 243.912 352.727 243.908 352.767 243.912C352.806 243.916 352.844 243.928 352.879 243.948C352.913 243.968 352.943 243.995 352.966 244.028C352.989 244.06 353.005 244.097 353.012 244.136C353.02 244.175 353.019 244.215 353.01 244.254C353.001 244.292 352.984 244.329 352.96 244.36C352.23 245.62 350.41 245.36 348.65 245.08C347.07 244.84 345.44 244.6 344.89 245.54C344.34 246.48 345.36 247.78 346.34 249.03C347.32 250.28 348.57 251.88 347.83 253.14C347.09 254.4 345.28 254.14 343.52 253.87C341.94 253.64 340.31 253.39 339.76 254.33C339.21 255.27 340.23 256.57 341.21 257.82C342.19 259.07 343.44 260.67 342.7 261.93C341.96 263.19 340.14 262.93 338.38 262.66C336.8 262.43 335.17 262.18 334.62 263.12C334.07 264.06 335.09 265.36 336.07 266.62C337.05 267.88 338.3 269.47 337.56 270.74C337.532 270.777 337.496 270.806 337.454 270.825C337.412 270.844 337.366 270.853 337.32 270.85Z" fill="white"/>
<path opacity="0.8" d="M381.57 284.09C381.501 284.088 381.435 284.06 381.385 284.012C381.335 283.964 381.305 283.899 381.3 283.83C381.2 282.47 382.75 281.72 384.25 281C385.58 280.36 386.95 279.7 386.88 278.7C386.81 277.7 385.36 277.24 383.95 276.79C382.37 276.28 380.73 275.79 380.64 274.4C380.55 273.01 382.09 272.29 383.58 271.57C384.91 270.93 386.28 270.26 386.21 269.27C386.14 268.28 384.69 267.81 383.28 267.36C381.7 266.85 380.06 266.36 379.97 264.97C379.88 263.58 381.42 262.85 382.91 262.13C384.24 261.49 385.61 260.82 385.54 259.83C385.47 258.84 384.02 258.37 382.61 257.92C381.03 257.41 379.39 256.92 379.3 255.52C379.297 255.447 379.323 255.376 379.371 255.322C379.42 255.268 379.488 255.235 379.56 255.23C379.633 255.227 379.704 255.253 379.758 255.301C379.812 255.35 379.845 255.417 379.85 255.49C379.92 256.49 381.37 256.95 382.78 257.4C384.36 257.91 386 258.4 386.09 259.8C386.18 261.2 384.64 261.91 383.15 262.64C381.82 263.28 380.45 263.95 380.52 264.94C380.59 265.93 382.04 266.4 383.45 266.85C385.03 267.36 386.67 267.85 386.76 269.24C386.85 270.63 385.31 271.35 383.82 272.07C382.49 272.71 381.12 273.38 381.19 274.37C381.26 275.36 382.71 275.83 384.12 276.28C385.7 276.79 387.34 277.28 387.43 278.67C387.52 280.06 385.98 280.78 384.48 281.5C383.15 282.14 381.78 282.8 381.85 283.8C381.853 283.873 381.827 283.943 381.779 283.998C381.73 284.052 381.663 284.085 381.59 284.09H381.57Z" fill="white"/>
<path opacity="0.8" d="M295.14 295.06C295.077 295.07 295.013 295.07 294.95 295.06C294.47 294.91 294.43 294.34 294.4 293.88C294.4 293.62 294.4 293.22 294.23 293.18C294.06 293.14 293.86 293.45 293.69 293.65C293.4 294.01 293.03 294.45 292.56 294.3C292.09 294.15 292.04 293.58 292.01 293.12C292.01 292.86 292.01 292.46 291.84 292.42C291.67 292.38 291.47 292.69 291.3 292.89C291.01 293.25 290.64 293.69 290.17 293.54C289.7 293.39 289.65 292.82 289.62 292.36C289.62 292.1 289.62 291.7 289.45 291.66C289.387 291.632 289.337 291.582 289.309 291.519C289.281 291.456 289.277 291.385 289.298 291.319C289.319 291.253 289.363 291.198 289.423 291.163C289.482 291.128 289.553 291.116 289.62 291.13C290.1 291.28 290.14 291.85 290.17 292.31C290.17 292.57 290.17 292.97 290.34 293.01C290.51 293.05 290.71 292.74 290.88 292.54C291.17 292.18 291.53 291.74 292.01 291.89C292.49 292.04 292.53 292.61 292.56 293.07C292.56 293.33 292.56 293.73 292.73 293.77C292.9 293.81 293.1 293.5 293.27 293.3C293.56 292.94 293.93 292.5 294.4 292.65C294.87 292.8 294.92 293.37 294.95 293.83C294.95 294.09 294.95 294.49 295.12 294.53C295.29 294.57 295.49 294.26 295.66 294.06C295.95 293.7 296.32 293.26 296.79 293.41C296.853 293.438 296.903 293.489 296.931 293.552C296.96 293.614 296.963 293.686 296.942 293.751C296.921 293.817 296.877 293.872 296.817 293.907C296.758 293.942 296.688 293.954 296.62 293.94C296.5 293.94 296.25 294.21 296.08 294.41C295.91 294.61 295.53 295.06 295.14 295.06Z" fill="white"/>
<path opacity="0.8" d="M226.41 305.54C226.362 305.541 226.315 305.529 226.273 305.506C226.231 305.483 226.196 305.45 226.17 305.41C225.39 304.1 226.57 302.56 227.71 301.07C228.85 299.58 229.8 298.34 229.21 297.35C228.62 296.36 226.89 296.63 225.21 296.9C223.36 297.19 221.45 297.5 220.66 296.19C219.87 294.88 221.06 293.34 222.19 291.85C223.32 290.36 224.28 289.12 223.69 288.13C223.1 287.14 221.37 287.41 219.69 287.68C217.84 287.97 215.93 288.28 215.14 286.96C214.35 285.64 215.53 284.1 216.67 282.62C217.81 281.14 218.76 279.89 218.17 278.89C217.58 277.89 215.85 278.17 214.17 278.43C212.32 278.72 210.4 279.03 209.62 277.71C209.6 277.649 209.601 277.584 209.623 277.524C209.645 277.464 209.687 277.413 209.742 277.381C209.797 277.348 209.862 277.335 209.925 277.344C209.988 277.353 210.046 277.383 210.09 277.43C210.68 278.43 212.41 278.15 214.09 277.89C215.94 277.6 217.85 277.29 218.64 278.61C219.43 279.93 218.25 281.47 217.11 282.95C215.97 284.43 215.02 285.68 215.61 286.68C216.2 287.68 217.93 287.4 219.61 287.13C221.46 286.84 223.37 286.53 224.16 287.85C224.95 289.17 223.76 290.7 222.63 292.19C221.5 293.68 220.54 294.92 221.13 295.91C221.72 296.9 223.45 296.63 225.13 296.36C226.98 296.07 228.89 295.76 229.68 297.07C230.47 298.38 229.28 299.92 228.14 301.41C227 302.9 226.05 304.14 226.64 305.13C226.664 305.172 226.677 305.22 226.678 305.269C226.678 305.318 226.665 305.366 226.641 305.409C226.616 305.451 226.581 305.487 226.539 305.512C226.497 305.536 226.449 305.55 226.4 305.55L226.41 305.54Z" fill="white"/>
<path opacity="0.8" d="M242 287.44C241.958 287.441 241.917 287.432 241.879 287.415C241.841 287.398 241.807 287.372 241.78 287.34C241.51 287.02 241.73 286.63 241.9 286.34C241.985 286.212 242.046 286.07 242.08 285.92C241.929 285.938 241.782 285.975 241.64 286.03C241.3 286.14 240.87 286.28 240.64 285.96C240.41 285.64 240.59 285.24 240.76 284.96C240.845 284.832 240.906 284.69 240.94 284.54C240.789 284.554 240.64 284.591 240.5 284.65C240.16 284.76 239.73 284.9 239.5 284.58C239.27 284.26 239.45 283.86 239.62 283.58C239.702 283.452 239.76 283.309 239.79 283.16C239.639 283.175 239.49 283.212 239.35 283.27C239.01 283.38 238.58 283.52 238.35 283.2C238.317 283.174 238.29 283.142 238.271 283.104C238.252 283.067 238.242 283.026 238.241 282.984C238.24 282.942 238.249 282.9 238.267 282.862C238.284 282.824 238.31 282.79 238.342 282.763C238.374 282.737 238.412 282.717 238.453 282.707C238.493 282.697 238.536 282.696 238.577 282.704C238.618 282.712 238.657 282.73 238.69 282.755C238.723 282.78 238.751 282.813 238.77 282.85C238.921 282.841 239.07 282.807 239.21 282.75C239.55 282.64 239.98 282.5 240.21 282.82C240.44 283.14 240.26 283.54 240.09 283.82C240.008 283.949 239.951 284.091 239.92 284.24C240.071 284.222 240.219 284.185 240.36 284.13C240.7 284.02 241.13 283.88 241.36 284.2C241.59 284.52 241.41 284.91 241.24 285.2C241.155 285.328 241.094 285.47 241.06 285.62C241.211 285.605 241.359 285.568 241.5 285.51C241.84 285.4 242.27 285.26 242.5 285.58C242.73 285.9 242.55 286.29 242.38 286.58C242.295 286.708 242.234 286.85 242.2 287C242.235 287.039 242.258 287.088 242.266 287.141C242.274 287.193 242.266 287.246 242.244 287.294C242.221 287.342 242.185 287.383 242.14 287.41C242.095 287.438 242.043 287.452 241.99 287.45L242 287.44Z" fill="white"/>
<path opacity="0.8" d="M414.44 246.48C414.164 246.479 413.893 246.41 413.65 246.28C412.35 245.6 412.53 243.77 412.71 241.99C412.87 240.39 413.03 238.75 412.06 238.24C411.09 237.73 409.84 238.82 408.63 239.87C407.42 240.92 405.88 242.24 404.63 241.57C403.38 240.9 403.51 239.06 403.69 237.28C403.85 235.69 404.01 234.04 403.05 233.54C402.09 233.04 400.83 234.12 399.62 235.17C398.41 236.22 396.87 237.54 395.62 236.87C394.37 236.2 394.51 234.36 394.68 232.58C394.84 230.99 395 229.34 394.04 228.84C394.001 228.829 393.964 228.808 393.933 228.781C393.902 228.754 393.878 228.72 393.861 228.682C393.845 228.644 393.837 228.603 393.839 228.562C393.84 228.521 393.85 228.481 393.869 228.444C393.888 228.407 393.914 228.375 393.947 228.35C393.979 228.325 394.017 228.307 394.057 228.298C394.098 228.289 394.139 228.289 394.18 228.298C394.22 228.307 394.258 228.325 394.29 228.35C395.59 229.02 395.4 230.86 395.23 232.64C395.07 234.23 394.91 235.88 395.87 236.38C396.83 236.88 398.09 235.8 399.3 234.75C400.51 233.7 402.05 232.38 403.3 233.05C404.55 233.72 404.42 235.56 404.24 237.34C404.08 238.93 403.92 240.58 404.88 241.09C405.84 241.6 407.1 240.51 408.31 239.46C409.52 238.41 411.06 237.09 412.31 237.76C413.56 238.43 413.43 240.27 413.25 242.05C413.09 243.64 412.93 245.29 413.9 245.8C414.87 246.31 416.12 245.22 417.34 244.18C418.56 243.14 420.09 241.81 421.39 242.48C421.442 242.52 421.477 242.577 421.492 242.64C421.506 242.704 421.497 242.77 421.468 242.829C421.438 242.887 421.389 242.932 421.329 242.958C421.27 242.984 421.203 242.988 421.14 242.97C420.14 242.47 418.92 243.55 417.7 244.6C416.48 245.65 415.51 246.48 414.44 246.48Z" fill="white"/>
<path opacity="0.8" d="M258.37 277.45C258.305 277.452 258.241 277.431 258.19 277.39C257.1 276.48 257.65 274.78 258.19 273.14C258.67 271.67 259.19 270.14 258.36 269.48C257.53 268.82 256.15 269.57 254.79 270.31C253.27 271.13 251.7 271.99 250.61 271.08C249.52 270.17 250.07 268.47 250.61 266.83C251.09 265.36 251.61 263.83 250.78 263.17C249.95 262.51 248.57 263.26 247.21 264C245.69 264.82 244.12 265.67 243.03 264.77C241.94 263.87 242.49 262.16 243.03 260.52C243.51 259.05 244.03 257.52 243.19 256.86C242.35 256.2 240.98 256.95 239.62 257.69C238.1 258.51 236.53 259.36 235.43 258.45C235.391 258.399 235.37 258.337 235.372 258.274C235.373 258.21 235.396 258.148 235.436 258.099C235.477 258.05 235.534 258.017 235.596 258.004C235.658 257.992 235.723 258.001 235.78 258.03C236.59 258.7 237.99 257.94 239.35 257.2C240.87 256.38 242.44 255.53 243.54 256.44C244.64 257.35 244.08 259.05 243.54 260.69C243.06 262.16 242.54 263.69 243.38 264.35C244.22 265.01 245.59 264.26 246.95 263.52C248.47 262.7 250.04 261.84 251.13 262.75C252.22 263.66 251.67 265.36 251.13 267C250.65 268.47 250.13 270 250.96 270.66C251.79 271.32 253.17 270.57 254.53 269.83C256.05 269.01 257.62 268.15 258.71 269.06C259.8 269.97 259.25 271.67 258.71 273.31C258.23 274.78 257.71 276.31 258.54 276.96C258.582 276.997 258.612 277.046 258.626 277.101C258.64 277.156 258.637 277.213 258.618 277.266C258.598 277.319 258.563 277.365 258.517 277.398C258.471 277.431 258.416 277.449 258.36 277.45H258.37Z" fill="white"/>
<path opacity="0.8" d="M416.59 272.33C416.518 272.325 416.45 272.292 416.401 272.238C416.353 272.183 416.327 272.113 416.33 272.04C416.33 271.6 416.81 271.44 417.19 271.32C417.31 271.32 417.67 271.16 417.67 271.09C417.67 271.02 417.34 270.87 417.22 270.81C416.86 270.65 416.42 270.44 416.45 270C416.48 269.56 416.93 269.4 417.31 269.28C417.44 269.28 417.79 269.12 417.79 269.05C417.79 268.98 417.46 268.83 417.34 268.77C416.98 268.61 416.54 268.4 416.57 267.96C416.6 267.52 417.05 267.36 417.42 267.24C417.55 267.24 417.9 267.08 417.9 267.01C417.9 266.94 417.57 266.79 417.45 266.73C417.1 266.57 416.65 266.36 416.68 265.92C416.681 265.884 416.69 265.848 416.705 265.815C416.721 265.782 416.743 265.752 416.77 265.728C416.797 265.704 416.828 265.685 416.863 265.674C416.897 265.662 416.934 265.657 416.97 265.66C417.043 265.665 417.11 265.698 417.159 265.752C417.207 265.806 417.233 265.877 417.23 265.95C417.23 266.02 417.56 266.17 417.68 266.23C418.03 266.39 418.48 266.6 418.45 267.04C418.42 267.48 417.97 267.64 417.6 267.76C417.47 267.76 417.12 267.92 417.12 267.99C417.12 268.06 417.45 268.21 417.57 268.27C417.93 268.43 418.37 268.64 418.34 269.08C418.31 269.52 417.86 269.68 417.48 269.8C417.35 269.8 417 269.96 417 270.03C417 270.1 417.33 270.25 417.45 270.31C417.81 270.47 418.25 270.68 418.22 271.12C418.19 271.56 417.74 271.72 417.37 271.84C417.24 271.84 416.89 272 416.89 272.07C416.888 272.107 416.878 272.143 416.861 272.176C416.845 272.209 416.822 272.238 416.794 272.262C416.766 272.286 416.734 272.305 416.699 272.316C416.664 272.328 416.627 272.333 416.59 272.33Z" fill="white"/>
<path opacity="0.8" d="M230.35 270.38H230.27C229.76 270.22 229.72 269.63 229.68 269.11C229.68 268.8 229.62 268.37 229.47 268.32C229.32 268.27 229.05 268.61 228.85 268.85C228.52 269.25 228.15 269.72 227.64 269.56C227.13 269.4 227.09 268.81 227.05 268.29C227.05 267.98 226.99 267.55 226.84 267.5C226.69 267.45 226.42 267.78 226.22 268.03C225.89 268.44 225.52 268.89 225.01 268.74C224.5 268.59 224.46 267.99 224.42 267.47C224.42 267.16 224.36 266.73 224.21 266.68C224.06 266.63 223.79 266.96 223.59 267.21C223.26 267.61 222.89 268.08 222.38 267.91C222.32 267.881 222.271 267.832 222.244 267.771C222.217 267.709 222.213 267.64 222.232 267.576C222.252 267.512 222.293 267.457 222.35 267.421C222.406 267.385 222.474 267.371 222.54 267.38C222.7 267.38 222.96 267.1 223.16 266.85C223.49 266.45 223.87 265.98 224.37 266.15C224.87 266.32 224.92 266.9 224.96 267.42C224.96 267.73 225.02 268.16 225.17 268.21C225.32 268.26 225.59 267.93 225.79 267.68C226.12 267.28 226.49 266.81 227 266.97C227.51 267.13 227.55 267.72 227.59 268.24C227.59 268.55 227.65 268.98 227.8 269.03C227.95 269.08 228.22 268.75 228.42 268.5C228.75 268.1 229.13 267.63 229.63 267.79C230.13 267.95 230.18 268.54 230.22 269.06C230.22 269.37 230.28 269.8 230.43 269.85C230.489 269.873 230.539 269.915 230.57 269.97C230.602 270.025 230.614 270.089 230.605 270.152C230.596 270.215 230.566 270.272 230.519 270.316C230.473 270.359 230.413 270.385 230.35 270.39V270.38Z" fill="white"/>
<path opacity="0.8" d="M397.71 307C397.248 306.972 396.792 306.888 396.35 306.75C395.63 306.56 394.88 306.36 394.61 306.75C394.592 306.787 394.566 306.82 394.534 306.845C394.502 306.871 394.464 306.89 394.424 306.899C394.384 306.909 394.342 306.91 394.302 306.901C394.261 306.893 394.223 306.876 394.19 306.851C394.157 306.826 394.13 306.795 394.111 306.758C394.092 306.722 394.081 306.682 394.079 306.64C394.077 306.599 394.084 306.558 394.1 306.52C394.115 306.482 394.139 306.448 394.17 306.42C394.66 305.76 395.59 306 396.49 306.24C397.21 306.43 397.96 306.63 398.23 306.24C398.5 305.85 398.09 305.24 397.69 304.59C397.2 303.8 396.69 302.98 397.18 302.32C397.67 301.66 398.6 301.9 399.5 302.14C400.22 302.33 400.97 302.52 401.24 302.14C401.51 301.76 401.1 301.14 400.7 300.49C400.21 299.7 399.7 298.88 400.19 298.22C400.68 297.56 401.61 297.8 402.51 298.04C403.23 298.23 403.98 298.42 404.25 298.04C404.52 297.66 404.11 297.04 403.71 296.39C403.22 295.6 402.71 294.78 403.2 294.12C403.248 294.076 403.31 294.051 403.375 294.047C403.44 294.044 403.504 294.064 403.556 294.103C403.608 294.142 403.645 294.198 403.661 294.262C403.676 294.325 403.669 294.391 403.64 294.45C403.37 294.81 403.78 295.45 404.18 296.1C404.67 296.89 405.18 297.71 404.69 298.37C404.2 299.03 403.27 298.79 402.37 298.55C401.65 298.36 400.9 298.17 400.63 298.55C400.36 298.93 400.77 299.55 401.17 300.2C401.66 300.99 402.17 301.81 401.68 302.47C401.19 303.13 400.26 302.89 399.36 302.65C398.64 302.46 397.89 302.27 397.62 302.65C397.35 303.03 397.76 303.65 398.16 304.3C398.65 305.09 399.16 305.91 398.67 306.57C398.558 306.715 398.412 306.831 398.244 306.906C398.077 306.981 397.893 307.013 397.71 307Z" fill="white"/>
<path opacity="0.8" d="M319 304.11C318.941 304.11 318.883 304.09 318.836 304.054C318.789 304.018 318.755 303.967 318.74 303.91C318.55 303.25 317.45 303.14 316.39 303.03C315.14 302.9 313.85 302.77 313.56 301.75C313.27 300.73 314.29 299.93 315.28 299.17C316.27 298.41 317 297.84 316.81 297.17C316.62 296.5 315.52 296.4 314.46 296.29C313.21 296.17 311.93 296.04 311.63 295.02C311.33 294 312.36 293.21 313.35 292.44C314.34 291.67 315.07 291.11 314.88 290.44C314.69 289.77 313.59 289.67 312.53 289.56C311.28 289.44 309.99 289.31 309.7 288.29C309.41 287.27 310.43 286.48 311.42 285.71C312.41 284.94 313.14 284.38 312.95 283.71C312.932 283.673 312.922 283.633 312.921 283.592C312.921 283.551 312.929 283.51 312.945 283.472C312.962 283.435 312.987 283.402 313.018 283.375C313.049 283.348 313.086 283.328 313.125 283.317C313.165 283.306 313.206 283.303 313.246 283.31C313.287 283.317 313.326 283.332 313.359 283.355C313.393 283.379 313.422 283.409 313.443 283.444C313.463 283.48 313.476 283.519 313.48 283.56C313.77 284.56 312.75 285.37 311.76 286.14C310.77 286.91 310.04 287.47 310.23 288.14C310.42 288.81 311.52 288.91 312.58 289.02C313.83 289.14 315.12 289.27 315.41 290.29C315.7 291.31 314.68 292.1 313.69 292.87C312.7 293.64 311.97 294.2 312.16 294.87C312.35 295.54 313.45 295.64 314.51 295.75C315.76 295.88 317.05 296 317.34 297.03C317.63 298.06 316.61 298.85 315.62 299.61C314.63 300.37 313.9 300.94 314.09 301.61C314.28 302.28 315.38 302.38 316.44 302.49C317.69 302.62 318.98 302.75 319.27 303.77C319.289 303.84 319.279 303.915 319.244 303.978C319.208 304.042 319.15 304.089 319.08 304.11H319Z" fill="white"/>
<path opacity="0.8" d="M294.72 239.16C294.509 239.162 294.302 239.107 294.12 239C293.28 238.5 293.45 237.34 293.63 236.21C293.77 235.26 293.92 234.28 293.4 233.97C292.88 233.66 292.09 234.27 291.34 234.86C290.59 235.45 289.5 236.29 288.66 235.79C287.82 235.29 287.99 234.13 288.17 233C288.31 232.05 288.46 231.07 287.94 230.77C287.42 230.47 286.64 231.07 285.88 231.66C285.12 232.25 284.05 233.09 283.2 232.59C282.35 232.09 282.54 230.93 282.71 229.8C282.86 228.85 283.01 227.87 282.49 227.57C282.45 227.557 282.414 227.535 282.384 227.506C282.354 227.477 282.331 227.441 282.316 227.402C282.302 227.363 282.296 227.321 282.3 227.279C282.304 227.237 282.317 227.197 282.338 227.161C282.359 227.125 282.389 227.094 282.424 227.071C282.458 227.048 282.498 227.033 282.539 227.027C282.581 227.021 282.623 227.025 282.663 227.037C282.703 227.05 282.739 227.071 282.77 227.1C283.61 227.6 283.43 228.76 283.26 229.89C283.11 230.84 282.96 231.82 283.48 232.12C284 232.42 284.79 231.82 285.54 231.23C286.29 230.64 287.38 229.81 288.22 230.3C289.06 230.79 288.89 231.96 288.71 233.09C288.57 234.04 288.42 235.02 288.94 235.32C289.46 235.62 290.25 235.02 291 234.43C291.75 233.84 292.84 233.01 293.68 233.5C294.52 233.99 294.35 235.16 294.18 236.29C294.04 237.24 293.89 238.22 294.41 238.53C294.93 238.84 295.72 238.23 296.48 237.64C297.24 237.05 298.32 236.22 299.16 236.71C299.2 236.723 299.236 236.745 299.266 236.774C299.296 236.803 299.319 236.839 299.334 236.878C299.348 236.917 299.354 236.959 299.35 237.001C299.346 237.043 299.333 237.083 299.312 237.119C299.29 237.155 299.261 237.186 299.226 237.209C299.192 237.232 299.152 237.247 299.111 237.253C299.069 237.259 299.027 237.255 298.987 237.243C298.947 237.23 298.911 237.209 298.88 237.18C298.35 236.87 297.57 237.48 296.82 238.07C296.246 238.637 295.514 239.017 294.72 239.16Z" fill="white"/>
<path opacity="0.8" d="M259.4 233.49C259.354 233.489 259.309 233.477 259.269 233.454C259.229 233.431 259.195 233.399 259.17 233.36C258.6 232.48 259.34 231.44 260.05 230.44C260.76 229.44 261.29 228.7 260.92 228.13C260.55 227.56 259.49 227.77 258.46 227.98C257.25 228.22 256 228.47 255.46 227.59C254.92 226.71 255.63 225.67 256.34 224.66C256.95 223.8 257.58 222.92 257.21 222.35C256.84 221.78 255.78 221.99 254.75 222.2C253.54 222.44 252.29 222.68 251.75 221.81C251.21 220.94 251.92 219.89 252.63 218.88C253.34 217.87 253.86 217.14 253.5 216.57C253.14 216 252.07 216.21 251.04 216.41C249.83 216.65 248.58 216.89 248.04 216.01C248.011 215.98 247.989 215.945 247.975 215.906C247.962 215.867 247.957 215.825 247.962 215.784C247.966 215.743 247.98 215.703 248.002 215.668C248.023 215.632 248.052 215.602 248.087 215.58C248.122 215.557 248.161 215.542 248.202 215.537C248.243 215.531 248.285 215.535 248.324 215.547C248.364 215.56 248.4 215.581 248.43 215.609C248.461 215.637 248.485 215.672 248.5 215.71C248.87 216.28 249.93 216.07 250.96 215.86C252.17 215.62 253.42 215.38 253.96 216.26C254.5 217.14 253.79 218.18 253.08 219.19C252.37 220.2 251.85 220.93 252.21 221.5C252.57 222.07 253.64 221.86 254.67 221.65C255.88 221.41 257.13 221.16 257.67 222.04C258.21 222.92 257.5 223.96 256.79 224.97C256.08 225.98 255.55 226.71 255.92 227.28C256.29 227.85 257.35 227.64 258.38 227.43C259.59 227.19 260.84 226.94 261.38 227.82C261.92 228.7 261.21 229.74 260.5 230.75C259.89 231.61 259.26 232.49 259.63 233.06C259.668 233.121 259.681 233.195 259.667 233.266C259.652 233.337 259.61 233.399 259.55 233.44C259.506 233.471 259.454 233.489 259.4 233.49Z" fill="white"/>
<path opacity="0.8" d="M210.87 255.62C210.816 255.619 210.764 255.602 210.72 255.572C210.676 255.542 210.641 255.499 210.62 255.45C210.2 254.45 208.62 254.45 206.99 254.52C205.23 254.52 203.41 254.59 202.84 253.26C202.27 251.93 203.57 250.65 204.84 249.41C206.11 248.17 207.12 247.15 206.7 246.16C206.28 245.17 204.65 245.16 203.08 245.24C201.32 245.24 199.5 245.31 198.94 243.98C198.38 242.65 199.67 241.37 200.94 240.13C202.21 238.89 203.22 237.87 202.8 236.89C202.38 235.91 200.8 235.89 199.18 235.97C197.42 235.97 195.6 236.04 195.04 234.71C194.48 233.38 195.77 232.1 197.04 230.86C198.31 229.62 199.32 228.61 198.9 227.62C198.878 227.585 198.864 227.547 198.859 227.506C198.854 227.466 198.857 227.424 198.87 227.385C198.882 227.346 198.903 227.311 198.931 227.281C198.958 227.25 198.992 227.227 199.03 227.211C199.068 227.196 199.109 227.189 199.149 227.19C199.19 227.192 199.23 227.203 199.266 227.222C199.303 227.241 199.334 227.268 199.359 227.3C199.384 227.333 199.401 227.37 199.41 227.41C199.97 228.74 198.68 230.02 197.41 231.26C196.14 232.5 195.13 233.51 195.55 234.5C195.97 235.49 197.6 235.5 199.17 235.42C200.93 235.42 202.75 235.35 203.31 236.68C203.87 238.01 202.58 239.29 201.31 240.53C200.04 241.77 199.03 242.79 199.45 243.77C199.87 244.75 201.45 244.77 203.07 244.69C204.83 244.69 206.65 244.62 207.21 245.95C207.77 247.28 206.48 248.56 205.21 249.8C203.94 251.04 202.93 252.06 203.35 253.05C203.77 254.04 205.4 254.05 206.98 253.98C208.74 253.98 210.56 253.91 211.13 255.24C211.157 255.308 211.156 255.383 211.128 255.45C211.1 255.518 211.047 255.571 210.98 255.6L210.87 255.62Z" fill="white"/>
<path opacity="0.8" d="M273.09 260.69C273.025 260.689 272.963 260.665 272.914 260.623C272.865 260.581 272.832 260.524 272.82 260.46C272.71 259.88 271.77 259.69 270.82 259.46C269.73 259.24 268.6 259.01 268.42 258.07C268.24 257.13 269.22 256.51 270.17 255.92C270.96 255.42 271.77 254.92 271.67 254.33C271.57 253.74 270.62 253.56 269.67 253.38C268.58 253.16 267.45 252.93 267.27 251.99C267.09 251.05 268.07 250.43 269.02 249.84C269.81 249.34 270.62 248.84 270.52 248.26C270.42 247.68 269.47 247.5 268.52 247.31C267.43 247.09 266.3 246.86 266.12 245.92C265.94 244.98 266.92 244.37 267.87 243.77C268.66 243.27 269.47 242.77 269.37 242.19C269.358 242.119 269.375 242.045 269.416 241.986C269.457 241.926 269.519 241.885 269.59 241.87C269.661 241.858 269.735 241.874 269.794 241.915C269.854 241.957 269.896 242.019 269.91 242.09C270.08 243.03 269.11 243.64 268.16 244.24C267.37 244.74 266.55 245.24 266.66 245.82C266.77 246.4 267.66 246.58 268.66 246.77C269.75 246.99 270.88 247.22 271.06 248.16C271.24 249.1 270.26 249.72 269.31 250.31C268.52 250.81 267.71 251.31 267.81 251.89C267.91 252.47 268.86 252.66 269.81 252.84C270.9 253.06 272.03 253.29 272.21 254.23C272.39 255.17 271.41 255.79 270.46 256.38C269.67 256.88 268.85 257.38 268.96 257.97C269.07 258.56 270.01 258.74 270.96 258.97C272.05 259.19 273.18 259.42 273.36 260.36C273.372 260.431 273.356 260.505 273.315 260.564C273.274 260.624 273.211 260.665 273.14 260.68L273.09 260.69Z" fill="white"/>
<path opacity="0.8" d="M352.79 228.68C352.723 228.68 352.659 228.655 352.61 228.61C351.78 227.87 352.25 226.61 352.7 225.33C353.09 224.26 353.5 223.15 352.94 222.65C352.38 222.15 351.33 222.65 350.31 223.19C349.12 223.78 347.9 224.39 347.06 223.65C346.22 222.91 346.7 221.65 347.15 220.37C347.54 219.3 347.95 218.19 347.39 217.69C346.83 217.19 345.78 217.69 344.75 218.23C343.56 218.82 342.34 219.43 341.5 218.69C340.66 217.95 341.13 216.69 341.59 215.41C341.98 214.34 342.38 213.23 341.83 212.73C341.28 212.23 340.22 212.73 339.19 213.27C338 213.86 336.78 214.47 335.94 213.73C335.899 213.678 335.877 213.613 335.88 213.547C335.882 213.481 335.907 213.418 335.951 213.369C335.996 213.319 336.056 213.288 336.122 213.279C336.187 213.27 336.254 213.284 336.31 213.32C336.87 213.82 337.92 213.32 338.95 212.78C340.14 212.19 341.37 211.58 342.2 212.32C343.03 213.06 342.57 214.32 342.11 215.6C341.72 216.67 341.32 217.78 341.87 218.28C342.42 218.78 343.48 218.28 344.51 217.74C345.7 217.15 346.92 216.54 347.76 217.28C348.6 218.02 348.12 219.28 347.67 220.56C347.28 221.63 346.87 222.74 347.43 223.24C347.99 223.74 349.04 223.24 350.06 222.7C351.25 222.11 352.47 221.5 353.31 222.24C354.15 222.98 353.67 224.24 353.22 225.52C352.83 226.59 352.42 227.7 352.98 228.2C353.019 228.238 353.046 228.286 353.058 228.339C353.07 228.393 353.066 228.448 353.047 228.499C353.028 228.55 352.994 228.594 352.95 228.626C352.906 228.658 352.854 228.677 352.8 228.68H352.79Z" fill="white"/>
<path opacity="0.8" d="M162.78 290.6H162.73C161.89 290.44 161.73 289.44 161.5 288.47C161.35 287.68 161.19 286.87 160.71 286.78C160.23 286.69 159.79 287.39 159.36 288.07C158.83 288.9 158.28 289.76 157.44 289.6C156.6 289.44 156.44 288.44 156.21 287.47C156.06 286.68 155.9 285.87 155.42 285.78C154.94 285.69 154.5 286.39 154.07 287.07C153.54 287.9 152.99 288.76 152.15 288.6C151.31 288.44 151.15 287.44 150.92 286.47C150.77 285.68 150.6 284.87 150.12 284.78C149.64 284.69 149.2 285.39 148.76 286.07C148.23 286.9 147.68 287.76 146.84 287.6C146.769 287.585 146.707 287.544 146.665 287.484C146.624 287.425 146.608 287.351 146.62 287.28C146.635 287.209 146.676 287.147 146.736 287.105C146.795 287.064 146.869 287.048 146.94 287.06C147.42 287.15 147.87 286.45 148.3 285.77C148.83 284.94 149.37 284.07 150.22 284.24C151.07 284.41 151.22 285.4 151.45 286.37C151.61 287.16 151.77 287.97 152.25 288.06C152.73 288.15 153.17 287.45 153.6 286.77C154.13 285.94 154.68 285.08 155.52 285.24C156.36 285.4 156.52 286.4 156.75 287.37C156.9 288.16 157.06 288.97 157.54 289.06C158.02 289.15 158.46 288.45 158.89 287.77C159.42 286.94 159.96 286.08 160.81 286.24C161.66 286.4 161.81 287.4 162.04 288.37C162.19 289.16 162.35 289.97 162.83 290.06C162.894 290.077 162.95 290.116 162.988 290.17C163.026 290.224 163.044 290.29 163.038 290.356C163.032 290.422 163.002 290.484 162.955 290.53C162.908 290.577 162.846 290.605 162.78 290.61V290.6Z" fill="white"/>
<path opacity="0.8" d="M405.94 282H405.82C405.38 281.79 405.42 281.23 405.45 280.78C405.45 280.53 405.45 280.15 405.39 280.1C405.33 280.05 405 280.31 404.82 280.48C404.64 280.65 404.08 281.16 403.64 280.95C403.2 280.74 403.23 280.18 403.26 279.73C403.26 279.48 403.26 279.1 403.2 279.05C403.14 279 402.81 279.26 402.63 279.43C402.45 279.6 401.89 280.11 401.44 279.9C400.99 279.69 401.03 279.13 401.06 278.68C401.06 278.43 401.06 278.05 401 277.99C400.94 277.93 400.61 278.2 400.42 278.37C400.23 278.54 399.68 279.05 399.23 278.84C399.174 278.803 399.133 278.746 399.115 278.681C399.097 278.616 399.103 278.547 399.133 278.486C399.162 278.425 399.212 278.377 399.274 278.35C399.336 278.323 399.406 278.32 399.47 278.34C399.58 278.4 399.86 278.13 400.05 277.96C400.24 277.79 400.79 277.28 401.24 277.49C401.69 277.7 401.65 278.26 401.62 278.71C401.62 278.96 401.62 279.34 401.68 279.4C401.74 279.46 402.07 279.19 402.25 279.02C402.43 278.85 402.99 278.34 403.44 278.55C403.89 278.76 403.85 279.32 403.81 279.77C403.81 280.02 403.81 280.4 403.87 280.45C403.93 280.5 404.26 280.24 404.44 280.07C404.62 279.9 405.19 279.39 405.63 279.6C406.07 279.81 406.03 280.37 406 280.82C406 281.07 406 281.45 406.06 281.5C406.111 281.53 406.151 281.576 406.175 281.631C406.198 281.685 406.204 281.746 406.19 281.804C406.177 281.862 406.145 281.914 406.1 281.953C406.055 281.992 405.999 282.015 405.94 282.02V282Z" fill="white"/>
<path opacity="0.8" d="M169.08 327.87C169.03 327.869 168.982 327.855 168.94 327.829C168.897 327.803 168.863 327.766 168.839 327.722C168.816 327.678 168.805 327.629 168.807 327.58C168.808 327.53 168.823 327.482 168.85 327.44C169.41 326.6 168.53 325.32 167.68 324.09C166.68 322.71 165.74 321.28 166.5 320.09C167.26 318.9 168.97 319.29 170.61 319.63C172.08 319.94 173.61 320.25 174.15 319.41C174.69 318.57 173.83 317.3 172.98 316.06C171.98 314.68 171.03 313.25 171.8 312.06C172.57 310.87 174.26 311.26 175.91 311.61C177.38 311.92 178.91 312.23 179.45 311.39C179.99 310.55 179.13 309.28 178.28 308.05C177.28 306.67 176.33 305.24 177.1 304.05C177.87 302.86 179.56 303.25 181.21 303.6C182.67 303.91 184.21 304.22 184.75 303.38C184.795 303.334 184.855 303.305 184.92 303.298C184.984 303.291 185.049 303.306 185.103 303.341C185.157 303.377 185.198 303.43 185.217 303.492C185.237 303.553 185.234 303.62 185.21 303.68C184.45 304.83 182.75 304.48 181.1 304.13C179.63 303.82 178.1 303.51 177.56 304.35C177.02 305.19 177.88 306.46 178.73 307.69C179.73 309.07 180.68 310.5 179.91 311.69C179.14 312.88 177.44 312.49 175.8 312.14C174.33 311.83 172.8 311.52 172.26 312.36C171.72 313.2 172.58 314.47 173.43 315.7C174.43 317.08 175.38 318.51 174.61 319.7C173.84 320.89 172.14 320.5 170.5 320.16C169.03 319.85 167.5 319.54 166.96 320.38C166.42 321.22 167.28 322.5 168.13 323.73C169.13 325.11 170.07 326.54 169.31 327.73C169.287 327.771 169.253 327.805 169.213 327.83C169.173 327.854 169.127 327.868 169.08 327.87Z" fill="white"/>
<path opacity="0.8" d="M336.66 316C336.609 316 336.558 315.986 336.514 315.96C336.47 315.934 336.434 315.895 336.41 315.85C335.9 314.85 336.8 313.85 337.67 312.85C338.54 311.85 339.19 311.11 338.86 310.45C338.53 309.79 337.35 309.9 336.22 310C334.91 310.12 333.55 310.25 333.04 309.26C332.53 308.27 333.43 307.26 334.3 306.26C335.17 305.26 335.82 304.52 335.49 303.86C335.16 303.2 333.98 303.31 332.85 303.41C331.54 303.53 330.18 303.66 329.67 302.67C329.16 301.68 330.06 300.67 330.93 299.67C331.8 298.67 332.45 297.93 332.12 297.27C331.79 296.61 330.61 296.72 329.48 296.82C328.17 296.94 326.81 297.07 326.3 296.07C326.275 296.037 326.257 296 326.248 295.959C326.239 295.919 326.239 295.877 326.248 295.837C326.257 295.797 326.275 295.759 326.3 295.727C326.325 295.694 326.357 295.667 326.394 295.649C326.431 295.63 326.471 295.62 326.512 295.618C326.553 295.617 326.594 295.625 326.632 295.641C326.67 295.657 326.704 295.682 326.731 295.713C326.758 295.744 326.779 295.78 326.79 295.82C327.13 296.48 328.3 296.37 329.43 296.27C330.75 296.15 332.1 296.02 332.61 297.02C333.12 298.02 332.22 299.02 331.35 300.02C330.48 301.02 329.83 301.76 330.16 302.42C330.49 303.08 331.67 302.97 332.8 302.87C334.11 302.75 335.47 302.62 335.98 303.61C336.49 304.6 335.59 305.61 334.72 306.61C333.85 307.61 333.2 308.35 333.53 309.01C333.86 309.67 335.04 309.56 336.17 309.46C337.48 309.34 338.84 309.21 339.35 310.2C339.86 311.19 338.96 312.2 338.09 313.2C337.22 314.2 336.57 314.94 336.9 315.6C336.92 315.642 336.929 315.689 336.927 315.736C336.924 315.783 336.909 315.828 336.885 315.868C336.86 315.908 336.825 315.941 336.784 315.964C336.743 315.987 336.697 315.999 336.65 316H336.66Z" fill="white"/>
<path opacity="0.8" d="M161.59 304.39C161.16 304.34 161.04 303.89 160.94 303.52C160.94 303.38 160.82 303.09 160.76 303.05C160.7 303.01 160.55 303.33 160.48 303.46C160.3 303.79 160.08 304.21 159.65 304.15C159.22 304.09 159.1 303.65 159 303.28C159 303.14 158.88 302.85 158.82 302.81C158.76 302.77 158.6 303.09 158.54 303.22C158.36 303.55 158.14 303.97 157.71 303.91C157.28 303.85 157.16 303.41 157.06 303.04C157.06 302.9 156.94 302.61 156.88 302.57C156.82 302.53 156.66 302.85 156.59 302.98C156.41 303.31 156.18 303.73 155.76 303.67C155.724 303.666 155.688 303.655 155.656 303.637C155.624 303.62 155.596 303.596 155.573 303.567C155.551 303.538 155.535 303.504 155.525 303.469C155.516 303.433 155.514 303.396 155.52 303.36C155.524 303.323 155.535 303.288 155.552 303.256C155.57 303.224 155.594 303.196 155.623 303.173C155.652 303.151 155.686 303.135 155.721 303.125C155.757 303.116 155.794 303.114 155.83 303.12C155.9 303.12 156.05 302.84 156.12 302.71C156.3 302.38 156.52 301.96 156.96 302.02C157.4 302.08 157.51 302.52 157.61 302.89C157.61 303.03 157.73 303.32 157.79 303.36C157.85 303.4 158.01 303.08 158.07 302.95C158.25 302.62 158.48 302.2 158.9 302.26C159.32 302.32 159.45 302.76 159.55 303.13C159.55 303.27 159.67 303.56 159.73 303.6C159.79 303.64 159.94 303.32 160.01 303.19C160.19 302.86 160.41 302.44 160.84 302.5C161.27 302.56 161.39 303 161.49 303.37C161.49 303.51 161.61 303.8 161.67 303.84C161.734 303.852 161.792 303.886 161.833 303.937C161.875 303.987 161.897 304.05 161.897 304.115C161.897 304.18 161.875 304.243 161.833 304.293C161.792 304.344 161.734 304.378 161.67 304.39H161.59Z" fill="white"/>
<path opacity="0.8" d="M200.94 300.14C200.868 300.135 200.8 300.102 200.751 300.048C200.703 299.993 200.677 299.923 200.68 299.85C200.76 298.65 199.13 297.85 197.55 297.13C195.81 296.3 194.01 295.45 194.11 293.88C194.21 292.31 196.11 291.69 197.93 291.09C199.59 290.55 201.3 289.99 201.37 288.79C201.44 287.59 199.82 286.79 198.24 286.08C196.5 285.25 194.7 284.4 194.8 282.84C194.9 281.28 196.8 280.65 198.62 280.05C200.28 279.51 201.99 278.95 202.06 277.75C202.13 276.55 200.51 275.75 198.93 275.04C197.19 274.22 195.39 273.36 195.49 271.8C195.59 270.24 197.49 269.62 199.31 269.02C200.97 268.48 202.68 267.92 202.75 266.73C202.75 266.693 202.757 266.657 202.772 266.623C202.787 266.589 202.809 266.559 202.836 266.535C202.864 266.51 202.896 266.492 202.931 266.48C202.966 266.469 203.003 266.466 203.04 266.47C203.113 266.475 203.18 266.508 203.229 266.562C203.277 266.616 203.303 266.687 203.3 266.76C203.2 268.32 201.3 268.94 199.48 269.54C197.82 270.08 196.11 270.64 196.04 271.83C195.97 273.02 197.59 273.83 199.17 274.54C200.91 275.36 202.71 276.22 202.61 277.78C202.51 279.34 200.61 279.97 198.79 280.57C197.13 281.11 195.42 281.67 195.35 282.87C195.28 284.07 196.9 284.87 198.48 285.58C200.22 286.41 202.02 287.26 201.92 288.82C201.82 290.38 199.92 291.01 198.1 291.61C196.45 292.15 194.73 292.72 194.66 293.91C194.59 295.1 196.21 295.91 197.79 296.63C199.53 297.46 201.33 298.31 201.23 299.88C201.225 299.953 201.192 300.02 201.138 300.069C201.084 300.117 201.013 300.143 200.94 300.14Z" fill="white"/>
<path opacity="0.8" d="M295.78 279H295.68C295.611 278.973 295.556 278.92 295.526 278.853C295.496 278.785 295.494 278.709 295.52 278.64C295.81 277.88 296.78 277.86 297.71 277.85C298.46 277.85 299.23 277.85 299.39 277.41C299.55 276.97 298.98 276.47 298.39 275.96C297.8 275.45 297 274.67 297.29 273.91C297.58 273.15 298.55 273.13 299.48 273.12C300.23 273.12 301 273.12 301.16 272.68C301.32 272.24 300.75 271.74 300.16 271.23C299.57 270.72 298.77 269.94 299.06 269.18C299.35 268.42 300.32 268.4 301.25 268.39C302 268.39 302.77 268.39 302.93 267.95C303.09 267.51 302.52 267.01 301.93 266.5C301.34 265.99 300.54 265.21 300.83 264.45C300.865 264.396 300.918 264.356 300.979 264.337C301.04 264.318 301.106 264.32 301.166 264.343C301.226 264.367 301.276 264.41 301.307 264.466C301.339 264.522 301.351 264.587 301.34 264.65C301.18 265.07 301.75 265.59 302.34 266.1C302.93 266.61 303.73 267.39 303.44 268.15C303.15 268.91 302.18 268.93 301.25 268.94C300.5 268.94 299.73 268.94 299.57 269.38C299.41 269.82 299.98 270.32 300.57 270.83C301.16 271.34 301.96 272.12 301.67 272.88C301.38 273.64 300.41 273.66 299.48 273.67C298.73 273.67 297.96 273.67 297.8 274.11C297.64 274.55 298.21 275.05 298.8 275.56C299.39 276.07 300.19 276.85 299.9 277.56C299.61 278.27 298.64 278.34 297.71 278.35C296.96 278.35 296.19 278.35 296.03 278.79C296.016 278.847 295.984 278.897 295.939 278.935C295.894 278.973 295.838 278.995 295.78 279Z" fill="white"/>
<path opacity="0.8" d="M179.76 231.69C179.717 231.69 179.675 231.679 179.637 231.66C179.599 231.641 179.566 231.614 179.54 231.58L172.27 221.78L171 230.12C170.989 230.171 170.964 230.219 170.927 230.257C170.89 230.295 170.844 230.321 170.793 230.334C170.742 230.346 170.688 230.344 170.638 230.328C170.588 230.311 170.544 230.281 170.51 230.24L162.07 218.86C162.041 218.801 162.034 218.735 162.049 218.671C162.065 218.608 162.102 218.552 162.154 218.513C162.206 218.474 162.27 218.454 162.335 218.457C162.4 218.46 162.462 218.486 162.51 218.53L170.51 229.37L171.75 221.03C171.761 220.978 171.786 220.931 171.823 220.893C171.86 220.855 171.906 220.829 171.957 220.816C172.009 220.803 172.062 220.806 172.112 220.822C172.162 220.839 172.207 220.869 172.24 220.91L180 231.25C180.029 231.291 180.046 231.34 180.05 231.39C180.053 231.44 180.043 231.49 180.021 231.535C179.998 231.58 179.964 231.618 179.922 231.646C179.879 231.673 179.83 231.688 179.78 231.69H179.76Z" fill="white"/>
<path opacity="0.8" d="M330 243.78C329.95 243.778 329.901 243.763 329.858 243.736C329.816 243.709 329.782 243.67 329.759 243.625C329.737 243.58 329.727 243.53 329.73 243.48C329.734 243.43 329.751 243.381 329.78 243.34L334.31 237.34L329.25 238.04C329.196 238.048 329.14 238.04 329.09 238.017C329.041 237.994 328.999 237.957 328.97 237.91C328.94 237.864 328.923 237.81 328.923 237.755C328.923 237.7 328.94 237.646 328.97 237.6L334.4 230.43C334.448 230.386 334.51 230.361 334.575 230.357C334.64 230.354 334.704 230.374 334.756 230.413C334.809 230.452 334.845 230.508 334.861 230.572C334.876 230.635 334.869 230.702 334.84 230.76L329.84 237.4L334.9 236.7C334.954 236.692 335.01 236.7 335.06 236.723C335.109 236.746 335.151 236.783 335.18 236.83C335.211 236.876 335.227 236.93 335.227 236.985C335.227 237.04 335.211 237.094 335.18 237.14L330.25 243.66C330.223 243.701 330.186 243.733 330.142 243.755C330.098 243.776 330.049 243.785 330 243.78Z" fill="white"/>
<path opacity="0.8" d="M359.14 299.3C359.084 299.297 359.031 299.278 358.986 299.244C358.942 299.211 358.908 299.165 358.89 299.112C358.872 299.06 358.87 299.003 358.884 298.949C358.898 298.895 358.928 298.847 358.97 298.81L368.91 290.75L360.97 289.92C360.916 289.914 360.865 289.892 360.823 289.857C360.782 289.822 360.751 289.776 360.735 289.724C360.719 289.672 360.719 289.617 360.734 289.564C360.749 289.512 360.779 289.465 360.82 289.43L370.32 281.73C370.347 281.701 370.38 281.677 370.417 281.662C370.454 281.646 370.494 281.639 370.534 281.64C370.574 281.642 370.614 281.651 370.65 281.669C370.686 281.687 370.717 281.712 370.743 281.743C370.768 281.774 370.786 281.811 370.796 281.849C370.807 281.888 370.808 281.929 370.801 281.968C370.794 282.008 370.779 282.045 370.756 282.078C370.734 282.111 370.704 282.139 370.67 282.16L361.67 289.45L369.61 290.28C369.664 290.286 369.715 290.308 369.757 290.343C369.798 290.378 369.829 290.424 369.845 290.476C369.861 290.528 369.861 290.583 369.846 290.636C369.831 290.688 369.801 290.734 369.76 290.77L359.3 299.25C359.253 299.283 359.197 299.301 359.14 299.3Z" fill="white"/>
<path opacity="0.8" d="M369.29 245.4C369.217 245.4 369.148 245.372 369.095 245.321C369.043 245.271 369.013 245.202 369.01 245.13L368.8 237.62L365.65 241C365.613 241.041 365.565 241.069 365.511 241.082C365.457 241.094 365.401 241.09 365.35 241.07C365.299 241.05 365.254 241.016 365.223 240.972C365.191 240.927 365.172 240.875 365.17 240.82L364.96 233.39C364.96 233.317 364.988 233.248 365.038 233.195C365.089 233.143 365.157 233.112 365.23 233.11C365.302 233.112 365.37 233.141 365.422 233.191C365.474 233.241 365.505 233.308 365.51 233.38L365.7 240.14L368.85 236.8C368.888 236.761 368.936 236.734 368.989 236.722C369.042 236.71 369.098 236.714 369.149 236.733C369.2 236.752 369.244 236.786 369.276 236.83C369.308 236.873 369.327 236.926 369.33 236.98L369.56 245.16C369.56 245.232 369.532 245.302 369.482 245.354C369.431 245.407 369.362 245.437 369.29 245.44V245.4Z" fill="white"/>
<path opacity="0.8" d="M413.61 207.5H413.54C413.505 207.491 413.472 207.475 413.443 207.452C413.414 207.43 413.39 207.402 413.373 207.371C413.355 207.339 413.344 207.304 413.34 207.268C413.336 207.231 413.339 207.195 413.35 207.16L416.49 195.86L409.49 199.86C409.443 199.884 409.39 199.894 409.337 199.889C409.284 199.884 409.234 199.864 409.192 199.832C409.15 199.799 409.118 199.755 409.1 199.706C409.082 199.656 409.079 199.602 409.09 199.55L412.74 186.41C412.744 186.369 412.757 186.33 412.778 186.294C412.798 186.259 412.827 186.229 412.861 186.205C412.895 186.182 412.933 186.167 412.974 186.16C413.014 186.154 413.056 186.156 413.095 186.167C413.135 186.178 413.171 186.198 413.202 186.225C413.233 186.252 413.258 186.285 413.275 186.323C413.291 186.36 413.3 186.401 413.299 186.442C413.298 186.483 413.288 186.523 413.27 186.56L409.74 199L416.74 195C416.786 194.97 416.84 194.953 416.895 194.953C416.95 194.953 417.004 194.97 417.05 195C417.094 195.033 417.127 195.078 417.145 195.13C417.163 195.181 417.165 195.237 417.15 195.29L413.83 207.23C413.829 207.293 413.807 207.354 413.767 207.403C413.727 207.452 413.672 207.487 413.61 207.5Z" fill="white"/>
<path opacity="0.8" d="M279.53 276.8L275.29 276.58C275.217 276.575 275.15 276.542 275.101 276.488C275.053 276.434 275.027 276.363 275.03 276.29C275.03 276.253 275.037 276.217 275.052 276.183C275.067 276.149 275.089 276.119 275.116 276.095C275.144 276.07 275.176 276.052 275.211 276.04C275.246 276.029 275.283 276.026 275.32 276.03L278.9 276.21L277.33 274.47C277.302 274.425 277.286 274.373 277.286 274.32C277.286 274.267 277.302 274.215 277.33 274.17C277.351 274.119 277.387 274.077 277.434 274.048C277.481 274.019 277.535 274.006 277.59 274.01L282.26 274.25C282.296 274.251 282.332 274.26 282.365 274.275C282.398 274.291 282.427 274.313 282.452 274.34C282.476 274.367 282.495 274.398 282.506 274.433C282.518 274.467 282.523 274.504 282.52 274.54C282.52 274.577 282.513 274.613 282.498 274.647C282.483 274.681 282.461 274.711 282.434 274.735C282.406 274.76 282.374 274.778 282.339 274.79C282.304 274.801 282.267 274.804 282.23 274.8L278.23 274.59L279.8 276.33C279.834 276.37 279.855 276.418 279.863 276.47C279.87 276.522 279.863 276.574 279.843 276.622C279.822 276.67 279.788 276.711 279.745 276.741C279.702 276.77 279.652 276.787 279.6 276.79L279.53 276.8Z" fill="white"/>
<path opacity="0.8" d="M165.07 243.62C165.002 243.618 164.938 243.592 164.888 243.546C164.839 243.5 164.807 243.437 164.8 243.37L164.55 240.59L163.41 242C163.375 242.041 163.328 242.071 163.276 242.086C163.224 242.101 163.168 242.101 163.116 242.085C163.064 242.069 163.018 242.038 162.983 241.997C162.948 241.955 162.926 241.904 162.92 241.85L162.59 238.06C162.584 237.987 162.607 237.915 162.654 237.859C162.701 237.803 162.768 237.768 162.84 237.76C162.913 237.755 162.985 237.777 163.041 237.824C163.097 237.871 163.132 237.938 163.14 238.01L163.42 241.14L164.56 239.78C164.594 239.738 164.639 239.707 164.691 239.69C164.743 239.674 164.798 239.674 164.85 239.69C164.902 239.707 164.947 239.739 164.981 239.782C165.015 239.824 165.035 239.876 165.04 239.93L165.34 243.38C165.346 243.453 165.323 243.525 165.276 243.581C165.229 243.637 165.163 243.673 165.09 243.68L165.07 243.62Z" fill="white"/>
<path opacity="0.8" d="M135.25 222.28C135.191 222.275 135.135 222.252 135.09 222.213C135.045 222.174 135.013 222.122 135 222.064C134.986 222.006 134.992 221.945 135.015 221.891C135.039 221.836 135.079 221.79 135.13 221.76L145.41 216.64L137.9 214.12C137.851 214.098 137.809 214.062 137.78 214.017C137.751 213.972 137.736 213.919 137.736 213.865C137.736 213.811 137.751 213.759 137.78 213.713C137.809 213.668 137.851 213.632 137.9 213.61L149.9 207.61C149.933 207.585 149.97 207.567 150.01 207.558C150.051 207.549 150.092 207.549 150.133 207.558C150.173 207.567 150.211 207.585 150.243 207.61C150.276 207.635 150.302 207.667 150.321 207.704C150.34 207.741 150.35 207.781 150.352 207.822C150.353 207.864 150.345 207.904 150.329 207.942C150.312 207.98 150.288 208.014 150.257 208.041C150.226 208.068 150.19 208.089 150.15 208.1L138.78 213.77L146.29 216.29C146.339 216.312 146.381 216.348 146.41 216.393C146.439 216.439 146.454 216.491 146.454 216.545C146.454 216.599 146.439 216.652 146.41 216.697C146.381 216.742 146.339 216.778 146.29 216.8L135.42 222.22C135.372 222.259 135.312 222.28 135.25 222.28Z" fill="white"/>
<path opacity="0.8" d="M270.9 217.78C270.849 217.778 270.799 217.761 270.757 217.733C270.714 217.705 270.68 217.665 270.659 217.619C270.637 217.572 270.628 217.521 270.634 217.47C270.64 217.419 270.659 217.371 270.69 217.33L273.44 214.09L270.96 214.29C270.907 214.291 270.855 214.278 270.81 214.251C270.764 214.224 270.727 214.185 270.703 214.137C270.679 214.09 270.669 214.037 270.674 213.985C270.678 213.932 270.698 213.882 270.73 213.84L273.62 210.44C273.671 210.397 273.735 210.373 273.802 210.373C273.869 210.373 273.933 210.397 273.984 210.44C274.035 210.484 274.068 210.544 274.078 210.61C274.089 210.676 274.075 210.743 274.04 210.8L271.58 213.69L274.06 213.49C274.115 213.486 274.17 213.498 274.218 213.524C274.266 213.551 274.305 213.591 274.33 213.64C274.358 213.685 274.374 213.737 274.374 213.79C274.374 213.843 274.358 213.895 274.33 213.94L271.15 217.68C271.121 217.717 271.082 217.746 271.038 217.763C270.995 217.781 270.947 217.787 270.9 217.78Z" fill="white"/>
<path opacity="0.8" d="M382.54 297.23C382.477 297.225 382.417 297.199 382.371 297.155C382.324 297.112 382.294 297.055 382.285 296.992C382.275 296.929 382.288 296.865 382.32 296.81C382.351 296.755 382.401 296.713 382.46 296.69L385.3 295.8L383.82 295.02C383.771 294.998 383.729 294.962 383.7 294.917C383.671 294.871 383.656 294.819 383.656 294.765C383.656 294.711 383.671 294.658 383.7 294.613C383.729 294.568 383.771 294.532 383.82 294.51L386.97 293.51C387.036 293.5 387.104 293.515 387.16 293.551C387.217 293.587 387.258 293.642 387.278 293.706C387.297 293.77 387.293 293.839 387.266 293.9C387.239 293.962 387.19 294.011 387.13 294.04L384.61 294.83L386.09 295.61C386.139 295.632 386.181 295.668 386.21 295.713C386.239 295.758 386.254 295.811 386.254 295.865C386.254 295.919 386.239 295.971 386.21 296.017C386.181 296.062 386.139 296.098 386.09 296.12L382.62 297.2L382.54 297.23Z" fill="white"/>
<path opacity="0.8" d="M274.09 305.79H274C273.93 305.769 273.872 305.722 273.836 305.658C273.801 305.595 273.791 305.52 273.81 305.45L275.81 298.45L271.47 300.83C271.422 300.855 271.367 300.866 271.313 300.86C271.259 300.855 271.208 300.834 271.166 300.8C271.123 300.766 271.092 300.721 271.075 300.669C271.058 300.618 271.056 300.563 271.07 300.51L273.52 292.12C273.524 292.079 273.537 292.04 273.558 292.004C273.578 291.969 273.607 291.939 273.641 291.915C273.674 291.892 273.713 291.877 273.754 291.87C273.794 291.864 273.835 291.866 273.875 291.877C273.914 291.888 273.951 291.908 273.982 291.935C274.013 291.962 274.038 291.995 274.055 292.033C274.071 292.07 274.079 292.111 274.079 292.152C274.078 292.193 274.068 292.233 274.05 292.27L271.85 300L276.19 297.62C276.238 297.595 276.293 297.584 276.347 297.59C276.401 297.595 276.452 297.616 276.494 297.65C276.537 297.684 276.568 297.729 276.585 297.781C276.602 297.832 276.604 297.888 276.59 297.94L274.36 305.56C274.348 305.624 274.315 305.681 274.266 305.723C274.217 305.765 274.155 305.789 274.09 305.79Z" fill="white"/>
<path opacity="0.8" d="M286.18 255.36C286.116 255.348 286.058 255.314 286.017 255.263C285.975 255.213 285.953 255.15 285.953 255.085C285.953 255.02 285.975 254.957 286.017 254.907C286.058 254.856 286.116 254.822 286.18 254.81L288.61 254.65L287.46 253.65C287.422 253.613 287.395 253.567 287.382 253.515C287.369 253.464 287.371 253.41 287.388 253.359C287.405 253.309 287.436 253.265 287.477 253.231C287.518 253.198 287.567 253.176 287.62 253.17L291.03 252.95C291.066 252.947 291.103 252.952 291.137 252.964C291.172 252.975 291.203 252.994 291.23 253.018C291.257 253.042 291.279 253.072 291.295 253.105C291.31 253.138 291.319 253.174 291.32 253.21C291.323 253.283 291.297 253.353 291.249 253.408C291.2 253.462 291.132 253.495 291.06 253.5L288.32 253.68L289.47 254.68C289.508 254.717 289.535 254.763 289.548 254.815C289.561 254.866 289.559 254.92 289.542 254.971C289.525 255.021 289.494 255.065 289.453 255.099C289.412 255.132 289.363 255.154 289.31 255.16L286.22 255.36H286.18Z" fill="white"/>
<path opacity="0.8" d="M312.2 236.12C312.15 236.118 312.101 236.103 312.058 236.076C312.016 236.048 311.982 236.01 311.959 235.965C311.937 235.92 311.927 235.87 311.93 235.82C311.934 235.77 311.951 235.721 311.98 235.68L321 224L311.83 225.16C311.777 225.164 311.724 225.153 311.678 225.128C311.631 225.103 311.592 225.065 311.566 225.019C311.54 224.973 311.527 224.92 311.53 224.867C311.532 224.814 311.55 224.763 311.58 224.72L320.17 213.64C320.218 213.591 320.282 213.561 320.351 213.557C320.419 213.552 320.487 213.573 320.541 213.615C320.595 213.656 320.632 213.717 320.645 213.784C320.658 213.851 320.645 213.921 320.61 213.98L312.43 224.53L321.6 223.37C321.653 223.366 321.706 223.377 321.753 223.402C321.799 223.427 321.838 223.465 321.864 223.511C321.89 223.557 321.903 223.609 321.9 223.662C321.898 223.715 321.88 223.767 321.85 223.81L312.42 236C312.395 236.036 312.362 236.065 312.324 236.086C312.286 236.107 312.244 236.118 312.2 236.12Z" fill="white"/>
<path opacity="0.8" d="M385.91 242.55C385.851 242.548 385.794 242.528 385.748 242.492C385.701 242.456 385.667 242.406 385.65 242.35L383.65 235.95L381.52 239.95C381.498 239.999 381.462 240.041 381.417 240.07C381.372 240.099 381.319 240.114 381.265 240.114C381.211 240.114 381.159 240.099 381.113 240.07C381.068 240.041 381.032 239.999 381.01 239.95L378.65 232.21C378.641 232.144 378.655 232.076 378.691 232.02C378.727 231.963 378.782 231.922 378.846 231.902C378.91 231.883 378.979 231.887 379.041 231.914C379.102 231.941 379.151 231.99 379.18 232.05L381.35 239.16L383.48 235.16C383.508 235.114 383.548 235.077 383.595 235.052C383.643 235.027 383.696 235.016 383.75 235.02C383.804 235.025 383.856 235.046 383.898 235.079C383.941 235.113 383.973 235.159 383.99 235.21L386.14 242.21C386.159 242.279 386.151 242.353 386.118 242.416C386.084 242.479 386.028 242.527 385.96 242.55H385.91Z" fill="white"/>
<path opacity="0.8" d="M234.7 231.14C234.638 231.14 234.578 231.119 234.529 231.081C234.48 231.043 234.446 230.99 234.43 230.93L231.27 217L226.51 224.56C226.479 224.604 226.437 224.638 226.387 224.658C226.338 224.678 226.284 224.684 226.231 224.675C226.179 224.665 226.13 224.641 226.091 224.605C226.052 224.568 226.024 224.522 226.01 224.47L223.01 211.24C222.995 211.202 222.989 211.162 222.991 211.122C222.993 211.081 223.004 211.042 223.023 211.006C223.042 210.97 223.069 210.939 223.101 210.915C223.133 210.89 223.17 210.873 223.21 210.864C223.249 210.855 223.29 210.855 223.33 210.864C223.369 210.872 223.407 210.889 223.439 210.914C223.471 210.938 223.498 210.969 223.517 211.005C223.536 211.04 223.548 211.08 223.55 211.12L226.41 223.7L231.17 216.14C231.201 216.096 231.243 216.062 231.293 216.042C231.342 216.022 231.396 216.016 231.449 216.025C231.501 216.035 231.55 216.059 231.589 216.095C231.629 216.132 231.657 216.178 231.67 216.23L235 230.81C235.009 230.845 235.01 230.882 235.004 230.919C234.999 230.955 234.985 230.989 234.966 231.02C234.946 231.051 234.92 231.077 234.89 231.098C234.86 231.119 234.826 231.133 234.79 231.14H234.7Z" fill="white"/>
<path opacity="0.8" d="M225.47 251.33C225.398 251.322 225.331 251.287 225.284 251.231C225.237 251.175 225.214 251.103 225.22 251.03L225.55 246.75L223.63 248.39C223.588 248.422 223.538 248.442 223.485 248.446C223.433 248.451 223.38 248.441 223.333 248.417C223.285 248.393 223.246 248.356 223.219 248.31C223.192 248.265 223.179 248.213 223.18 248.16L223.53 243.66C223.538 243.587 223.573 243.521 223.629 243.474C223.685 243.427 223.757 243.404 223.83 243.41C223.903 243.418 223.969 243.453 224.016 243.509C224.063 243.565 224.086 243.637 224.08 243.71L223.78 247.54L225.7 245.9C225.742 245.868 225.792 245.848 225.845 245.844C225.898 245.839 225.95 245.849 225.998 245.873C226.045 245.897 226.084 245.934 226.111 245.98C226.138 246.025 226.151 246.077 226.15 246.13L225.76 251.08C225.752 251.151 225.718 251.216 225.664 251.262C225.611 251.309 225.541 251.333 225.47 251.33Z" fill="white"/>
<path opacity="0.8" d="M287.55 212.77C287.501 212.77 287.453 212.756 287.411 212.732C287.369 212.707 287.334 212.672 287.309 212.629C287.285 212.587 287.272 212.538 287.272 212.489C287.273 212.441 287.286 212.392 287.31 212.35L291.13 206.03L286.75 207.11C286.698 207.121 286.643 207.116 286.594 207.096C286.544 207.077 286.501 207.044 286.469 207.001C286.438 206.958 286.419 206.907 286.416 206.853C286.412 206.8 286.424 206.747 286.45 206.7L290.23 200.44C290.245 200.402 290.269 200.368 290.298 200.341C290.328 200.313 290.364 200.292 290.402 200.279C290.441 200.267 290.482 200.263 290.522 200.268C290.563 200.272 290.602 200.286 290.636 200.307C290.671 200.329 290.701 200.357 290.723 200.391C290.745 200.425 290.76 200.464 290.766 200.504C290.772 200.544 290.769 200.585 290.758 200.624C290.747 200.663 290.727 200.699 290.7 200.73L287.26 206.42L291.64 205.34C291.692 205.33 291.747 205.334 291.796 205.354C291.846 205.373 291.889 205.406 291.921 205.449C291.952 205.492 291.971 205.544 291.974 205.597C291.978 205.65 291.966 205.703 291.94 205.75L287.78 212.64C287.755 212.679 287.721 212.711 287.681 212.734C287.641 212.757 287.596 212.769 287.55 212.77Z" fill="white"/>
<path opacity="0.8" d="M206.39 210.58C206.328 210.58 206.268 210.559 206.22 210.52L203.68 208.52C203.643 208.501 203.61 208.475 203.585 208.442C203.559 208.409 203.541 208.371 203.532 208.33C203.523 208.29 203.523 208.248 203.532 208.207C203.541 208.166 203.56 208.128 203.586 208.096C203.611 208.063 203.644 208.037 203.681 208.018C203.719 208 203.76 207.99 203.801 207.99C203.843 207.989 203.884 207.998 203.922 208.015C203.96 208.032 203.993 208.058 204.02 208.09L206.02 209.68L205.85 208.27C205.846 208.217 205.857 208.164 205.882 208.117C205.907 208.071 205.945 208.032 205.991 208.006C206.037 207.98 206.09 207.967 206.143 207.97C206.195 207.972 206.247 207.99 206.29 208.02L208.6 209.84C208.637 209.859 208.67 209.885 208.696 209.918C208.721 209.951 208.739 209.989 208.748 210.03C208.757 210.07 208.757 210.112 208.748 210.153C208.739 210.194 208.72 210.232 208.695 210.264C208.669 210.297 208.636 210.323 208.599 210.342C208.561 210.36 208.52 210.37 208.479 210.37C208.437 210.371 208.396 210.362 208.358 210.345C208.32 210.328 208.287 210.302 208.26 210.27L206.47 208.86L206.64 210.27C206.647 210.324 206.637 210.378 206.612 210.427C206.587 210.475 206.548 210.514 206.5 210.54C206.467 210.561 206.429 210.575 206.39 210.58Z" fill="white"/>
<path opacity="0.8" d="M311.63 331.07C311.594 331.069 311.558 331.06 311.525 331.045C311.492 331.029 311.463 331.008 311.438 330.98C311.414 330.953 311.395 330.922 311.384 330.887C311.372 330.853 311.367 330.816 311.37 330.78L311.95 318.02L305.42 324.02C305.379 324.055 305.329 324.077 305.275 324.083C305.222 324.09 305.168 324.081 305.119 324.058C305.071 324.035 305.03 323.998 305.002 323.953C304.973 323.907 304.959 323.854 304.96 323.8L305.64 309.03C305.641 308.994 305.65 308.958 305.665 308.925C305.681 308.892 305.703 308.863 305.73 308.838C305.757 308.814 305.788 308.795 305.823 308.784C305.857 308.772 305.894 308.767 305.93 308.77C305.966 308.771 306.002 308.78 306.035 308.795C306.068 308.811 306.098 308.833 306.122 308.86C306.146 308.887 306.165 308.918 306.176 308.953C306.188 308.987 306.193 309.024 306.19 309.06L305.54 323.17L312.07 317.17C312.115 317.142 312.167 317.126 312.22 317.126C312.273 317.126 312.325 317.142 312.37 317.17C312.419 317.193 312.46 317.23 312.489 317.276C312.517 317.322 312.531 317.376 312.53 317.43L311.92 330.85C311.906 330.915 311.869 330.973 311.816 331.014C311.762 331.054 311.697 331.074 311.63 331.07Z" fill="white"/>
<path opacity="0.8" d="M405.93 264.65C405.872 264.649 405.816 264.63 405.77 264.596C405.723 264.562 405.688 264.515 405.67 264.46L402.92 256.14L400.23 261.5C400.206 261.55 400.167 261.591 400.119 261.617C400.07 261.644 400.015 261.656 399.96 261.65C399.906 261.645 399.854 261.625 399.812 261.591C399.769 261.557 399.737 261.512 399.72 261.46L396.46 251.61C396.439 251.574 396.426 251.534 396.422 251.492C396.419 251.45 396.425 251.408 396.44 251.369C396.454 251.33 396.478 251.295 396.508 251.266C396.538 251.237 396.575 251.215 396.614 251.202C396.654 251.189 396.696 251.185 396.738 251.191C396.779 251.196 396.819 251.211 396.854 251.234C396.889 251.256 396.919 251.287 396.94 251.323C396.962 251.358 396.976 251.398 396.98 251.44L400.03 260.66L402.72 255.3C402.742 255.251 402.778 255.21 402.823 255.18C402.868 255.151 402.921 255.136 402.975 255.136C403.029 255.136 403.081 255.151 403.127 255.18C403.172 255.21 403.208 255.251 403.23 255.3L406.23 264.25C406.253 264.319 406.247 264.394 406.216 264.459C406.184 264.525 406.128 264.575 406.06 264.6L405.93 264.65Z" fill="white"/>
<path opacity="0.8" d="M370.07 317.17H369.95L356 310.74C355.947 310.702 355.908 310.647 355.892 310.584C355.875 310.521 355.88 310.454 355.908 310.394C355.935 310.335 355.982 310.287 356.041 310.259C356.1 310.231 356.167 310.224 356.23 310.24L369.56 316.36L366 306.82C365.983 306.769 365.98 306.714 365.993 306.662C366.006 306.61 366.034 306.563 366.073 306.526C366.112 306.489 366.16 306.464 366.213 306.454C366.266 306.444 366.32 306.45 366.37 306.47L381.71 313.47C381.763 313.508 381.802 313.563 381.819 313.626C381.835 313.689 381.83 313.756 381.802 313.815C381.775 313.875 381.728 313.923 381.669 313.951C381.61 313.979 381.543 313.986 381.48 313.97L366.75 307.2L370.28 316.74C370.294 316.782 370.298 316.826 370.292 316.87C370.286 316.913 370.269 316.955 370.244 316.991C370.219 317.027 370.185 317.057 370.146 317.077C370.107 317.098 370.064 317.109 370.02 317.11L370.07 317.17Z" fill="white"/>
<path opacity="0.8" d="M365.8 273.72C365.728 273.715 365.66 273.682 365.611 273.628C365.563 273.573 365.537 273.503 365.54 273.43L366.05 260.58L359.51 266.58C359.47 266.614 359.42 266.636 359.368 266.643C359.315 266.65 359.262 266.642 359.214 266.62C359.166 266.598 359.125 266.563 359.096 266.519C359.067 266.474 359.051 266.423 359.05 266.37L359.64 251.49C359.645 251.417 359.678 251.35 359.732 251.301C359.787 251.253 359.857 251.227 359.93 251.23C360.003 251.235 360.07 251.268 360.119 251.322C360.167 251.376 360.193 251.447 360.19 251.52L359.62 265.73L366.16 259.73C366.201 259.696 366.25 259.674 366.302 259.667C366.355 259.66 366.408 259.668 366.456 259.69C366.505 259.712 366.545 259.747 366.574 259.791C366.603 259.835 366.619 259.887 366.62 259.94L366.08 273.46C366.075 273.531 366.043 273.597 365.991 273.645C365.939 273.693 365.871 273.72 365.8 273.72Z" fill="white"/>
<path opacity="0.8" d="M374.24 220.68H374.17L368.17 219.17C368.13 219.166 368.092 219.153 368.058 219.133C368.024 219.113 367.994 219.085 367.971 219.053C367.948 219.02 367.933 218.983 367.925 218.944C367.918 218.905 367.919 218.865 367.928 218.826C367.937 218.787 367.955 218.751 367.979 218.72C368.004 218.688 368.035 218.663 368.07 218.644C368.105 218.625 368.144 218.615 368.183 218.612C368.223 218.61 368.263 218.616 368.3 218.63L373.65 219.98L372 217.14C371.969 217.094 371.953 217.04 371.953 216.985C371.953 216.93 371.969 216.876 372 216.83C372.033 216.787 372.079 216.754 372.13 216.737C372.182 216.719 372.237 216.717 372.29 216.73L377.73 218.1C377.77 218.104 377.808 218.117 377.842 218.137C377.876 218.157 377.906 218.185 377.929 218.217C377.952 218.25 377.967 218.287 377.975 218.326C377.982 218.365 377.981 218.405 377.972 218.444C377.963 218.483 377.945 218.519 377.921 218.55C377.896 218.582 377.866 218.607 377.83 218.626C377.795 218.645 377.756 218.655 377.717 218.658C377.677 218.66 377.637 218.654 377.6 218.64L372.8 217.43L374.49 220.27C374.514 220.312 374.527 220.36 374.528 220.409C374.528 220.458 374.515 220.506 374.491 220.549C374.466 220.591 374.431 220.627 374.389 220.652C374.347 220.676 374.299 220.69 374.25 220.69L374.24 220.68Z" fill="white"/>
</g>
</g>
<path d="M150.58 238C141.42 234.42 131.42 227.73 125.19 223C124.215 222.248 123.398 221.31 122.786 220.241C122.175 219.172 121.781 217.993 121.627 216.771C121.473 215.549 121.562 214.309 121.889 213.122C122.216 211.935 122.775 210.824 123.533 209.853C124.291 208.883 125.234 208.072 126.307 207.467C127.38 206.862 128.561 206.476 129.784 206.33C131.007 206.183 132.247 206.28 133.432 206.615C134.617 206.95 135.724 207.516 136.69 208.28L145.89 215.67L142.71 208C142.495 207.478 142.404 206.914 142.446 206.351C142.488 205.789 142.66 205.244 142.95 204.76C143.264 204.236 143.709 203.802 144.24 203.5C144.955 203.081 145.793 202.92 146.612 203.046C147.432 203.172 148.183 203.576 148.74 204.19L164.32 221.35" stroke="#212832" stroke-miterlimit="10"/>
<path d="M402.68 242.66L419.75 223.85C420.307 223.236 421.057 222.831 421.876 222.704C422.695 222.576 423.533 222.734 424.25 223.15C424.781 223.453 425.225 223.886 425.54 224.41C425.832 224.895 426.006 225.442 426.048 226.006C426.089 226.571 425.998 227.137 425.78 227.66L422.6 235.34L431.8 227.95C432.766 227.186 433.873 226.62 435.058 226.285C436.243 225.95 437.483 225.853 438.706 226C439.928 226.146 441.11 226.532 442.183 227.137C443.256 227.742 444.199 228.553 444.957 229.523C445.715 230.494 446.274 231.605 446.601 232.792C446.928 233.979 447.017 235.219 446.863 236.441C446.709 237.663 446.315 238.843 445.704 239.912C445.092 240.98 444.275 241.918 443.3 242.67C435.97 248.22 423.38 256.52 413.13 259.24" stroke="#212832" stroke-miterlimit="10"/>
<path d="M239.79 53.45V43.59C239.79 39.3 235.98 35.78 231.32 35.78C226.66 35.78 222.85 39.29 222.85 43.59V53.46" stroke="white" stroke-miterlimit="10"/>
<path d="M247.42 67.12C247.422 69.926 246.691 72.6837 245.299 75.1199C243.907 77.5561 241.902 79.5862 239.483 81.0089C237.065 82.4316 234.317 83.1976 231.511 83.2308C228.705 83.2641 225.94 82.5636 223.488 81.1986C221.036 79.8337 218.984 77.8517 217.535 75.4492C216.085 73.0467 215.289 70.3071 215.224 67.5019C215.16 64.6968 215.829 61.9235 217.167 59.4569C218.505 56.9903 220.464 54.9162 222.85 53.44C225.395 51.8659 228.328 51.032 231.32 51.032C234.312 51.032 237.245 51.8659 239.79 53.44C242.122 54.8807 244.048 56.8939 245.383 59.2882C246.719 61.6825 247.42 64.3785 247.42 67.12V67.12Z" stroke="white" stroke-miterlimit="10"/>
<path d="M233.86 63.7299V68.8099C233.86 69.4836 233.592 70.1296 233.116 70.606C232.64 71.0823 231.994 71.3499 231.32 71.3499C230.646 71.3499 230 71.0823 229.524 70.606C229.048 70.1296 228.78 69.4836 228.78 68.8099V63.7299C228.78 63.0563 229.048 62.4102 229.524 61.9339C230 61.4575 230.646 61.1899 231.32 61.1899C231.994 61.1899 232.64 61.4575 233.116 61.9339C233.592 62.4102 233.86 63.0563 233.86 63.7299Z" fill="#D52941"/>
<path d="M443.74 503.72C459.795 503.72 472.81 490.705 472.81 474.65C472.81 458.595 459.795 445.58 443.74 445.58C427.685 445.58 414.67 458.595 414.67 474.65C414.67 490.705 427.685 503.72 443.74 503.72Z" fill="#FF8500"/>
<path d="M460.13 463.03C466.929 463.03 472.44 457.519 472.44 450.72C472.44 443.921 466.929 438.41 460.13 438.41C453.331 438.41 447.82 443.921 447.82 450.72C447.82 457.519 453.331 463.03 460.13 463.03Z" stroke="white" stroke-miterlimit="10"/>
<path d="M132.21 543.34L79.29 491.11" stroke="white" stroke-miterlimit="10"/>
<path d="M112.79 555.37L77.23 524.1" stroke="white" stroke-miterlimit="10"/>
<path d="M160.65 355C160.65 355 139.65 369 146.98 390" stroke="white" stroke-miterlimit="10"/>
<path d="M224.65 390.68C224.65 390.68 217.32 403.35 226.98 418.68" stroke="white" stroke-miterlimit="10"/>
<path d="M217.38 381.17L243.32 332.35" stroke="white" stroke-miterlimit="10"/>
<path d="M284.32 328.35L284.11 332.94C283.964 336.194 284.979 339.394 286.973 341.97C288.968 344.545 291.813 346.328 295 347" stroke="white" stroke-miterlimit="10"/>
<path d="M293.82 351.35L269.67 389.83C268.195 392.178 267.631 394.986 268.084 397.722C268.537 400.457 269.977 402.933 272.13 404.68L338.57 458.59" stroke="white" stroke-miterlimit="10"/>
<path d="M415.49 332.32H345C343.939 332.32 342.922 332.741 342.172 333.492C341.421 334.242 341 335.259 341 336.32V346.32H419.47V336.32C419.47 335.263 419.051 334.248 418.306 333.499C417.56 332.749 416.547 332.325 415.49 332.32Z" fill="#FF8500"/>
<path d="M355.03 340.51C355.693 340.51 356.23 339.973 356.23 339.31C356.23 338.647 355.693 338.11 355.03 338.11C354.367 338.11 353.83 338.647 353.83 339.31C353.83 339.973 354.367 340.51 355.03 340.51Z" fill="white"/>
<path d="M349.83 340.51C350.493 340.51 351.03 339.973 351.03 339.31C351.03 338.647 350.493 338.11 349.83 338.11C349.167 338.11 348.63 338.647 348.63 339.31C348.63 339.973 349.167 340.51 349.83 340.51Z" fill="white"/>
<path d="M355.03 340.51C355.693 340.51 356.23 339.973 356.23 339.31C356.23 338.647 355.693 338.11 355.03 338.11C354.367 338.11 353.83 338.647 353.83 339.31C353.83 339.973 354.367 340.51 355.03 340.51Z" fill="white"/>
<path d="M360.23 340.51C360.893 340.51 361.43 339.973 361.43 339.31C361.43 338.647 360.893 338.11 360.23 338.11C359.567 338.11 359.03 338.647 359.03 339.31C359.03 339.973 359.567 340.51 360.23 340.51Z" fill="white"/>
<path d="M414.7 401.32H345.78C344.378 401.317 343.034 400.759 342.042 399.768C341.051 398.776 340.493 397.432 340.49 396.03V337.1C340.493 335.698 341.051 334.354 342.042 333.362C343.034 332.371 344.378 331.813 345.78 331.81H414.7C416.104 331.81 417.45 332.367 418.444 333.359C419.438 334.351 419.997 335.696 420 337.1V396C420.003 396.698 419.867 397.389 419.602 398.034C419.337 398.68 418.947 399.266 418.455 399.761C417.962 400.255 417.377 400.647 416.733 400.915C416.089 401.182 415.398 401.32 414.7 401.32V401.32Z" stroke="white" stroke-miterlimit="10"/>
<path d="M360 364.93V386.59C360 390.16 365.55 390.17 365.55 386.59V364.93C365.55 361.36 360 361.35 360 364.93Z" fill="#28696D"/>
<path d="M377.46 364.93V386.59C377.46 390.16 383.01 390.17 383.01 386.59V364.93C383.01 361.36 377.46 361.35 377.46 364.93Z" fill="#28696D"/>
<path d="M394.93 364.93V386.59C394.93 390.16 400.48 390.17 400.48 386.59V364.93C400.48 361.36 394.93 361.35 394.93 364.93Z" fill="#28696D"/>
<path d="M72.14 169.3C86.51 175.81 132.84 193.6 177.99 176.38C244.49 151 264.76 59.4 356.48 37" stroke="white" stroke-width="2" stroke-linecap="round" stroke-linejoin="round"/>
<path d="M433.28 23.9L343.32 0.0900198C342.795 -0.0538493 342.237 -0.0217451 341.732 0.181419C341.228 0.384583 340.803 0.747614 340.524 1.21495C340.245 1.68229 340.127 2.22819 340.187 2.7691C340.248 3.31001 340.484 3.81614 340.86 4.21002L357.19 21.42L433.28 23.9Z" fill="#FF8500"/>
<path d="M363.9 32.2799L367.73 54.5299C367.892 55.4592 368.28 56.3347 368.858 57.0799C369.437 57.8251 370.189 58.4173 371.049 58.805C371.909 59.1926 372.851 59.3638 373.792 59.3037C374.734 59.2435 375.646 58.9538 376.45 58.4599L433.28 23.8999L363.9 32.2799Z" fill="#FF8500"/>
<path d="M357.18 21.4199L344.13 41.4699L363.9 32.2799L433.27 23.8999L357.18 21.4199Z" fill="#FFD0A1"/>
<path d="M364.87 37.88L344.13 41.47L363.9 32.28L364.87 37.88Z" fill="#080638"/>
<path d="M111.52 327.15C111.523 327.854 111.442 328.555 111.28 329.24C110.805 331.258 109.662 333.056 108.036 334.344C106.411 335.631 104.398 336.331 102.325 336.331C100.252 336.331 98.2391 335.631 96.6137 334.344C94.9883 333.056 93.8452 331.258 93.3699 329.24C93.2074 328.555 93.1268 327.854 93.1299 327.15C92.6499 323.46 97.8599 324.61 102.94 324.61C108.02 324.61 111.54 323.5 111.52 327.15Z" fill="#28696D"/>
<path d="M108.55 265.33C119.9 269.76 122.86 286.33 123.87 297.11C125.05 309.66 129.31 311.79 132.45 316.69C133.467 318.32 134.235 320.093 134.73 321.95C134.823 322.274 134.839 322.615 134.778 322.947C134.717 323.278 134.579 323.591 134.377 323.86C134.174 324.129 133.912 324.348 133.611 324.499C133.309 324.65 132.977 324.729 132.64 324.73H72C71.6638 324.728 71.3328 324.647 71.0327 324.496C70.7326 324.344 70.4717 324.125 70.2703 323.856C70.0689 323.587 69.9325 323.275 69.8717 322.944C69.811 322.614 69.8275 322.273 69.92 321.95C70.4106 320.092 71.1793 318.319 72.2 316.69C75.33 311.79 79.59 309.69 80.78 297.11C81.78 286.31 84.78 269.75 96.1 265.33" stroke="white" stroke-miterlimit="10"/>
<path d="M102.32 252.22C100.738 252.22 99.191 252.689 97.8754 253.568C96.5598 254.447 95.5344 255.697 94.9289 257.159C94.3234 258.62 94.165 260.229 94.4737 261.781C94.7823 263.333 95.5443 264.758 96.6631 265.877C97.7819 266.996 99.2074 267.758 100.759 268.066C102.311 268.375 103.92 268.216 105.381 267.611C106.843 267.005 108.093 265.98 108.972 264.665C109.851 263.349 110.32 261.802 110.32 260.22C110.32 258.098 109.477 256.063 107.977 254.563C106.477 253.063 104.442 252.22 102.32 252.22Z" fill="#FF8500"/>
<path d="M18.52 422.86C28.7483 422.86 37.04 414.568 37.04 404.34C37.04 394.112 28.7483 385.82 18.52 385.82C8.29169 385.82 0 394.112 0 404.34C0 414.568 8.29169 422.86 18.52 422.86Z" fill="#222437"/>
<path d="M21.32 417.87C31.5483 417.87 39.84 409.578 39.84 399.35C39.84 389.122 31.5483 380.83 21.32 380.83C11.0917 380.83 2.79999 389.122 2.79999 399.35C2.79999 409.578 11.0917 417.87 21.32 417.87Z" stroke="black" stroke-width="0.75" stroke-miterlimit="10"/>
<path d="M182.55 146.24L123.88 180.84L65.2 146.24C65.1947 146.207 65.1947 146.173 65.2 146.14C65.2 145.92 68.49 143.22 73.43 139.2L73.56 139.09C89.77 125.94 123.87 99 123.87 99C123.87 99 157.97 125.94 174.18 139.09C179.18 143.16 182.49 145.91 182.54 146.14C182.549 146.173 182.552 146.206 182.55 146.24Z" fill="#66B2B0"/>
<path d="M148 70.3501H84.69C82.0829 70.3501 79.5826 71.3858 77.7391 73.2292C75.8956 75.0727 74.86 77.573 74.86 80.1801V175.9C74.86 177.191 75.1142 178.469 75.6082 179.662C76.1022 180.855 76.8263 181.938 77.7391 182.851C78.6519 183.764 79.7356 184.488 80.9282 184.982C82.1208 185.476 83.3991 185.73 84.69 185.73H164C165.291 185.73 166.569 185.476 167.762 184.982C168.954 184.488 170.038 183.764 170.951 182.851C171.864 181.938 172.588 180.855 173.082 179.662C173.576 178.469 173.83 177.191 173.83 175.9V96.2001L148 70.3501Z" stroke="white" stroke-miterlimit="10"/>
<path d="M148 86.3701C148 88.9772 149.036 91.4775 150.879 93.321C152.723 95.1644 155.223 96.2001 157.83 96.2001H173.83L148 70.3501V86.3701Z" stroke="white" stroke-miterlimit="10"/>
<path d="M115.99 86.53H92.54C91.0488 86.53 89.84 87.7389 89.84 89.23V112.68C89.84 114.171 91.0488 115.38 92.54 115.38H115.99C117.481 115.38 118.69 114.171 118.69 112.68V89.23C118.69 87.7389 117.481 86.53 115.99 86.53Z" fill="white"/>
<path d="M145.1 123.39H92.69C91.9421 123.39 91.2248 123.687 90.696 124.216C90.1671 124.745 89.87 125.462 89.87 126.21C89.8779 126.953 90.1785 127.662 90.7065 128.185C91.2345 128.707 91.9473 129 92.69 129H145.1C145.848 129 146.565 128.703 147.094 128.174C147.623 127.645 147.92 126.928 147.92 126.18C147.912 125.437 147.612 124.728 147.084 124.205C146.556 123.683 145.843 123.39 145.1 123.39Z" fill="white"/>
<path d="M145.1 137.45H92.69C91.9421 137.45 91.2248 137.747 90.696 138.276C90.1671 138.805 89.87 139.522 89.87 140.27C89.87 141.018 90.1671 141.735 90.696 142.264C91.2248 142.793 91.9421 143.09 92.69 143.09H145.1C145.848 143.09 146.565 142.793 147.094 142.264C147.623 141.735 147.92 141.018 147.92 140.27C147.92 139.522 147.623 138.805 147.094 138.276C146.565 137.747 145.848 137.45 145.1 137.45Z" fill="white"/>
<path d="M121.3 151.08H92.69C91.9421 151.08 91.2248 151.377 90.696 151.906C90.1671 152.435 89.87 153.152 89.87 153.9C89.87 154.648 90.1671 155.365 90.696 155.894C91.2248 156.423 91.9421 156.72 92.69 156.72H121.3C122.048 156.72 122.765 156.423 123.294 155.894C123.823 155.365 124.12 154.648 124.12 153.9C124.12 153.152 123.823 152.435 123.294 151.906C122.765 151.377 122.048 151.08 121.3 151.08Z" fill="white"/>
<path d="M182.55 146.24V202.53C182.545 204.425 181.79 206.24 180.45 207.58C179.11 208.92 177.295 209.675 175.4 209.68H72.33C70.4372 209.675 68.6237 208.919 67.2871 207.579C65.9506 206.238 65.2 204.423 65.2 202.53V146.24L123.87 180.84L182.55 146.24Z" fill="#28696D"/>
<path d="M180.57 207.44L142.8 169.68L123.87 180.84L104.94 169.68L67.17 207.44C67.8314 208.146 68.6305 208.709 69.518 209.094C70.4055 209.48 71.3625 209.679 72.33 209.68H175.4C176.369 209.678 177.327 209.478 178.216 209.093C179.105 208.708 179.906 208.145 180.57 207.44Z" fill="#3A9393"/>
</g>
<defs>
<clipPath id="clip0">
<rect width="472.93" height="577.52" fill="white"/>
</clipPath>
</defs>
</svg>
